<svg width="18" height="18" viewBox="0 0 18 18" fill="none" xmlns="http://www.w3.org/2000/svg">
<path fill-rule="evenodd" clip-rule="evenodd" d="M16.875 8.99973C16.875 8.85055 16.8158 8.70748 16.7103 8.60199C16.6048 8.4965 16.4617 8.43723 16.3125 8.43723H3.0454L6.58578 4.89798C6.63808 4.84569 6.67956 4.7836 6.70787 4.71527C6.73617 4.64693 6.75074 4.5737 6.75074 4.49973C6.75074 4.42577 6.73617 4.35253 6.70787 4.2842C6.67956 4.21587 6.63808 4.15378 6.58578 4.10148C6.53348 4.04918 6.47139 4.0077 6.40306 3.9794C6.33473 3.95109 6.26149 3.93652 6.18753 3.93652C6.11357 3.93652 6.04033 3.95109 5.972 3.9794C5.90367 4.0077 5.84158 4.04918 5.78928 4.10148L1.28928 8.60148C1.2369 8.65374 1.19533 8.71581 1.16698 8.78415C1.13862 8.85248 1.12402 8.92575 1.12402 8.99973C1.12402 9.07372 1.13862 9.14698 1.16698 9.21532C1.19533 9.28366 1.2369 9.34573 1.28928 9.39798L5.78928 13.898C5.84158 13.9503 5.90367 13.9918 5.972 14.0201C6.04033 14.0484 6.11357 14.0629 6.18753 14.0629C6.26149 14.0629 6.33473 14.0484 6.40306 14.0201C6.47139 13.9918 6.53348 13.9503 6.58578 13.898C6.63808 13.8457 6.67956 13.7836 6.70787 13.7153C6.73617 13.6469 6.75074 13.5737 6.75074 13.4997C6.75074 13.4258 6.73617 13.3525 6.70787 13.2842C6.67956 13.2159 6.63808 13.1538 6.58578 13.1015L3.0454 9.56223H16.3125C16.4617 9.56223 16.6048 9.50297 16.7103 9.39748C16.8158 9.29199 16.875 9.14892 16.875 8.99973Z" fill="#424242"/>
</svg>
