<svg width="40" height="40" viewBox="0 0 40 40" fill="none" xmlns="http://www.w3.org/2000/svg">
<g clip-path="url(#clip0_57_19379)">
<path d="M39.696 16.6372C38.9607 12.4178 37.0182 8.82258 33.983 5.82507C30.8452 2.72599 27.0893 0.828246 22.7122 0.192411C22.2005 0.117205 21.6848 0.0634859 21.1712 0H18.8273C18.0695 0.102554 17.3039 0.16897 16.5539 0.313522C10.208 1.53538 5.4696 5.00073 2.35429 10.6441C0.624752 13.7764 -0.140892 17.1734 0.0212213 20.7452C0.277087 26.4062 2.53788 31.153 6.746 34.9436C9.62107 37.5338 12.9942 39.1591 16.8175 39.7402C22.8392 40.6563 28.2328 39.1483 32.9009 35.2386C36.3873 32.3192 38.5983 28.5882 39.5554 24.1354C39.7351 23.2993 39.8044 22.4398 39.9275 21.5911C39.947 21.4514 39.9753 21.3137 39.9997 21.175V18.8309C39.9001 18.0993 39.822 17.3639 39.696 16.6372ZM9.2109 30.7555C3.64826 25.1638 3.49787 16.6772 7.67375 11.0915C14.7315 18.1716 21.7923 25.2537 28.8608 32.3456C23.1653 36.6157 14.6681 36.2397 9.2109 30.7555ZM32.314 28.889C25.2211 21.8157 18.1447 14.76 11.0693 7.70425C16.3449 3.66655 24.9339 3.45168 30.7339 9.19959C36.3551 14.7717 36.5202 23.3677 32.314 28.889Z" fill="#DE3E44"/>
</g>
<defs>
<clipPath id="clip0_57_19379">
<rect width="40" height="40" fill="white"/>
</clipPath>
</defs>
</svg>
