<svg width="16" height="16" viewBox="0 0 16 16" fill="none" xmlns="http://www.w3.org/2000/svg">
<path d="M8.00065 1.33331C4.32065 1.33331 1.33398 4.31998 1.33398 7.99998C1.33398 11.68 4.32065 14.6666 8.00065 14.6666C11.6807 14.6666 14.6673 11.68 14.6673 7.99998C14.6673 4.31998 11.6807 1.33331 8.00065 1.33331ZM2.66732 7.99998C2.66732 5.05331 5.05398 2.66665 8.00065 2.66665C9.23398 2.66665 10.3673 3.08665 11.2673 3.79331L3.79398 11.2666C3.08732 10.3666 2.66732 9.23331 2.66732 7.99998ZM8.00065 13.3333C6.76732 13.3333 5.63398 12.9133 4.73398 12.2066L12.2073 4.73331C12.914 5.63331 13.334 6.76665 13.334 7.99998C13.334 10.9466 10.9473 13.3333 8.00065 13.3333Z" fill="#424242"/>
</svg>
