<svg width="16" height="16" viewBox="0 0 16 16" fill="none" xmlns="http://www.w3.org/2000/svg">
<rect width="16" height="16" fill="white"/>
<path d="M7.99992 5.33325C6.55459 5.33325 5.33325 6.55459 5.33325 7.99992C5.33325 9.44525 6.55459 10.6666 7.99992 10.6666C9.44525 10.6666 10.6666 9.44525 10.6666 7.99992C10.6666 6.55459 9.44525 5.33325 7.99992 5.33325ZM7.99992 9.33325C7.28992 9.33325 6.66659 8.70992 6.66659 7.99992C6.66659 7.28992 7.28992 6.66659 7.99992 6.66659C8.70992 6.66659 9.33325 7.28992 9.33325 7.99992C9.33325 8.70992 8.70992 9.33325 7.99992 9.33325Z" fill="#424242"/>
<path d="M13.3333 3.33325H11.6093L9.80459 1.52859C9.74278 1.46656 9.66932 1.41737 9.58843 1.38384C9.50754 1.35032 9.42081 1.33313 9.33325 1.33325H6.66659C6.57902 1.33313 6.4923 1.35032 6.41141 1.38384C6.33052 1.41737 6.25706 1.46656 6.19525 1.52859L4.39059 3.33325H2.66659C1.93125 3.33325 1.33325 3.93125 1.33325 4.66659V11.9999C1.33325 12.7353 1.93125 13.3333 2.66659 13.3333H13.3333C14.0686 13.3333 14.6666 12.7353 14.6666 11.9999V4.66659C14.6666 3.93125 14.0686 3.33325 13.3333 3.33325ZM2.66659 11.9999V4.66659H4.66659C4.84392 4.66659 5.01325 4.59659 5.13792 4.47125L6.94258 2.66659H9.05725L10.8619 4.47125C10.9237 4.53328 10.9972 4.58247 11.0781 4.616C11.159 4.64952 11.2457 4.66671 11.3333 4.66659H13.3333L13.3346 11.9999H2.66659Z" fill="#424242"/>
</svg>
