<svg width="16" height="16" viewBox="0 0 16 16" fill="none" xmlns="http://www.w3.org/2000/svg">
<rect width="16" height="16" fill="white"/>
<path d="M4.99927 7.33325C5.55155 7.33325 5.99927 6.88554 5.99927 6.33325C5.99927 5.78097 5.55155 5.33325 4.99927 5.33325C4.44698 5.33325 3.99927 5.78097 3.99927 6.33325C3.99927 6.88554 4.44698 7.33325 4.99927 7.33325Z" fill="#424242"/>
<path d="M6.99927 9.33342L5.99927 8.00008L3.99927 10.6667H11.9993L8.99927 6.66675L6.99927 9.33342Z" fill="black"/>
<path d="M13.3328 2.66675H2.6661C1.93076 2.66675 1.33276 3.26475 1.33276 4.00008V12.0001C1.33276 12.7354 1.93076 13.3334 2.6661 13.3334H13.3328C14.0681 13.3334 14.6661 12.7354 14.6661 12.0001V4.00008C14.6661 3.26475 14.0681 2.66675 13.3328 2.66675ZM2.6661 12.0001V4.00008H13.3328L13.3341 12.0001H2.6661Z" fill="black"/>
</svg>
