<svg width="16" height="16" viewBox="0 0 16 16" fill="none" xmlns="http://www.w3.org/2000/svg">
<rect width="16" height="16" fill="white"/>
<path d="M7.99992 6.66667C8.76725 6.66667 9.33325 6.10133 9.33325 5.33333C9.33325 4.56533 8.76725 4 7.99992 4C7.23325 4 6.66659 4.56533 6.66659 5.33333C6.66659 6.10133 7.23325 6.66667 7.99992 6.66667ZM7.99992 7.33333C6.52725 7.33333 5.33325 8.408 5.33325 9.73333V9.99067H10.6666V9.73333C10.6666 8.408 9.47259 7.33333 7.99992 7.33333Z" fill="#424242"/>
<path d="M12.6667 1.33325H3.33333C2.598 1.33325 2 1.93125 2 2.66659V11.3333C2 12.0686 2.598 12.6666 3.33333 12.6666H6L8 14.6666L10 12.6666H12.6667C13.402 12.6666 14 12.0686 14 11.3333V2.66659C14 1.93125 13.402 1.33325 12.6667 1.33325ZM9.33333 11.3333L8 12.6666L6.66667 11.3333H3.33333V2.66659H12.6667L12.668 11.3333H9.33333Z" fill="black"/>
</svg>
