<svg width="20" height="20" viewBox="0 0 20 20" fill="none" xmlns="http://www.w3.org/2000/svg">
<path d="M9.99999 15.8335C10.1648 15.8335 10.3259 15.7846 10.463 15.6931C10.6 15.6015 10.7068 15.4713 10.7699 15.3191C10.833 15.1668 10.8495 14.9992 10.8173 14.8376C10.7852 14.6759 10.7058 14.5274 10.5892 14.4109C10.4727 14.2944 10.3242 14.215 10.1626 14.1828C10.0009 14.1507 9.83336 14.1672 9.68109 14.2303C9.52882 14.2933 9.39867 14.4001 9.3071 14.5372C9.21553 14.6742 9.16666 14.8353 9.16666 15.0002C9.16666 15.2212 9.25445 15.4331 9.41073 15.5894C9.56702 15.7457 9.77898 15.8335 9.99999 15.8335ZM14.1667 15.8335C14.3315 15.8335 14.4926 15.7846 14.6296 15.6931C14.7667 15.6015 14.8735 15.4713 14.9366 15.3191C14.9996 15.1668 15.0161 14.9992 14.984 14.8376C14.9518 14.6759 14.8725 14.5274 14.7559 14.4109C14.6394 14.2944 14.4909 14.215 14.3292 14.1828C14.1676 14.1507 14 14.1672 13.8478 14.2303C13.6955 14.2933 13.5653 14.4001 13.4738 14.5372C13.3822 14.6742 13.3333 14.8353 13.3333 15.0002C13.3333 15.2212 13.4211 15.4331 13.5774 15.5894C13.7337 15.7457 13.9456 15.8335 14.1667 15.8335ZM14.1667 12.5002C14.3315 12.5002 14.4926 12.4513 14.6296 12.3597C14.7667 12.2682 14.8735 12.138 14.9366 11.9857C14.9996 11.8335 15.0161 11.6659 14.984 11.5043C14.9518 11.3426 14.8725 11.1941 14.7559 11.0776C14.6394 10.961 14.4909 10.8817 14.3292 10.8495C14.1676 10.8174 14 10.8339 13.8478 10.8969C13.6955 10.96 13.5653 11.0668 13.4738 11.2039C13.3822 11.3409 13.3333 11.502 13.3333 11.6668C13.3333 11.8878 13.4211 12.0998 13.5774 12.2561C13.7337 12.4124 13.9456 12.5002 14.1667 12.5002ZM9.99999 12.5002C10.1648 12.5002 10.3259 12.4513 10.463 12.3597C10.6 12.2682 10.7068 12.138 10.7699 11.9857C10.833 11.8335 10.8495 11.6659 10.8173 11.5043C10.7852 11.3426 10.7058 11.1941 10.5892 11.0776C10.4727 10.961 10.3242 10.8817 10.1626 10.8495C10.0009 10.8174 9.83336 10.8339 9.68109 10.8969C9.52882 10.96 9.39867 11.0668 9.3071 11.2039C9.21553 11.3409 9.16666 11.502 9.16666 11.6668C9.16666 11.8878 9.25445 12.0998 9.41073 12.2561C9.56702 12.4124 9.77898 12.5002 9.99999 12.5002ZM15.8333 2.50016H15V1.66683C15 1.44582 14.9122 1.23385 14.7559 1.07757C14.5996 0.921293 14.3877 0.833496 14.1667 0.833496C13.9456 0.833496 13.7337 0.921293 13.5774 1.07757C13.4211 1.23385 13.3333 1.44582 13.3333 1.66683V2.50016H6.66666V1.66683C6.66666 1.44582 6.57886 1.23385 6.42258 1.07757C6.2663 0.921293 6.05434 0.833496 5.83332 0.833496C5.61231 0.833496 5.40035 0.921293 5.24407 1.07757C5.08779 1.23385 4.99999 1.44582 4.99999 1.66683V2.50016H4.16666C3.50362 2.50016 2.86773 2.76355 2.39889 3.2324C1.93005 3.70124 1.66666 4.33712 1.66666 5.00016V16.6668C1.66666 17.3299 1.93005 17.9658 2.39889 18.4346C2.86773 18.9034 3.50362 19.1668 4.16666 19.1668H15.8333C16.4964 19.1668 17.1322 18.9034 17.6011 18.4346C18.0699 17.9658 18.3333 17.3299 18.3333 16.6668V5.00016C18.3333 4.33712 18.0699 3.70124 17.6011 3.2324C17.1322 2.76355 16.4964 2.50016 15.8333 2.50016ZM16.6667 16.6668C16.6667 16.8878 16.5789 17.0998 16.4226 17.2561C16.2663 17.4124 16.0543 17.5002 15.8333 17.5002H4.16666C3.94564 17.5002 3.73368 17.4124 3.5774 17.2561C3.42112 17.0998 3.33332 16.8878 3.33332 16.6668V9.16683H16.6667V16.6668ZM16.6667 7.50016H3.33332V5.00016C3.33332 4.77915 3.42112 4.56719 3.5774 4.41091C3.73368 4.25463 3.94564 4.16683 4.16666 4.16683H4.99999V5.00016C4.99999 5.22118 5.08779 5.43314 5.24407 5.58942C5.40035 5.7457 5.61231 5.8335 5.83332 5.8335C6.05434 5.8335 6.2663 5.7457 6.42258 5.58942C6.57886 5.43314 6.66666 5.22118 6.66666 5.00016V4.16683H13.3333V5.00016C13.3333 5.22118 13.4211 5.43314 13.5774 5.58942C13.7337 5.7457 13.9456 5.8335 14.1667 5.8335C14.3877 5.8335 14.5996 5.7457 14.7559 5.58942C14.9122 5.43314 15 5.22118 15 5.00016V4.16683H15.8333C16.0543 4.16683 16.2663 4.25463 16.4226 4.41091C16.5789 4.56719 16.6667 4.77915 16.6667 5.00016V7.50016ZM5.83332 12.5002C5.99814 12.5002 6.15926 12.4513 6.2963 12.3597C6.43334 12.2682 6.54015 12.138 6.60322 11.9857C6.6663 11.8335 6.6828 11.6659 6.65064 11.5043C6.61849 11.3426 6.53912 11.1941 6.42258 11.0776C6.30604 10.961 6.15755 10.8817 5.9959 10.8495C5.83425 10.8174 5.66669 10.8339 5.51442 10.8969C5.36215 10.96 5.232 11.0668 5.14043 11.2039C5.04886 11.3409 4.99999 11.502 4.99999 11.6668C4.99999 11.8878 5.08779 12.0998 5.24407 12.2561C5.40035 12.4124 5.61231 12.5002 5.83332 12.5002ZM5.83332 15.8335C5.99814 15.8335 6.15926 15.7846 6.2963 15.6931C6.43334 15.6015 6.54015 15.4713 6.60322 15.3191C6.6663 15.1668 6.6828 14.9992 6.65064 14.8376C6.61849 14.6759 6.53912 14.5274 6.42258 14.4109C6.30604 14.2944 6.15755 14.215 5.9959 14.1828C5.83425 14.1507 5.66669 14.1672 5.51442 14.2303C5.36215 14.2933 5.232 14.4001 5.14043 14.5372C5.04886 14.6742 4.99999 14.8353 4.99999 15.0002C4.99999 15.2212 5.08779 15.4331 5.24407 15.5894C5.40035 15.7457 5.61231 15.8335 5.83332 15.8335Z" fill="#424242"/>
</svg>
