<svg width="20" height="20" viewBox="0 0 20 20" fill="none" xmlns="http://www.w3.org/2000/svg">
<path d="M16.6667 3.33366H14.025L12.5 1.66699H7.50002L5.97502 3.33366H3.33335C2.41669 3.33366 1.66669 4.08366 1.66669 5.00033V15.0003C1.66669 15.917 2.41669 16.667 3.33335 16.667H16.6667C17.5834 16.667 18.3334 15.917 18.3334 15.0003V5.00033C18.3334 4.08366 17.5834 3.33366 16.6667 3.33366ZM16.6667 15.0003H3.33335V5.00033H6.70835L8.23335 3.33366H11.7667L13.2917 5.00033H16.6667V15.0003ZM10 5.83366C7.70002 5.83366 5.83335 7.70033 5.83335 10.0003C5.83335 12.3003 7.70002 14.167 10 14.167C12.3 14.167 14.1667 12.3003 14.1667 10.0003C14.1667 7.70033 12.3 5.83366 10 5.83366ZM10 12.5003C8.62502 12.5003 7.50002 11.3753 7.50002 10.0003C7.50002 8.62532 8.62502 7.50033 10 7.50033C11.375 7.50033 12.5 8.62532 12.5 10.0003C12.5 11.3753 11.375 12.5003 10 12.5003Z" fill="white"/>
</svg>
