<svg width="16" height="16" viewBox="0 0 16 16" fill="none" xmlns="http://www.w3.org/2000/svg">
<path d="M7.33317 1.33301C6.01463 1.33301 4.7257 1.724 3.62937 2.45654C2.53304 3.18909 1.67856 4.23028 1.17398 5.44845C0.669392 6.66663 0.53737 8.00707 0.794605 9.30028C1.05184 10.5935 1.68678 11.7814 2.61913 12.7137C3.55148 13.6461 4.73937 14.281 6.03257 14.5382C7.32578 14.7955 8.66622 14.6635 9.8844 14.1589C11.1026 13.6543 12.1438 12.7998 12.8763 11.7035C13.6088 10.6071 13.9998 9.31822 13.9998 7.99967C13.9998 7.1242 13.8274 6.25729 13.4924 5.44845C13.1573 4.63961 12.6663 3.90469 12.0472 3.28563C11.4282 2.66657 10.6932 2.17551 9.8844 1.84048C9.07556 1.50545 8.20865 1.33301 7.33317 1.33301ZM7.33317 13.333C6.27834 13.333 5.24719 13.0202 4.37013 12.4342C3.49307 11.8481 2.80948 11.0152 2.40582 10.0407C2.00215 9.06611 1.89653 7.99376 2.10232 6.95919C2.30811 5.92463 2.81606 4.97432 3.56194 4.22844C4.30782 3.48256 5.25813 2.97461 6.29269 2.76882C7.32726 2.56303 8.39961 2.66865 9.37415 3.07232C10.3487 3.47598 11.1816 4.15957 11.7677 5.03663C12.3537 5.9137 12.6665 6.94484 12.6665 7.99967C12.6665 9.41416 12.1046 10.7707 11.1044 11.7709C10.1042 12.7711 8.74766 13.333 7.33317 13.333ZM7.33317 3.99967C7.15636 3.99967 6.98679 4.06991 6.86177 4.19494C6.73675 4.31996 6.66651 4.48953 6.66651 4.66634V7.61301L5.26651 8.41967C5.13808 8.49245 5.03744 8.60579 4.98036 8.74193C4.92329 8.87806 4.91301 9.02929 4.95114 9.1719C4.98927 9.3145 5.07365 9.44042 5.19105 9.5299C5.30845 9.61938 5.45223 9.66737 5.59984 9.66634C5.71662 9.66715 5.83157 9.63726 5.93317 9.57967L7.66651 8.57967L7.72651 8.51967L7.83317 8.43301C7.85924 8.4 7.8816 8.36423 7.89984 8.32634C7.92157 8.29055 7.93945 8.25256 7.95317 8.21301C7.97131 8.17062 7.98256 8.12561 7.98651 8.07967L7.99984 7.99967V4.66634C7.99984 4.48953 7.9296 4.31996 7.80458 4.19494C7.67955 4.06991 7.50998 3.99967 7.33317 3.99967Z" fill="#1BA345"/>
</svg>
