<svg width="16" height="16" viewBox="0 0 16 16" fill="none" xmlns="http://www.w3.org/2000/svg">
<path d="M7.33269 1.33331C6.01414 1.33331 4.72521 1.72431 3.62888 2.45685C2.53256 3.18939 1.67807 4.23058 1.17349 5.44876C0.668904 6.66693 0.536882 8.00738 0.794117 9.30058C1.05135 10.5938 1.68629 11.7817 2.61864 12.714C3.55099 13.6464 4.73888 14.2813 6.03208 14.5385C7.32529 14.7958 8.66573 14.6638 9.88391 14.1592C11.1021 13.6546 12.1433 12.8001 12.8758 11.7038C13.6084 10.6075 13.9994 9.31852 13.9994 7.99998C13.9994 7.1245 13.8269 6.25759 13.4919 5.44876C13.1569 4.63992 12.6658 3.90499 12.0467 3.28593C11.4277 2.66688 10.6927 2.17581 9.88391 1.84078C9.07507 1.50575 8.20816 1.33331 7.33269 1.33331ZM7.33269 13.3333C6.27785 13.3333 5.24671 13.0205 4.36964 12.4345C3.49258 11.8484 2.809 11.0155 2.40533 10.041C2.00166 9.06642 1.89604 7.99406 2.10183 6.9595C2.30762 5.92493 2.81557 4.97462 3.56145 4.22874C4.30733 3.48286 5.25764 2.97491 6.2922 2.76912C7.32677 2.56334 8.39912 2.66895 9.37366 3.07262C10.3482 3.47629 11.1812 4.15988 11.7672 5.03694C12.3532 5.914 12.666 6.94515 12.666 7.99998C12.666 9.41447 12.1041 10.771 11.1039 11.7712C10.1037 12.7714 8.74717 13.3333 7.33269 13.3333ZM7.33269 3.99998C7.15587 3.99998 6.98631 4.07022 6.86128 4.19524C6.73626 4.32027 6.66602 4.48984 6.66602 4.66665V7.33331H5.33269C5.15587 7.33331 4.98631 7.40355 4.86128 7.52858C4.73626 7.6536 4.66602 7.82317 4.66602 7.99998C4.66602 8.17679 4.73626 8.34636 4.86128 8.47138C4.98631 8.59641 5.15587 8.66665 5.33269 8.66665H7.33269C7.5095 8.66665 7.67907 8.59641 7.80409 8.47138C7.92911 8.34636 7.99935 8.17679 7.99935 7.99998V4.66665C7.99935 4.48984 7.92911 4.32027 7.80409 4.19524C7.67907 4.07022 7.5095 3.99998 7.33269 3.99998Z" fill="#0A0A0A"/>
</svg>
