<svg width="16" height="16" viewBox="0 0 16 16" fill="none" xmlns="http://www.w3.org/2000/svg">
<rect width="16" height="16" fill="white"/>
<path d="M14 5.02683H10.9734V2.00016C10.9734 1.82335 10.9031 1.65378 10.7781 1.52876C10.6531 1.40373 10.4835 1.3335 10.3067 1.3335H2.00004C1.82323 1.3335 1.65366 1.40373 1.52864 1.52876C1.40361 1.65378 1.33337 1.82335 1.33337 2.00016V10.3068C1.33337 10.4836 1.40361 10.6532 1.52864 10.7782C1.65366 10.9033 1.82323 10.9735 2.00004 10.9735H5.02671V14.0002C5.02671 14.177 5.09695 14.3465 5.22197 14.4716C5.34699 14.5966 5.51656 14.6668 5.69337 14.6668H14C14.1769 14.6668 14.3464 14.5966 14.4714 14.4716C14.5965 14.3465 14.6667 14.177 14.6667 14.0002V5.6935C14.6667 5.51669 14.5965 5.34712 14.4714 5.22209C14.3464 5.09707 14.1769 5.02683 14 5.02683ZM13.3334 13.3335H6.36004V10.3068C6.36004 10.13 6.2898 9.96045 6.16478 9.83543C6.03975 9.7104 5.87018 9.64016 5.69337 9.64016H2.66671V2.66683H9.64004V5.6935C9.64004 5.87031 9.71028 6.03988 9.8353 6.1649C9.96033 6.28992 10.1299 6.36016 10.3067 6.36016H13.3334V13.3335Z" fill="#424242"/>
</svg>
