<svg width="41" height="47" viewBox="0 0 41 47" fill="none" xmlns="http://www.w3.org/2000/svg">
<g clip-path="url(#clip0_58_21360)">
<path d="M38.1754 5.89472C35.6393 5.87675 33.1032 5.89023 30.5683 5.89023H30.0727C30.0727 5.41746 30.0807 5.01319 30.0704 4.61005C30.0374 3.2434 29.5349 2.07327 28.3683 1.30853C27.7941 0.931218 27.0786 0.762774 26.4269 0.5H14.5782C14.5235 0.522459 14.47 0.555025 14.413 0.565132C12.5343 0.885177 11.2161 2.21027 10.9917 4.07552C10.9222 4.66058 10.9814 5.26025 10.9814 5.89023H10.3924C7.94748 5.89023 5.50254 5.88798 3.0576 5.8936C2.7705 5.8936 2.4777 5.90371 2.19743 5.95873C0.316443 6.32819 -0.599555 8.42027 0.426955 10.0171C1.02851 10.9526 1.93653 11.285 3.0314 11.285C14.6785 11.2782 26.3267 11.2816 37.9737 11.2771C38.2905 11.2771 38.6163 11.2591 38.9216 11.1861C39.857 10.9604 40.5155 10.3922 40.8322 9.49382C41.4782 7.66676 40.1851 5.9082 38.1754 5.89472ZM27.3384 5.87114H13.7214C13.7214 5.31415 13.652 4.74481 13.7397 4.19904C13.8422 3.56345 14.405 3.20073 15.116 3.19736C16.6939 3.19062 18.273 3.19511 19.8509 3.19511C21.8082 3.19511 23.7655 3.19399 25.7228 3.19511C26.8188 3.19624 27.3349 3.70831 27.3384 4.78972C27.3395 5.13335 27.3384 5.47698 27.3384 5.87114Z" fill="#DE3E44"/>
<path d="M2.84375 13.9991C3.09326 16.9952 3.33821 19.9464 3.58657 22.8986C3.87482 26.3271 4.16648 29.7566 4.457 33.185C4.72587 36.3607 4.97196 39.5387 5.26932 42.7111C5.48123 44.9851 7.19246 46.4921 9.51321 46.4944C16.8469 46.5011 24.1817 46.5022 31.5165 46.4932C33.8088 46.491 35.5155 44.9739 35.7342 42.7313C35.9495 40.5123 36.1159 38.2889 36.3027 36.0676L37.0923 26.719C37.3213 24.0059 37.5514 21.2928 37.7793 18.5786C37.9069 17.0615 38.031 15.5432 38.1586 13.9991H2.84375ZM13.1875 41.0109C12.6383 40.8021 12.3398 40.3877 12.3034 39.8139C12.0846 36.4247 11.875 33.0356 11.6608 29.6465C11.4295 25.989 11.196 22.3304 10.9692 18.6729C10.9499 18.3607 10.9202 18.0384 10.9772 17.7364C11.106 17.0637 11.7223 16.6291 12.407 16.6763C13.0872 16.7223 13.609 17.231 13.6591 17.9374C13.7617 19.3703 13.846 20.8032 13.936 22.2372C14.1707 25.9396 14.4054 29.642 14.6378 33.3445C14.7654 35.3905 14.8896 37.4365 15.0411 39.8981C15.073 40.6404 14.1798 41.3883 13.1875 41.0109ZM21.8666 39.6151C21.8655 40.6886 20.9609 41.3692 20.021 41.0109C19.5094 40.8155 19.2269 40.4315 19.146 39.9003C19.1323 39.8116 19.1357 39.7206 19.1346 39.6308C19.1346 32.4753 19.1357 25.3186 19.1323 18.162C19.1323 17.5926 19.3294 17.1356 19.8421 16.8492C20.7068 16.3664 21.7709 16.9323 21.8598 17.9217C21.8803 18.144 21.8689 18.3708 21.8689 18.5954V28.9256C21.8689 32.4888 21.8723 36.0519 21.8666 39.6151ZM30.0662 18.3484H30.0571C29.7666 22.92 29.4738 27.4904 29.1844 32.062C29.0249 34.5865 28.8654 37.1109 28.7116 39.6353C28.6569 40.546 28.0906 41.1345 27.2806 41.1019C26.4694 41.0693 25.926 40.4326 25.9807 39.523C26.2005 35.9374 26.4352 32.3529 26.662 28.7673C26.8591 25.66 27.0516 22.5528 27.2453 19.4455C27.2738 18.9975 27.3079 18.5494 27.333 18.1013C27.3809 17.2456 27.9801 16.6482 28.7663 16.6752C29.5558 16.7032 30.0901 17.3355 30.0662 18.2136C30.0651 18.2586 30.0662 18.3035 30.0662 18.3484Z" fill="#DE3E44"/>
</g>
<defs>
<clipPath id="clip0_58_21360">
<rect width="41" height="46" fill="white" transform="translate(0 0.5)"/>
</clipPath>
</defs>
</svg>
