<svg width="24" height="25" viewBox="0 0 24 25" fill="none" xmlns="http://www.w3.org/2000/svg">
<path d="M9 10.7485H10C10.2652 10.7485 10.5196 10.6432 10.7071 10.4556C10.8946 10.2681 11 10.0138 11 9.74854C11 9.48332 10.8946 9.22896 10.7071 9.04143C10.5196 8.85389 10.2652 8.74854 10 8.74854H9C8.73478 8.74854 8.48043 8.85389 8.29289 9.04143C8.10536 9.22896 8 9.48332 8 9.74854C8 10.0138 8.10536 10.2681 8.29289 10.4556C8.48043 10.6432 8.73478 10.7485 9 10.7485ZM9 12.7485C8.73478 12.7485 8.48043 12.8539 8.29289 13.0414C8.10536 13.229 8 13.4833 8 13.7485C8 14.0138 8.10536 14.2681 8.29289 14.4556C8.48043 14.6432 8.73478 14.7485 9 14.7485H15C15.2652 14.7485 15.5196 14.6432 15.7071 14.4556C15.8946 14.2681 16 14.0138 16 13.7485C16 13.4833 15.8946 13.229 15.7071 13.0414C15.5196 12.8539 15.2652 12.7485 15 12.7485H9ZM20 9.68853C19.9896 9.59667 19.9695 9.50617 19.94 9.41854V9.32854C19.8919 9.22571 19.8278 9.1312 19.75 9.04854L13.75 3.04854C13.6673 2.97075 13.5728 2.90662 13.47 2.85854C13.4402 2.8543 13.4099 2.8543 13.38 2.85854C13.2784 2.80028 13.1662 2.76288 13.05 2.74854H7C6.20435 2.74854 5.44129 3.06461 4.87868 3.62721C4.31607 4.18982 4 4.95289 4 5.74854V19.7485C4 20.5442 4.31607 21.3072 4.87868 21.8699C5.44129 22.4325 6.20435 22.7485 7 22.7485H17C17.7956 22.7485 18.5587 22.4325 19.1213 21.8699C19.6839 21.3072 20 20.5442 20 19.7485V9.74854C20 9.74854 20 9.74853 20 9.68853ZM14 6.15854L16.59 8.74854H15C14.7348 8.74854 14.4804 8.64318 14.2929 8.45564C14.1054 8.26811 14 8.01375 14 7.74854V6.15854ZM18 19.7485C18 20.0138 17.8946 20.2681 17.7071 20.4556C17.5196 20.6432 17.2652 20.7485 17 20.7485H7C6.73478 20.7485 6.48043 20.6432 6.29289 20.4556C6.10536 20.2681 6 20.0138 6 19.7485V5.74854C6 5.48332 6.10536 5.22897 6.29289 5.04143C6.48043 4.85389 6.73478 4.74854 7 4.74854H12V7.74854C12 8.54418 12.3161 9.30725 12.8787 9.86986C13.4413 10.4325 14.2044 10.7485 15 10.7485H18V19.7485ZM15 16.7485H9C8.73478 16.7485 8.48043 16.8539 8.29289 17.0414C8.10536 17.229 8 17.4833 8 17.7485C8 18.0138 8.10536 18.2681 8.29289 18.4556C8.48043 18.6432 8.73478 18.7485 9 18.7485H15C15.2652 18.7485 15.5196 18.6432 15.7071 18.4556C15.8946 18.2681 16 18.0138 16 17.7485C16 17.4833 15.8946 17.229 15.7071 17.0414C15.5196 16.8539 15.2652 16.7485 15 16.7485Z" fill="#9E9E9E"/>
</svg>
