<svg width="16" height="16" viewBox="0 0 16 16" fill="none" xmlns="http://www.w3.org/2000/svg">
<path d="M14.6667 4.82684C14.6672 4.7391 14.6504 4.65213 14.6172 4.5709C14.5841 4.48968 14.5352 4.4158 14.4734 4.35351L11.6467 1.52684C11.5844 1.46505 11.5105 1.41617 11.4293 1.38299C11.3481 1.34982 11.2611 1.333 11.1734 1.33351C11.0856 1.333 10.9987 1.34982 10.9174 1.38299C10.8362 1.41617 10.7623 1.46505 10.7001 1.52684L8.81339 3.41351L1.52672 10.7002C1.46493 10.7625 1.41605 10.8363 1.38287 10.9176C1.34969 10.9988 1.33288 11.0858 1.33339 11.1735V14.0002C1.33339 14.177 1.40362 14.3466 1.52865 14.4716C1.65367 14.5966 1.82324 14.6668 2.00005 14.6668H4.82672C4.92 14.6719 5.01331 14.6573 5.1006 14.624C5.18788 14.5907 5.26719 14.5394 5.33338 14.4735L12.5801 7.18684L14.4734 5.33351C14.5342 5.26889 14.5838 5.19453 14.6201 5.11351C14.6265 5.06037 14.6265 5.00665 14.6201 4.95351C14.6232 4.92247 14.6232 4.89121 14.6201 4.86017L14.6667 4.82684ZM4.55339 13.3335H2.66672V11.4468L9.28672 4.82684L11.1734 6.71351L4.55339 13.3335ZM12.1134 5.77351L10.2267 3.88684L11.1734 2.94684L13.0534 4.82684L12.1134 5.77351Z" fill="#424242"/>
</svg>
