<svg width="16" height="16" viewBox="0 0 16 16" fill="none" xmlns="http://www.w3.org/2000/svg">
<rect width="16" height="16" fill="white"/>
<path d="M13.2687 5.72392C13.2371 5.65156 13.1929 5.58542 13.1381 5.52859L9.13808 1.52859C9.08125 1.47377 9.0151 1.42953 8.94275 1.39792C8.92275 1.38859 8.90141 1.38325 8.88008 1.37592C8.8243 1.35694 8.76623 1.3455 8.70741 1.34192C8.69341 1.34059 8.68075 1.33325 8.66675 1.33325H4.00008C3.26475 1.33325 2.66675 1.93125 2.66675 2.66659V13.3333C2.66675 14.0686 3.26475 14.6666 4.00008 14.6666H12.0001C12.7354 14.6666 13.3334 14.0686 13.3334 13.3333V5.99992C13.3334 5.98592 13.3261 5.97325 13.3247 5.95859C13.3215 5.89973 13.31 5.84162 13.2907 5.78592C13.2841 5.76459 13.2781 5.74392 13.2687 5.72392ZM11.0574 5.33325H9.33341V3.60925L11.0574 5.33325ZM4.00008 13.3333V2.66659H8.00008V5.99992C8.00008 6.17673 8.07032 6.3463 8.19534 6.47132C8.32037 6.59635 8.48994 6.66659 8.66675 6.66659H12.0001L12.0014 13.3333H4.00008Z" fill="#424242"/>
<path d="M5.33325 7.99992H10.6666V9.33325H5.33325V7.99992ZM5.33325 10.6666H10.6666V11.9999H5.33325V10.6666ZM5.33325 5.33325H6.66659V6.66659H5.33325V5.33325Z" fill="#424242"/>
</svg>
