<svg width="24" height="24" viewBox="0 0 24 24" fill="none" xmlns="http://www.w3.org/2000/svg">
<g clip-path="url(#clip0_210_90697)">
<path fill-rule="evenodd" clip-rule="evenodd" d="M21 6.74951V16.4995H19.5V6.74951H16.5C15.9033 6.74951 15.331 6.51246 14.909 6.0905C14.4871 5.66855 14.25 5.09625 14.25 4.49951V1.49951H6C5.60218 1.49951 5.22064 1.65755 4.93934 1.93885C4.65804 2.22016 4.5 2.60169 4.5 2.99951V16.4995H3V2.99951C3 2.20386 3.31607 1.4408 3.87868 0.878191C4.44129 0.315582 5.20435 -0.000488281 6 -0.000488281L14.25 -0.000488281L21 6.74951ZM10.7415 21.2815V20.4985C10.7522 20.1692 10.6924 19.8413 10.566 19.537C10.4664 19.2997 10.2982 19.0976 10.083 18.9565C9.87194 18.8258 9.62771 18.7586 9.3795 18.763C9.13019 18.759 8.88497 18.8267 8.673 18.958C8.45953 19.0996 8.29256 19.301 8.193 19.537C8.06659 19.8413 8.00675 20.1692 8.0175 20.4985V21.2815C8.0175 21.6655 8.0775 21.9865 8.193 22.243C8.29231 22.4796 8.4593 22.6815 8.673 22.8235C8.8861 22.9516 9.13093 23.0171 9.3795 23.0125C9.62712 23.017 9.87097 22.9515 10.083 22.8235C10.298 22.6829 10.4662 22.4813 10.566 22.2445C10.6922 21.9396 10.752 21.6113 10.7415 21.2815ZM11.946 20.5075V21.277C11.946 21.8395 11.844 22.327 11.6385 22.7365C11.4444 23.1311 11.1367 23.4586 10.755 23.677C10.374 23.893 9.915 24.001 9.3795 24.001C8.89928 24.0136 8.42394 23.902 7.9995 23.677C7.6174 23.4591 7.30959 23.1315 7.116 22.7365C6.90091 22.2807 6.7956 21.7809 6.8085 21.277V20.5075C6.8085 19.939 6.912 19.4515 7.116 19.045C7.3215 18.634 7.6155 18.3205 8.001 18.1045C8.3865 17.884 8.847 17.7745 9.381 17.7745C9.9165 17.7745 10.374 17.884 10.755 18.1045C11.139 18.3235 11.433 18.6385 11.64 19.0495C11.844 19.456 11.946 19.942 11.946 20.5075ZM1.5 23.887V17.8885H3.6885C4.2975 17.8885 4.8 18.0055 5.196 18.241C5.592 18.475 5.886 18.814 6.0795 19.261C6.2745 19.705 6.3735 20.2435 6.3735 20.872C6.3735 21.505 6.276 22.048 6.0795 22.498C5.883 22.9495 5.5845 23.293 5.187 23.5315C4.791 23.7685 4.2915 23.887 3.6885 23.887H1.5ZM3.531 18.856H2.685V22.9165H3.5295C3.807 22.9165 4.0485 22.8745 4.254 22.7935C4.45158 22.7142 4.62449 22.5837 4.755 22.4155C4.887 22.2445 4.9845 22.0345 5.049 21.7825C5.12136 21.4922 5.15565 21.1937 5.151 20.8945C5.151 20.4445 5.091 20.0665 4.974 19.765C4.87733 19.4855 4.69056 19.2459 4.443 19.084C4.206 18.931 3.9015 18.856 3.528 18.856H3.531ZM13.665 20.53C13.665 20.158 13.716 19.84 13.8195 19.5805C13.9083 19.3416 14.0653 19.134 14.271 18.9835C14.4813 18.8423 14.7303 18.7699 14.9835 18.7765C15.2085 18.7765 15.408 18.8245 15.5805 18.922C15.7501 19.0121 15.8917 19.147 15.99 19.312C16.0945 19.4855 16.1562 19.6814 16.17 19.8835H17.3175V19.774C17.3075 19.4977 17.2403 19.2265 17.1199 18.9776C16.9996 18.7286 16.8289 18.5074 16.6185 18.328C16.4026 18.1452 16.1529 18.0066 15.8835 17.92C15.5908 17.8209 15.2835 17.7717 14.9745 17.7745C14.442 17.7745 13.9845 17.8855 13.608 18.109C13.233 18.331 12.948 18.6475 12.7515 19.0585C12.555 19.468 12.456 19.9585 12.456 20.5255V21.2725C12.456 21.841 12.5535 22.3285 12.747 22.7365C12.942 23.143 13.2285 23.4565 13.6035 23.677C13.9785 23.893 14.436 24.001 14.9745 24.001C15.414 24.001 15.807 23.92 16.152 23.755C16.497 23.59 16.773 23.365 16.9785 23.074C17.1854 22.7762 17.303 22.4254 17.3175 22.063V21.949H16.17C16.1565 22.1425 16.0963 22.3299 15.9945 22.495C15.8938 22.6534 15.7523 22.7819 15.585 22.867C15.3978 22.9581 15.1916 23.0034 14.9835 22.999C14.7302 23.0067 14.4805 22.9382 14.2665 22.8025C14.0615 22.6556 13.9057 22.4501 13.8195 22.213C13.7093 21.912 13.6569 21.5929 13.665 21.2725V20.53ZM21.303 17.89H22.644L20.7315 20.899L22.6125 23.887H21.2505L19.9755 21.7645H19.923L18.645 23.887H17.352L19.212 20.8645L17.37 17.8885H18.768L20.016 20.047H20.0685L21.303 17.8885V17.89Z" fill="#9E9E9E"/>
</g>
<defs>
<clipPath id="clip0_210_90697">
<rect width="24" height="24" fill="white" transform="translate(0 -0.000488281)"/>
</clipPath>
</defs>
</svg>
