<svg width="14" height="14" viewBox="0 0 14 14" fill="none" xmlns="http://www.w3.org/2000/svg">
<path d="M7.00019 0.333313C5.70718 0.33577 4.44278 0.714187 3.36101 1.42247C2.27925 2.13076 1.42679 3.13834 0.907489 4.32249C0.388186 5.50664 0.224446 6.81626 0.436213 8.09182C0.64798 9.36737 1.22611 10.5538 2.1002 11.5066V11.5066C2.72448 12.1833 3.48216 12.7234 4.32549 13.0928C5.16882 13.4622 6.07952 13.6529 7.00019 13.6529C7.92087 13.6529 8.83157 13.4622 9.6749 13.0928C10.5182 12.7234 11.2759 12.1833 11.9002 11.5066V11.5066C12.7743 10.5538 13.3524 9.36737 13.5642 8.09182C13.7759 6.81626 13.6122 5.50664 13.0929 4.32249C12.5736 3.13834 11.7211 2.13076 10.6394 1.42247C9.55761 0.714187 8.29321 0.33577 7.00019 0.333313V0.333313ZM7.00019 12.3333C5.61917 12.3312 4.29281 11.7935 3.3002 10.8333C3.60156 10.0997 4.11422 9.47218 4.77303 9.03057C5.43184 8.58897 6.20707 8.35318 7.00019 8.35318C7.79332 8.35318 8.56855 8.58897 9.22736 9.03057C9.88617 9.47218 10.3988 10.0997 10.7002 10.8333C9.70758 11.7935 8.38122 12.3312 7.00019 12.3333ZM5.66686 5.66665C5.66686 5.40294 5.74506 5.14515 5.89157 4.92589C6.03808 4.70662 6.24632 4.53572 6.48995 4.43481C6.73359 4.33389 7.00167 4.30749 7.26032 4.35893C7.51896 4.41038 7.75653 4.53737 7.943 4.72384C8.12947 4.91031 8.25646 5.14788 8.30791 5.40653C8.35936 5.66517 8.33295 5.93326 8.23203 6.17689C8.13112 6.42053 7.96022 6.62876 7.74095 6.77527C7.52169 6.92178 7.2639 6.99998 7.00019 6.99998C6.64657 6.99998 6.30743 6.8595 6.05739 6.60946C5.80734 6.35941 5.66686 6.02027 5.66686 5.66665ZM11.6069 9.66665C11.0112 8.64782 10.0945 7.85533 9.00019 7.41331C9.33964 7.02842 9.56081 6.55375 9.63718 6.04627C9.71354 5.53879 9.64184 5.02005 9.4307 4.55231C9.21955 4.08457 8.87792 3.68769 8.4468 3.40929C8.01568 3.13089 7.51339 2.98281 7.00019 2.98281C6.487 2.98281 5.98471 3.13089 5.55359 3.40929C5.12247 3.68769 4.78084 4.08457 4.56969 4.55231C4.35855 5.02005 4.28685 5.53879 4.36321 6.04627C4.43958 6.55375 4.66075 7.02842 5.0002 7.41331C3.90593 7.85533 2.98917 8.64782 2.39353 9.66665C1.91882 8.85805 1.66801 7.93762 1.66686 6.99998C1.66686 5.58549 2.22877 4.22894 3.22896 3.22874C4.22915 2.22855 5.58571 1.66665 7.00019 1.66665C8.41468 1.66665 9.77124 2.22855 10.7714 3.22874C11.7716 4.22894 12.3335 5.58549 12.3335 6.99998C12.3324 7.93762 12.0816 8.85805 11.6069 9.66665V9.66665Z" fill="#0A0A0A"/>
</svg>
