<svg width="12" height="14" viewBox="0 0 12 14" fill="none" xmlns="http://www.w3.org/2000/svg">
<path d="M11.3333 6.99967C11.3333 6.82286 11.2631 6.65329 11.138 6.52827C11.013 6.40325 10.8434 6.33301 10.6666 6.33301H5.60663L7.13996 4.80634C7.20212 4.74418 7.25143 4.67039 7.28507 4.58917C7.31871 4.50796 7.33602 4.42091 7.33602 4.33301C7.33602 4.2451 7.31871 4.15806 7.28507 4.07684C7.25143 3.99563 7.20212 3.92183 7.13996 3.85967C7.0778 3.79752 7.00401 3.74821 6.92279 3.71457C6.84158 3.68093 6.75453 3.66361 6.66663 3.66361C6.57872 3.66361 6.49167 3.68093 6.41046 3.71457C6.32924 3.74821 6.25545 3.79752 6.19329 3.85967L3.52663 6.52634C3.46593 6.58974 3.41836 6.66451 3.38663 6.74634C3.31995 6.90865 3.31995 7.0907 3.38663 7.25301C3.41836 7.33484 3.46593 7.40961 3.52663 7.47301L6.19329 10.1397C6.25527 10.2022 6.329 10.2518 6.41024 10.2856C6.49148 10.3194 6.57862 10.3369 6.66663 10.3369C6.75463 10.3369 6.84177 10.3194 6.92301 10.2856C7.00425 10.2518 7.07798 10.2022 7.13996 10.1397C7.20244 10.0777 7.25204 10.004 7.28589 9.92273C7.31973 9.84149 7.33716 9.75435 7.33716 9.66634C7.33716 9.57833 7.31973 9.4912 7.28589 9.40996C7.25204 9.32872 7.20244 9.25498 7.13996 9.19301L5.60663 7.66634H10.6666C10.8434 7.66634 11.013 7.5961 11.138 7.47108C11.2631 7.34606 11.3333 7.17649 11.3333 6.99967ZM9.33329 0.333008H2.66663C2.13619 0.333008 1.62749 0.543722 1.25241 0.918794C0.87734 1.29387 0.666626 1.80257 0.666626 2.33301V11.6663C0.666626 12.1968 0.87734 12.7055 1.25241 13.0806C1.62749 13.4556 2.13619 13.6663 2.66663 13.6663H9.33329C9.86372 13.6663 10.3724 13.4556 10.7475 13.0806C11.1226 12.7055 11.3333 12.1968 11.3333 11.6663V9.66634C11.3333 9.48953 11.2631 9.31996 11.138 9.19494C11.013 9.06991 10.8434 8.99967 10.6666 8.99967C10.4898 8.99967 10.3202 9.06991 10.1952 9.19494C10.0702 9.31996 9.99996 9.48953 9.99996 9.66634V11.6663C9.99996 11.8432 9.92972 12.0127 9.8047 12.1377C9.67967 12.2628 9.5101 12.333 9.33329 12.333H2.66663C2.48981 12.333 2.32025 12.2628 2.19522 12.1377C2.0702 12.0127 1.99996 11.8432 1.99996 11.6663V2.33301C1.99996 2.1562 2.0702 1.98663 2.19522 1.8616C2.32025 1.73658 2.48981 1.66634 2.66663 1.66634H9.33329C9.5101 1.66634 9.67967 1.73658 9.8047 1.8616C9.92972 1.98663 9.99996 2.1562 9.99996 2.33301V4.33301C9.99996 4.50982 10.0702 4.67939 10.1952 4.80441C10.3202 4.92944 10.4898 4.99967 10.6666 4.99967C10.8434 4.99967 11.013 4.92944 11.138 4.80441C11.2631 4.67939 11.3333 4.50982 11.3333 4.33301V2.33301C11.3333 1.80257 11.1226 1.29387 10.7475 0.918794C10.3724 0.543722 9.86372 0.333008 9.33329 0.333008Z" fill="#DE3E44"/>
</svg>
