<svg width="16" height="16" viewBox="0 0 16 16" fill="none" xmlns="http://www.w3.org/2000/svg">
<path d="M14.2135 6.36634L12.9535 5.94634L13.5468 4.75968C13.607 4.63547 13.6271 4.49565 13.6044 4.35952C13.5817 4.2234 13.5173 4.09766 13.4202 3.99968L12.0002 2.57968C11.9017 2.48107 11.7747 2.41581 11.6372 2.39309C11.4997 2.37037 11.3585 2.39133 11.2335 2.45301L10.0468 3.04634L9.62683 1.78634C9.58247 1.655 9.49828 1.54076 9.38596 1.45951C9.27364 1.37826 9.13879 1.33404 9.00016 1.33301H7.00016C6.8604 1.33265 6.72406 1.37622 6.61041 1.45757C6.49676 1.53892 6.41156 1.65393 6.36683 1.78634L5.94683 3.04634L4.76016 2.45301C4.63596 2.39286 4.49614 2.37275 4.36001 2.39543C4.22389 2.41812 4.09815 2.4825 4.00016 2.57968L2.58016 3.99968C2.48156 4.09819 2.4163 4.22513 2.39358 4.36265C2.37086 4.50017 2.39182 4.64135 2.4535 4.76634L3.04683 5.95301L1.78683 6.37301C1.65549 6.41737 1.54125 6.50156 1.46 6.61388C1.37875 6.7262 1.33453 6.86105 1.3335 6.99968V8.99968C1.33314 9.13944 1.37671 9.27578 1.45806 9.38943C1.53941 9.50308 1.65442 9.58829 1.78683 9.63301L3.04683 10.053L2.4535 11.2397C2.39335 11.3639 2.37323 11.5037 2.39592 11.6398C2.41861 11.776 2.48299 11.9017 2.58016 11.9997L4.00016 13.4197C4.09867 13.5183 4.22562 13.5835 4.36314 13.6063C4.50066 13.629 4.64184 13.608 4.76683 13.5463L5.9535 12.953L6.3735 14.213C6.41822 14.3454 6.50343 14.4604 6.61708 14.5418C6.73073 14.6231 6.86707 14.6667 7.00683 14.6663H9.00683C9.14659 14.6667 9.28293 14.6231 9.39658 14.5418C9.51023 14.4604 9.59544 14.3454 9.64016 14.213L10.0602 12.953L11.2468 13.5463C11.3702 13.605 11.5087 13.6243 11.6434 13.6016C11.7782 13.579 11.9027 13.5154 12.0002 13.4197L13.4202 11.9997C13.5188 11.9012 13.584 11.7742 13.6067 11.6367C13.6295 11.4992 13.6085 11.358 13.5468 11.233L12.9535 10.0463L14.2135 9.62634C14.3448 9.58199 14.4591 9.49779 14.5403 9.38547C14.6216 9.27315 14.6658 9.1383 14.6668 8.99968V6.99968C14.6672 6.85991 14.6236 6.72357 14.5423 6.60992C14.4609 6.49627 14.3459 6.41107 14.2135 6.36634ZM13.3335 8.51968L12.5335 8.78634C12.3495 8.84601 12.1808 8.94499 12.0389 9.07641C11.897 9.20783 11.7854 9.36854 11.7118 9.5474C11.6382 9.72625 11.6045 9.91897 11.6128 10.1122C11.6212 10.3054 11.6714 10.4945 11.7602 10.6663L12.1402 11.4263L11.4068 12.1597L10.6668 11.7597C10.4959 11.6745 10.3086 11.6271 10.1177 11.6205C9.92681 11.614 9.73674 11.6486 9.56038 11.7219C9.38401 11.7953 9.22545 11.9056 9.09544 12.0456C8.96544 12.1855 8.86701 12.3517 8.80683 12.533L8.54016 13.333H7.48016L7.2135 12.533C7.15383 12.349 7.05485 12.1803 6.92343 12.0384C6.79201 11.8965 6.6313 11.7849 6.45244 11.7113C6.27359 11.6377 6.08087 11.604 5.88765 11.6123C5.69443 11.6207 5.50534 11.6709 5.3335 11.7597L4.5735 12.1397L3.84016 11.4063L4.24016 10.6663C4.32889 10.4945 4.37918 10.3054 4.38753 10.1122C4.39588 9.91897 4.3621 9.72625 4.28852 9.5474C4.21495 9.36854 4.10335 9.20783 3.96146 9.07641C3.81957 8.94499 3.65079 8.84601 3.46683 8.78634L2.66683 8.51968V7.47968L3.46683 7.21301C3.65079 7.15334 3.81957 7.05436 3.96146 6.92294C4.10335 6.79152 4.21495 6.63081 4.28852 6.45196C4.3621 6.2731 4.39588 6.08038 4.38753 5.88716C4.37918 5.69394 4.32889 5.50485 4.24016 5.33301L3.86016 4.59301L4.5935 3.85968L5.3335 4.23968C5.50534 4.32841 5.69443 4.37869 5.88765 4.38704C6.08087 4.39539 6.27359 4.36161 6.45244 4.28804C6.6313 4.21446 6.79201 4.10286 6.92343 3.96097C7.05485 3.81908 7.15383 3.65031 7.2135 3.46634L7.48016 2.66634H8.52016L8.78683 3.46634C8.8465 3.65031 8.94548 3.81908 9.0769 3.96097C9.20832 4.10286 9.36903 4.21446 9.54788 4.28804C9.72674 4.36161 9.91946 4.39539 10.1127 4.38704C10.3059 4.37869 10.495 4.32841 10.6668 4.23968L11.4268 3.85968L12.1602 4.59301L11.7602 5.33301C11.675 5.50397 11.6275 5.69124 11.621 5.88214C11.6145 6.07303 11.6491 6.2631 11.7224 6.43946C11.7958 6.61583 11.9061 6.77439 12.0461 6.9044C12.186 7.0344 12.3522 7.13283 12.5335 7.19301L13.3335 7.45968V8.51968ZM8.00016 5.33301C7.47275 5.33301 6.95718 5.48941 6.51864 5.78242C6.08011 6.07544 5.73832 6.49192 5.53649 6.97919C5.33465 7.46646 5.28184 8.00263 5.38474 8.51992C5.48763 9.0372 5.74161 9.51235 6.11455 9.88529C6.48749 10.2582 6.96264 10.5122 7.47992 10.6151C7.99721 10.718 8.53338 10.6652 9.02065 10.4634C9.50792 10.2615 9.9244 9.91973 10.2174 9.4812C10.5104 9.04267 10.6668 8.52709 10.6668 7.99968C10.6668 7.29243 10.3859 6.61416 9.88578 6.11406C9.38568 5.61396 8.70741 5.33301 8.00016 5.33301ZM8.00016 9.33301C7.73646 9.33301 7.47867 9.25481 7.2594 9.1083C7.04014 8.96179 6.86924 8.75356 6.76832 8.50992C6.66741 8.26629 6.641 7.9982 6.69245 7.73956C6.7439 7.48091 6.87089 7.24334 7.05736 7.05687C7.24383 6.8704 7.4814 6.74341 7.74004 6.69196C7.99869 6.64052 8.26677 6.66692 8.51041 6.76784C8.75404 6.86875 8.96228 7.03965 9.10879 7.25892C9.2553 7.47818 9.3335 7.73597 9.3335 7.99968C9.3335 8.3533 9.19302 8.69244 8.94297 8.94248C8.69292 9.19253 8.35379 9.33301 8.00016 9.33301Z" fill="#680A83"/>
</svg>
