<svg width="16" height="16" viewBox="0 0 16 16" fill="none" xmlns="http://www.w3.org/2000/svg">
<g clip-path="url(#clip0_170_39123)">
<path d="M6.956 14.5343C7.021 15.4703 7.908 16.1933 8.864 15.9543L9.125 15.8893C9.36444 15.8333 9.58455 15.7144 9.7625 15.5447C9.94045 15.375 10.0698 15.1608 10.137 14.9243C10.357 14.1083 10.67 12.4123 10.199 10.4143C10.335 10.4343 10.484 10.4513 10.642 10.4653C11.355 10.5303 12.311 10.5363 13.158 10.2543C13.676 10.0813 14.152 9.57427 14.358 8.98227C14.4611 8.6957 14.4937 8.3885 14.453 8.08667C14.4123 7.78483 14.2994 7.49726 14.124 7.24827C14.182 7.13027 14.227 7.00627 14.262 6.88627C14.339 6.61627 14.375 6.31827 14.375 6.03027C14.375 5.74027 14.339 5.44427 14.262 5.17327C14.2228 5.03376 14.1691 4.89871 14.102 4.77027C14.271 4.38327 14.209 3.95027 14.099 3.62127C13.9863 3.29676 13.8215 2.99277 13.611 2.72127C13.665 2.56827 13.687 2.40827 13.687 2.25627C13.6827 1.93554 13.5956 1.62137 13.434 1.34427C13.1 0.757273 12.437 0.280273 11.5 0.280273H8C7.395 0.280273 6.93 0.360273 6.534 0.497273C6.19346 0.621958 5.86807 0.784653 5.564 0.982273L5.516 1.01127C5.012 1.31927 4.517 1.62127 3.448 1.73427C2.682 1.81527 2 2.43427 2 3.27927V7.27927C2 8.13027 2.685 8.71227 3.357 8.89527C4.206 9.12727 4.931 9.68227 5.489 10.3053C6.049 10.9313 6.403 11.5853 6.528 11.9433C6.727 12.5183 6.884 13.4833 6.956 14.5343Z" fill="#DE3E44"/>
</g>
<defs>
<clipPath id="clip0_170_39123">
<rect width="16" height="16" fill="white"/>
</clipPath>
</defs>
</svg>
