<svg width="16" height="16" viewBox="0 0 16 16" fill="none" xmlns="http://www.w3.org/2000/svg">
<path d="M10.3667 6.0002C10.4497 6.0318 10.5379 6.04763 10.6267 6.04686H13.2933C13.4702 6.04686 13.6397 5.97663 13.7647 5.8516C13.8898 5.72658 13.96 5.55701 13.96 5.3802C13.96 5.20339 13.8898 5.03382 13.7647 4.90879C13.6397 4.78377 13.4702 4.71353 13.2933 4.71353H12.2333L14.4267 2.5202C14.4965 2.46043 14.5531 2.38689 14.5932 2.30418C14.6332 2.22147 14.6557 2.13138 14.6592 2.03957C14.6628 1.94775 14.6473 1.8562 14.6138 1.77065C14.5802 1.6851 14.5294 1.6074 14.4644 1.54243C14.3995 1.47746 14.3218 1.42662 14.2362 1.39311C14.1507 1.35959 14.0591 1.34412 13.9673 1.34766C13.8755 1.35121 13.7854 1.3737 13.7027 1.41371C13.62 1.45373 13.5464 1.51041 13.4867 1.5802L11.2933 3.76686V2.70686C11.2933 2.53005 11.2231 2.36048 11.0981 2.23546C10.9731 2.11043 10.8035 2.0402 10.6267 2.0402C10.4499 2.0402 10.2803 2.11043 10.1553 2.23546C10.0302 2.36048 9.96001 2.53005 9.96001 2.70686V5.37353C9.95924 5.46235 9.97507 5.55052 10.0067 5.63353C10.0394 5.71542 10.0881 5.79 10.1499 5.85294C10.2117 5.91588 10.2854 5.96593 10.3667 6.0002ZM12.96 8.66686C12.8133 8.66686 12.66 8.6202 12.5133 8.58686C12.2163 8.52141 11.9245 8.43452 11.64 8.32686C11.3307 8.21435 10.9908 8.22019 10.6855 8.34327C10.3803 8.46634 10.1314 8.69795 9.98667 8.99353L9.84001 9.29353C9.19067 8.93232 8.594 8.48368 8.06667 7.9602C7.54319 7.43288 7.09455 6.8362 6.73334 6.18686L7.01334 6.0002C7.30892 5.85547 7.54053 5.60655 7.6636 5.30132C7.78668 4.9961 7.79252 4.65614 7.68001 4.34686C7.57415 4.06181 7.4873 3.77006 7.42001 3.47353C7.38667 3.32686 7.36001 3.17353 7.34001 3.0202C7.25905 2.55061 7.01309 2.12536 6.64642 1.82102C6.27975 1.51669 5.81647 1.35327 5.34001 1.3602H3.34001C3.05269 1.3575 2.76817 1.41674 2.50581 1.53388C2.24345 1.65103 2.00941 1.82333 1.81963 2.03905C1.62984 2.25478 1.48876 2.50886 1.406 2.78401C1.32323 3.05915 1.30073 3.3489 1.34001 3.63353C1.69516 6.42645 2.97069 9.02145 4.96511 11.0086C6.95952 12.9958 9.55915 14.2619 12.3533 14.6069H12.6067C13.0983 14.6076 13.5729 14.4272 13.94 14.1002C14.1509 13.9116 14.3194 13.6803 14.4343 13.4217C14.5492 13.1632 14.608 12.8832 14.6067 12.6002V10.6002C14.5985 10.1371 14.4299 9.69123 14.1296 9.33864C13.8293 8.98605 13.4159 8.74861 12.96 8.66686ZM13.2933 12.6669C13.2932 12.7615 13.2729 12.8551 13.2339 12.9413C13.1948 13.0275 13.1378 13.1044 13.0667 13.1669C12.9922 13.2312 12.9051 13.2792 12.8109 13.3079C12.7168 13.3366 12.6177 13.3453 12.52 13.3335C10.0233 13.0134 7.70416 11.8712 5.92848 10.0871C4.1528 8.30293 3.02161 5.97842 2.71334 3.4802C2.70273 3.38254 2.71203 3.28375 2.74067 3.18979C2.76932 3.09583 2.81672 3.00866 2.88001 2.93353C2.94248 2.86242 3.01938 2.80542 3.10559 2.76634C3.1918 2.72726 3.28535 2.70698 3.38001 2.70686H5.38001C5.53504 2.70341 5.68642 2.75412 5.8081 2.85024C5.92978 2.94637 6.01415 3.08191 6.04667 3.23353C6.07334 3.41575 6.10667 3.59575 6.14667 3.77353C6.22369 4.12496 6.32618 4.47032 6.45334 4.80686L5.52001 5.2402C5.4402 5.27681 5.36842 5.32883 5.30878 5.39326C5.24913 5.45769 5.20281 5.53327 5.17245 5.61566C5.1421 5.69805 5.12832 5.78562 5.1319 5.87335C5.13549 5.96107 5.15637 6.04723 5.19334 6.12686C6.15281 8.18203 7.80484 9.83406 9.86001 10.7935C10.0223 10.8602 10.2044 10.8602 10.3667 10.7935C10.4498 10.7638 10.5262 10.7178 10.5915 10.6583C10.6567 10.5988 10.7094 10.5269 10.7467 10.4469L11.16 9.51353C11.5047 9.63678 11.8564 9.73919 12.2133 9.8202C12.3911 9.8602 12.5711 9.89353 12.7533 9.9202C12.905 9.95272 13.0405 10.0371 13.1366 10.1588C13.2328 10.2804 13.2835 10.4318 13.28 10.5869L13.2933 12.6669Z" fill="#1BA345"/>
</svg>
