<svg width="16" height="16" viewBox="0 0 16 16" fill="none" xmlns="http://www.w3.org/2000/svg">
<g clip-path="url(#clip0_58_41224)">
<rect width="16" height="16" fill="white"/>
<path fill-rule="evenodd" clip-rule="evenodd" d="M8.00008 1.99996C4.68637 1.99996 2.00008 4.68625 2.00008 7.99996C2.00008 11.3137 4.68637 14 8.00008 14C11.3138 14 14.0001 11.3137 14.0001 7.99996C14.0001 4.68625 11.3138 1.99996 8.00008 1.99996ZM0.666748 7.99996C0.666748 3.94987 3.94999 0.666626 8.00008 0.666626C12.0502 0.666626 15.3334 3.94987 15.3334 7.99996C15.3334 12.05 12.0502 15.3333 8.00008 15.3333C3.94999 15.3333 0.666748 12.05 0.666748 7.99996Z" fill="#0A0A0A"/>
<path fill-rule="evenodd" clip-rule="evenodd" d="M7.99992 7.33337C8.36811 7.33337 8.66659 7.63185 8.66659 8.00004V10.6667C8.66659 11.0349 8.36811 11.3334 7.99992 11.3334C7.63173 11.3334 7.33325 11.0349 7.33325 10.6667V8.00004C7.33325 7.63185 7.63173 7.33337 7.99992 7.33337Z" fill="#0A0A0A"/>
<path fill-rule="evenodd" clip-rule="evenodd" d="M7.33325 5.33329C7.33325 4.9651 7.63173 4.66663 7.99992 4.66663H8.00659C8.37477 4.66663 8.67325 4.9651 8.67325 5.33329C8.67325 5.70148 8.37477 5.99996 8.00659 5.99996H7.99992C7.63173 5.99996 7.33325 5.70148 7.33325 5.33329Z" fill="#0A0A0A"/>
</g>
<defs>
<clipPath id="clip0_58_41224">
<rect width="16" height="16" fill="white"/>
</clipPath>
</defs>
</svg>
