<svg width="72" height="72" viewBox="0 0 72 72" fill="none" xmlns="http://www.w3.org/2000/svg">
<g clip-path="url(#clip0_829_66524)">
<path d="M72 35.7316C71.5787 48.6914 66.1609 58.8973 55.3473 66.1272C53.9605 67.0554 52.3389 66.754 51.5226 65.4827C50.691 64.1894 51.0838 62.6497 52.4881 61.7149C60.1024 56.6493 64.897 49.6658 66.2816 40.5882C67.8944 29.9952 64.7434 20.8693 57.0852 13.3996C52.5627 8.98732 47.0923 6.35226 40.8494 5.34267C38.9667 5.03693 37.9903 4.01854 38.0692 2.49425C38.1482 0.950168 39.5175 -0.200195 41.0491 0.0285577C49.46 1.2823 56.5871 5.01273 62.3779 11.2485C67.5324 16.8023 70.5759 23.3834 71.6555 30.8838C71.7367 31.4535 71.8047 32.0276 71.842 32.6039C71.91 33.6442 71.9473 34.689 72 35.7316Z" fill="#424242"/>
<path d="M43.3663 71.0278C40.9065 71.4062 38.4313 71.6811 35.9649 72C19.4285 71.6107 5.66573 60.9979 1.22882 45.0468C0.399366 42.0664 0.043886 39.0156 -3.72005e-07 35.9297C-0.0241379 34.3152 1.08399 33.1274 2.58491 33.101C4.08143 33.0746 5.22248 34.2008 5.25101 35.8351C5.36511 42.4227 7.20834 48.4539 11.1186 53.7702C16.374 60.9121 23.4156 65.1001 32.2126 66.2812C35.616 66.7365 38.9887 66.521 42.3504 65.8853C43.8644 65.5972 45.2249 66.5056 45.5058 67.9331C45.7889 69.3694 44.8694 70.7947 43.3663 71.0278Z" fill="#424242"/>
<path d="M25.882 6.65579C24.0432 7.50041 22.1363 8.23066 20.3984 9.24905C14.6932 12.5946 10.524 17.3566 7.8425 23.4163C7.6867 23.7683 7.54846 24.129 7.36633 24.4655C6.87041 25.3915 6.08046 25.8534 5.23565 25.8842C3.12032 25.8842 1.90467 24.0168 2.64854 22.1604C4.08143 18.5927 6.05413 15.3418 8.54468 12.4164C12.6854 7.551 17.7498 3.99653 23.7557 1.83218C24.3613 1.61442 25.1162 1.57483 25.7459 1.7134C26.8387 1.95095 27.5387 2.97594 27.5848 4.07572C27.6309 5.17329 26.9616 6.15869 25.882 6.65579Z" fill="#424242"/>
</g>
<defs>
<clipPath id="clip0_829_66524">
<rect width="72" height="72" fill="white"/>
</clipPath>
</defs>
</svg>
