<svg width="16" height="16" viewBox="0 0 16 16" fill="none" xmlns="http://www.w3.org/2000/svg">
<path d="M11.3333 5.99967V4.66634C11.3333 3.78229 10.9821 2.93444 10.357 2.30932C9.73186 1.6842 8.88401 1.33301 7.99996 1.33301C7.1159 1.33301 6.26806 1.6842 5.64294 2.30932C5.01782 2.93444 4.66663 3.78229 4.66663 4.66634V5.99967C4.13619 5.99967 3.62749 6.21039 3.25241 6.58546C2.87734 6.96053 2.66663 7.46924 2.66663 7.99967V12.6663C2.66663 13.1968 2.87734 13.7055 3.25241 14.0806C3.62749 14.4556 4.13619 14.6663 4.66663 14.6663H11.3333C11.8637 14.6663 12.3724 14.4556 12.7475 14.0806C13.1226 13.7055 13.3333 13.1968 13.3333 12.6663V7.99967C13.3333 7.46924 13.1226 6.96053 12.7475 6.58546C12.3724 6.21039 11.8637 5.99967 11.3333 5.99967ZM5.99996 4.66634C5.99996 4.13591 6.21067 3.6272 6.58575 3.25213C6.96082 2.87705 7.46953 2.66634 7.99996 2.66634C8.53039 2.66634 9.0391 2.87705 9.41417 3.25213C9.78925 3.6272 9.99996 4.13591 9.99996 4.66634V5.99967H5.99996V4.66634ZM12 12.6663C12 12.8432 11.9297 13.0127 11.8047 13.1377C11.6797 13.2628 11.5101 13.333 11.3333 13.333H4.66663C4.48981 13.333 4.32025 13.2628 4.19522 13.1377C4.0702 13.0127 3.99996 12.8432 3.99996 12.6663V7.99967C3.99996 7.82286 4.0702 7.65329 4.19522 7.52827C4.32025 7.40325 4.48981 7.33301 4.66663 7.33301H11.3333C11.5101 7.33301 11.6797 7.40325 11.8047 7.52827C11.9297 7.65329 12 7.82286 12 7.99967V12.6663Z" fill="#DE3E44"/>
</svg>
