<svg width="16" height="16" viewBox="0 0 16 16" fill="none" xmlns="http://www.w3.org/2000/svg">
<rect width="16" height="16" fill="white"/>
<path d="M7.99991 1.33331C7.12443 1.33331 6.25752 1.50575 5.44869 1.84078C4.63985 2.17581 3.90492 2.66688 3.28587 3.28593C2.03562 4.53618 1.33324 6.23187 1.33324 7.99998C1.32742 9.5394 1.86044 11.0323 2.83991 12.22L1.50658 13.5533C1.41407 13.6471 1.35141 13.7661 1.32649 13.8954C1.30158 14.0248 1.31552 14.1586 1.36658 14.28C1.42195 14.3999 1.51171 14.5007 1.62448 14.5696C1.73724 14.6384 1.86791 14.6722 1.99991 14.6666H7.99991C9.76802 14.6666 11.4637 13.9643 12.714 12.714C13.9642 11.4638 14.6666 9.76809 14.6666 7.99998C14.6666 6.23187 13.9642 4.53618 12.714 3.28593C11.4637 2.03569 9.76802 1.33331 7.99991 1.33331ZM7.99991 13.3333H3.60658L4.22658 12.7133C4.35074 12.5884 4.42044 12.4194 4.42044 12.2433C4.42044 12.0672 4.35074 11.8982 4.22658 11.7733C3.35363 10.9013 2.81003 9.75367 2.68837 8.52584C2.56672 7.29801 2.87454 6.06598 3.5594 5.03966C4.24425 4.01334 5.26377 3.25622 6.44425 2.89729C7.62474 2.53837 8.89315 2.59985 10.0334 3.07126C11.1736 3.54266 12.1151 4.39483 12.6975 5.48257C13.2799 6.57032 13.4672 7.82634 13.2273 9.03665C12.9875 10.247 12.3354 11.3367 11.3823 12.1201C10.4291 12.9036 9.23375 13.3323 7.99991 13.3333ZM9.33324 7.33331H8.66658V6.66665C8.66658 6.48984 8.59634 6.32027 8.47131 6.19524C8.34629 6.07022 8.17672 5.99998 7.99991 5.99998C7.8231 5.99998 7.65353 6.07022 7.52851 6.19524C7.40348 6.32027 7.33324 6.48984 7.33324 6.66665V7.33331H6.66658C6.48977 7.33331 6.3202 7.40355 6.19517 7.52858C6.07015 7.6536 5.99991 7.82317 5.99991 7.99998C5.99991 8.17679 6.07015 8.34636 6.19517 8.47138C6.3202 8.59641 6.48977 8.66665 6.66658 8.66665H7.33324V9.33331C7.33324 9.51012 7.40348 9.67969 7.52851 9.80472C7.65353 9.92974 7.8231 9.99998 7.99991 9.99998C8.17672 9.99998 8.34629 9.92974 8.47131 9.80472C8.59634 9.67969 8.66658 9.51012 8.66658 9.33331V8.66665H9.33324C9.51005 8.66665 9.67962 8.59641 9.80465 8.47138C9.92967 8.34636 9.99991 8.17679 9.99991 7.99998C9.99991 7.82317 9.92967 7.6536 9.80465 7.52858C9.67962 7.40355 9.51005 7.33331 9.33324 7.33331Z" fill="#0A0A0A"/>
</svg>
