<svg width="22" height="22" viewBox="0 0 22 22" fill="none" xmlns="http://www.w3.org/2000/svg">
<path d="M13.2099 10.9159L12.7604 11.3986L13.3466 11.701C14.0705 12.0745 14.6909 12.621 15.1528 13.2919C15.6144 13.9626 15.9032 14.7368 15.9938 15.5458C16.0052 15.6548 15.9732 15.764 15.9047 15.8496C15.8409 15.9294 15.7501 15.9828 15.6499 16H15.5833H15.5668L15.5504 16.0011C15.4432 16.0081 15.3373 15.9735 15.255 15.9044C15.1727 15.8353 15.1203 15.7371 15.1087 15.6302L15.1088 15.6302L15.1079 15.623C14.9836 14.6138 14.4945 13.6849 13.7328 13.0112C12.9711 12.3376 11.9893 11.9657 10.9725 11.9657C9.95562 11.9657 8.97386 12.3376 8.21215 13.0112C7.45044 13.6849 6.96137 14.6138 6.83706 15.623L6.83702 15.623L6.83631 15.6295C6.82407 15.7408 6.76811 15.8427 6.68075 15.9127C6.59339 15.9827 6.48179 16.0152 6.37048 16.003C6.25918 15.9907 6.1573 15.9348 6.08726 15.8474C6.01764 15.7606 5.98513 15.6498 5.99676 15.5392C6.09471 14.7264 6.39291 13.9506 6.86464 13.2815C7.33692 12.6116 7.96831 12.0696 8.70202 11.7042L9.30127 11.4058L8.84507 10.9159C8.35032 10.3846 8.07133 9.68803 8.06248 8.96216C8.06323 8.17681 8.37553 7.42379 8.93091 6.86841C9.48695 6.31236 10.2411 5.99998 11.0275 5.99998C11.8138 5.99998 12.568 6.31236 13.1241 6.86841C13.6794 7.42379 13.9917 8.17681 13.9925 8.96216C13.9836 9.68803 13.7046 10.3846 13.2099 10.9159ZM3.58158 3.58158L3.93513 3.93513L3.58158 3.58158C3.3159 3.84725 3.16665 4.20759 3.16665 4.58331V17.4166C3.16665 17.7924 3.3159 18.1527 3.58158 18.4184C3.84725 18.6841 4.20759 18.8333 4.58331 18.8333H17.4166C17.7924 18.8333 18.1527 18.6841 18.4184 18.4184C18.6841 18.1527 18.8333 17.7924 18.8333 17.4166V4.58331C18.8333 4.20759 18.6841 3.84725 18.4184 3.58158C18.1527 3.3159 17.7924 3.16665 17.4166 3.16665H4.58331C4.20759 3.16665 3.84725 3.3159 3.58158 3.58158ZM9.81569 10.7374C10.1662 10.9716 10.5784 11.0966 11 11.0966C11.5653 11.0966 12.1075 10.8721 12.5073 10.4723C12.9071 10.0725 13.1316 9.53033 13.1316 8.96498C13.1316 8.54338 13.0066 8.13124 12.7724 7.78069C12.5382 7.43014 12.2052 7.15692 11.8157 6.99558C11.4262 6.83423 10.9976 6.79202 10.5841 6.87427C10.1706 6.95652 9.79078 7.15954 9.49266 7.45766C9.19455 7.75578 8.99152 8.13561 8.90927 8.54911C8.82702 8.96262 8.86924 9.39122 9.03058 9.78073C9.19192 10.1702 9.46514 10.5032 9.81569 10.7374ZM4.58331 2.33331H17.4166C18.0134 2.33331 18.5857 2.57037 19.0076 2.99232C19.4296 3.41428 19.6666 3.98658 19.6666 4.58331V17.4166C19.6666 18.0134 19.4296 18.5857 19.0076 19.0076C18.5857 19.4296 18.0134 19.6666 17.4166 19.6666H4.58331C3.98658 19.6666 3.41428 19.4296 2.99232 19.0076C2.57037 18.5857 2.33331 18.0134 2.33331 17.4166V4.58331C2.33331 3.98658 2.57037 3.41428 2.99232 2.99232C3.41428 2.57037 3.98658 2.33331 4.58331 2.33331Z" stroke="#424242"/>
</svg>
