<svg width="20" height="20" viewBox="0 0 20 20" fill="none" xmlns="http://www.w3.org/2000/svg">
<path d="M13.1807 11.5856L12.9792 11.9979L12.7476 12.4715L12.2869 12.2152C11.3541 11.6963 10.4969 11.0518 9.73938 10.2998L9.7368 10.2972C8.98477 9.53964 8.34027 8.68247 7.82136 7.74965L7.59708 7.34648L7.98095 7.09056L8.36595 6.83389L8.3936 6.81547L8.42343 6.80086C8.71901 6.65614 8.95062 6.40721 9.0737 6.10198C9.19659 5.79722 9.2026 5.45782 9.0906 5.14892C8.93768 4.73688 8.81217 4.31517 8.7149 3.88656L13.1807 11.5856ZM13.1807 11.5856C13.3254 11.29 13.5743 11.0584 13.8796 10.9354C14.1839 10.8127 14.5227 10.8065 14.8313 10.918C15.2434 11.0738 15.6663 11.1996 16.0965 11.2945C16.1218 11.3003 16.1515 11.3076 16.1846 11.3158C16.3343 11.3528 16.5554 11.4076 16.7682 11.4156C17.2666 11.5135 17.7176 11.7772 18.0475 12.1645C18.3844 12.5601 18.574 13.0601 18.5841 13.5795L18.5841 16.3249L18.5841 16.3272C18.5856 16.6456 18.5195 16.9606 18.3902 17.2515C18.261 17.5422 18.0716 17.8022 17.8345 18.0144C17.4216 18.3821 16.8878 18.5849 16.3349 18.5841H16.3341H16.0168C12.2966 18.1179 8.83628 16.429 6.17989 13.7823C3.5163 11.1284 1.8128 7.6627 1.33848 3.93268L1.3385 3.93268L1.33778 3.9274C1.29359 3.60719 1.31891 3.28122 1.41202 2.97168C1.50513 2.66214 1.66384 2.3763 1.87735 2.13361C2.09086 1.89092 2.35415 1.69708 2.64931 1.5653C2.94446 1.43351 3.26455 1.36686 3.58778 1.3699L3.58778 1.36992H3.59247H6.34247V1.36997L6.34974 1.36987C6.88576 1.36207 7.40695 1.54592 7.81946 1.8883C8.2295 2.22863 8.50536 2.70339 8.59809 3.22793L13.1807 11.5856ZM17.7783 16.4172L17.7783 16.4134L17.76 13.5597C17.7654 13.2331 17.6578 12.9145 17.4552 12.658L17.0628 12.968L17.4552 12.658C17.2509 12.3994 16.9629 12.2202 16.6407 12.151L16.6245 12.1476L16.6082 12.1452C16.3701 12.1103 16.1351 12.0668 15.9033 12.0147C15.4323 11.9077 14.9681 11.7726 14.5133 11.61L14.0759 11.4535L13.8878 11.8783L13.3217 13.1566C13.2985 13.2053 13.2661 13.2491 13.2262 13.2855L13.5632 13.6548L13.2262 13.2855C13.1855 13.3227 13.1377 13.3514 13.0857 13.37L13.0748 13.3739L13.0641 13.3783C12.9657 13.4187 12.8555 13.4199 12.7564 13.3818C10.0429 12.1114 7.86179 9.92814 6.59411 7.21311C6.57113 7.16345 6.55815 7.10976 6.55591 7.05509C6.55367 7.00026 6.56229 6.94553 6.58126 6.89403L6.11209 6.72118L6.58126 6.89403C6.60023 6.84254 6.62918 6.79531 6.66646 6.75503L6.29953 6.41538L6.66646 6.75503C6.70374 6.71476 6.7486 6.68225 6.79848 6.65937L6.79848 6.65937L6.80053 6.65842L8.08386 6.06259L8.50524 5.86695L8.34103 5.43236C8.17476 4.99231 8.04075 4.54073 7.94005 4.08122L7.94005 4.08122L7.93944 4.0785C7.88725 3.84654 7.84372 3.61151 7.80887 3.37335L7.80648 3.35702L7.80301 3.34088C7.7339 3.01868 7.55462 2.73066 7.29605 2.52639C7.03909 2.3234 6.7198 2.21573 6.39251 2.22159L3.64747 2.22159L3.64684 2.22159C3.44569 2.22184 3.24691 2.26493 3.06371 2.34798C2.88051 2.43103 2.71709 2.55214 2.58434 2.70325L2.58426 2.70318L2.57757 2.71111C2.44701 2.8661 2.34922 3.04595 2.29012 3.2398C2.23102 3.43365 2.21184 3.63746 2.23373 3.83893L2.23368 3.83893L2.23457 3.84615C2.67204 7.39143 4.27734 10.6902 6.79724 13.2221C9.31713 15.754 12.6082 17.3749 16.1514 17.8292L16.1528 17.8294C16.357 17.8549 16.5643 17.8371 16.7611 17.7771C16.9579 17.7171 17.1398 17.6163 17.295 17.4812L17.2966 17.4797C17.4478 17.347 17.5689 17.1835 17.6519 17.0004L17.2386 16.813L17.6519 17.0003C17.735 16.8172 17.778 16.6184 17.7783 16.4172Z" stroke="#424242"/>
</svg>
