<svg width="22" height="22" viewBox="0 0 22 22" fill="none" xmlns="http://www.w3.org/2000/svg">
<path d="M15.5833 8.24992H6.41667C6.17355 8.24992 5.94039 8.3465 5.76849 8.5184C5.59658 8.69031 5.5 8.92347 5.5 9.16659C5.5 9.4097 5.59658 9.64286 5.76849 9.81477C5.94039 9.98668 6.17355 10.0833 6.41667 10.0833H15.5833C15.8264 10.0833 16.0596 9.98668 16.2315 9.81477C16.4034 9.64286 16.5 9.4097 16.5 9.16659C16.5 8.92347 16.4034 8.69031 16.2315 8.5184C16.0596 8.3465 15.8264 8.24992 15.5833 8.24992ZM11.9167 11.9166H6.41667C6.17355 11.9166 5.94039 12.0132 5.76849 12.1851C5.59658 12.357 5.5 12.5901 5.5 12.8333C5.5 13.0764 5.59658 13.3095 5.76849 13.4814C5.94039 13.6533 6.17355 13.7499 6.41667 13.7499H11.9167C12.1598 13.7499 12.3929 13.6533 12.5648 13.4814C12.7368 13.3095 12.8333 13.0764 12.8333 12.8333C12.8333 12.5901 12.7368 12.357 12.5648 12.1851C12.3929 12.0132 12.1598 11.9166 11.9167 11.9166ZM11 1.83325C9.79622 1.83325 8.60422 2.07035 7.49207 2.53102C6.37992 2.99169 5.36939 3.6669 4.51819 4.51811C2.7991 6.23719 1.83333 8.56877 1.83333 10.9999C1.82532 13.1166 2.55823 15.1694 3.905 16.8024L2.07167 18.6358C1.94447 18.7647 1.85831 18.9283 1.82405 19.1062C1.78979 19.284 1.80897 19.468 1.87917 19.6349C1.9553 19.7999 2.07873 19.9384 2.23378 20.0331C2.38882 20.1278 2.5685 20.1742 2.75 20.1666H11C13.4312 20.1666 15.7627 19.2008 17.4818 17.4817C19.2009 15.7626 20.1667 13.4311 20.1667 10.9999C20.1667 8.56877 19.2009 6.23719 17.4818 4.51811C15.7627 2.79902 13.4312 1.83325 11 1.83325ZM11 18.3333H4.95917L5.81167 17.4808C5.9824 17.309 6.07823 17.0767 6.07823 16.8345C6.07823 16.5923 5.9824 16.36 5.81167 16.1883C4.61137 14.9893 3.86391 13.4112 3.69663 11.723C3.52936 10.0347 3.95261 8.34067 4.89429 6.92948C5.83597 5.51829 7.23781 4.47725 8.86097 3.98373C10.4841 3.49021 12.2282 3.57474 13.796 4.22292C15.3639 4.87111 16.6584 6.04284 17.4592 7.53849C18.26 9.03413 18.5175 10.7612 18.1877 12.4253C17.8579 14.0895 16.9614 15.5879 15.6507 16.6651C14.3401 17.7424 12.6965 18.3319 11 18.3333Z" fill="#424242"/>
</svg>
