<svg width="20" height="20" viewBox="0 0 20 20" fill="none" xmlns="http://www.w3.org/2000/svg">
<path d="M1.725 17.4084L2.22195 17.4635C2.37827 16.0545 2.91402 14.7144 3.77208 13.5859C4.63014 12.4575 5.77834 11.583 7.09428 11.0558L7.89774 10.7339L7.2175 10.1987C6.4822 9.62023 5.9455 8.82692 5.68207 7.92919C5.41863 7.03145 5.44156 6.07393 5.74766 5.18983C6.05376 4.30573 6.62781 3.53903 7.38994 2.99637C8.15208 2.45372 9.06441 2.16211 10 2.16211C10.9356 2.16211 11.8479 2.45372 12.6101 2.99637C13.3722 3.53903 13.9462 4.30573 14.2523 5.18983L14.7248 5.02625L14.2523 5.18983C14.5584 6.07393 14.5814 7.03145 14.3179 7.92919C14.0545 8.82692 13.5178 9.62023 12.7825 10.1987L12.0997 10.7359L12.9072 11.0564C14.2286 11.5809 15.3824 12.455 16.2449 13.5852C17.1071 14.715 17.6456 16.0581 17.8029 17.4705C17.8121 17.5578 17.7865 17.6452 17.7317 17.7137C17.6814 17.7766 17.6102 17.8189 17.5315 17.8334L17.475 17.8333L17.472 17.8334C17.3896 17.8339 17.3099 17.8038 17.2483 17.749C17.1868 17.6943 17.1477 17.6186 17.1386 17.5367L17.1385 17.5359C16.9418 15.7847 16.1068 14.1674 14.7931 12.9929C13.4793 11.8185 11.7789 11.1692 10.0167 11.1692C8.25447 11.1692 6.55405 11.8185 5.24028 12.9929C3.92651 14.1674 3.0915 15.7847 2.89479 17.5359L2.89466 17.537C2.88485 17.6262 2.84001 17.7079 2.76999 17.764C2.69998 17.8201 2.61053 17.8462 2.52134 17.8364C2.43213 17.8265 2.35048 17.7817 2.29435 17.7117C2.26655 17.677 2.24586 17.6372 2.23344 17.5946C2.22103 17.5519 2.21714 17.5072 2.222 17.463L1.725 17.4084ZM1.725 17.4084C1.71296 17.5178 1.72259 17.6285 1.75335 17.7342C1.78411 17.8399 1.83539 17.9386 1.90426 18.0245C2.04335 18.1979 2.24565 18.309 2.46666 18.3334C2.68768 18.3577 2.9093 18.2932 3.08277 18.1541C3.25624 18.015 3.36735 17.8127 3.39166 17.5917L6.49107 10.2241C6.56764 10.1908 6.64475 10.1587 6.72238 10.1276L6.90833 10.5917L6.59916 10.9846C6.5301 10.9303 6.46247 10.8744 6.39632 10.817C5.21038 11.3873 4.17378 12.2316 3.37407 13.2833C2.46125 14.4838 1.8913 15.9094 1.725 17.4084ZM13.1873 4.537L12.7716 4.81479L13.1873 4.537C12.7661 3.90662 12.1674 3.41529 11.467 3.12515C10.7665 2.83502 9.99575 2.7591 9.25215 2.90701C8.50856 3.05492 7.82552 3.42001 7.28942 3.95611C6.75332 4.49221 6.38823 5.17525 6.24032 5.91884C6.09241 6.66244 6.16832 7.43319 6.45846 8.13364C6.7486 8.83409 7.23992 9.43278 7.87031 9.85399C8.5007 10.2752 9.24184 10.5 10 10.5C11.0167 10.5 11.9917 10.0962 12.7106 9.37727C13.4295 8.65838 13.8333 7.68335 13.8333 6.66669C13.8333 5.90853 13.6085 5.16739 13.1873 4.537Z" stroke="#424242"/>
</svg>
