<svg width="24" height="24" viewBox="0 0 24 24" fill="none" xmlns="http://www.w3.org/2000/svg">
<path d="M11.5 13V12.5H11H9C8.86739 12.5 8.74022 12.4473 8.64645 12.3536C8.55268 12.2598 8.5 12.1326 8.5 12C8.5 11.8674 8.55268 11.7402 8.64645 11.6464C8.74022 11.5527 8.86739 11.5 9 11.5H11H11.5V11V9C11.5 8.86739 11.5527 8.74022 11.6464 8.64645C11.7402 8.55268 11.8674 8.5 12 8.5C12.1326 8.5 12.2598 8.55268 12.3536 8.64645C12.4473 8.74022 12.5 8.86739 12.5 9V11V11.5H13H15C15.1326 11.5 15.2598 11.5527 15.3536 11.6464C15.4473 11.7402 15.5 11.8674 15.5 12C15.5 12.1326 15.4473 12.2598 15.3536 12.3536C15.2598 12.4473 15.1326 12.5 15 12.5H13H12.5V13V15C12.5 15.1326 12.4473 15.2598 12.3536 15.3536C12.2598 15.4473 12.1326 15.5 12 15.5C11.8674 15.5 11.7402 15.4473 11.6464 15.3536C11.5527 15.2598 11.5 15.1326 11.5 15V13ZM20 20.5H20.5V20V4V3.5H20H4H3.5V4V20V20.5H4H20ZM3 2.5H21C21.1326 2.5 21.2598 2.55268 21.3536 2.64645C21.4473 2.74021 21.5 2.86739 21.5 3V21C21.5 21.1326 21.4473 21.2598 21.3536 21.3536C21.2598 21.4473 21.1326 21.5 21 21.5H3C2.86739 21.5 2.74021 21.4473 2.64645 21.3536C2.55268 21.2598 2.5 21.1326 2.5 21V3C2.5 2.86739 2.55268 2.74021 2.64645 2.64645C2.74021 2.55268 2.86739 2.5 3 2.5Z" stroke="#424242"/>
</svg>
