<svg width="22" height="16" viewBox="0 0 22 16" fill="none" xmlns="http://www.w3.org/2000/svg">
<path d="M0.916687 14.8749L1.41669 14.8754C1.41794 13.5628 1.79721 12.2784 2.50915 11.1756C3.22108 10.0729 4.23556 9.19851 5.43127 8.65706L6.14291 8.33482L5.55226 7.82354C5.11737 7.4471 4.76855 6.98151 4.52948 6.45837C4.29041 5.93522 4.16668 5.36677 4.16669 4.79159C4.16669 3.70862 4.59689 2.67001 5.36267 1.90423C6.12844 1.13846 7.16705 0.708252 8.25002 0.708252C9.33299 0.708252 10.3716 1.13846 11.1374 1.90423C11.9031 2.67001 12.3334 3.70862 12.3334 4.79158C12.3334 5.36677 12.2096 5.93522 11.9706 6.45837C11.7315 6.98151 11.3827 7.4471 10.9478 7.82354L10.3571 8.33482L11.0688 8.65706C12.2645 9.19851 13.279 10.0729 13.9909 11.1756C14.7028 12.2784 15.0821 13.5628 15.0834 14.8754L15.5834 14.8749M0.916687 14.8749H1.41669C1.41669 14.9854 1.46059 15.0914 1.53873 15.1695C1.61687 15.2477 1.72285 15.2916 1.83335 15.2916C1.94386 15.2916 2.04984 15.2477 2.12798 15.1695C2.20612 15.0914 2.25002 14.9854 2.25002 14.8749C2.25002 13.2836 2.88216 11.7575 4.00738 10.6323C5.1326 9.50706 6.65872 8.87492 8.25002 8.87492C9.84132 8.87492 11.3674 9.50706 12.4927 10.6323C13.6179 11.7575 14.25 13.2836 14.25 14.8749C14.25 14.9854 14.2939 15.0914 14.3721 15.1695C14.4502 15.2477 14.5562 15.2916 14.6667 15.2916C14.7772 15.2916 14.8832 15.2477 14.9613 15.1695C15.0395 15.0914 15.0834 14.9854 15.0834 14.8749H15.5834M0.916687 14.8749C0.916687 15.118 1.01326 15.3512 1.18517 15.5231C1.35708 15.695 1.59024 15.7916 1.83335 15.7916C2.07647 15.7916 2.30963 15.695 2.48153 15.5231C2.65344 15.3512 2.75002 15.118 2.75002 14.8749C2.75002 13.4162 3.32948 12.0173 4.36093 10.9858C5.39238 9.95438 6.79133 9.37492 8.25002 9.37492C9.70871 9.37492 11.1077 9.95438 12.1391 10.9858C13.1706 12.0173 13.75 13.4162 13.75 14.8749C13.75 15.118 13.8466 15.3512 14.0185 15.5231C14.1904 15.695 14.4236 15.7916 14.6667 15.7916C14.9098 15.7916 15.143 15.695 15.3149 15.5231C15.4868 15.3512 15.5834 15.118 15.5834 14.8749M0.916687 14.8749C0.918036 13.4663 1.32506 12.0878 2.08909 10.9044C2.75573 9.87182 3.66956 9.02583 4.74411 8.44095C4.79432 8.48818 4.84556 8.53442 4.89778 8.57963L5.22502 8.20159L5.01877 7.74611C4.95961 7.77289 4.90084 7.80039 4.84247 7.82859C4.52862 7.48402 4.26934 7.09206 4.07472 6.66619C3.80584 6.07782 3.66668 5.43849 3.66669 4.79158C3.66669 3.57601 4.14957 2.41022 5.00911 1.55068C5.86866 0.691138 7.03444 0.208252 8.25002 0.208252C9.4656 0.208252 10.6314 0.691138 11.4909 1.55068C12.3505 2.41022 12.8334 3.57601 12.8334 4.79158C12.8334 5.43849 12.6942 6.07782 12.4253 6.66619C12.2307 7.09206 11.9714 7.48402 11.6576 7.82859L11.7559 8.44095M15.5834 14.8749C15.582 13.4663 15.175 12.0878 14.411 10.9044C13.7443 9.87182 12.8305 9.02583 11.7559 8.44095M11.7559 8.44095C11.7057 8.48818 11.6545 8.53442 11.6023 8.57963L11.275 8.20159L11.7559 8.44095ZM19.7225 14.8765C19.7325 13.5591 19.366 12.2663 18.6662 11.1501C17.9683 10.0369 16.9678 9.14561 15.7819 8.58041L15.6945 8.53334L15.3565 8.30806L15.3565 8.30805L15.354 8.3064C15.2949 8.26751 15.2467 8.2142 15.2139 8.15151C15.1812 8.08896 15.1649 8.01911 15.1665 7.94854C15.1684 7.87736 15.1886 7.80786 15.225 7.74667C15.2615 7.68539 15.3131 7.6345 15.3748 7.59886L15.375 7.59877C15.8678 7.31426 16.2772 6.90537 16.5624 6.41297C16.8476 5.92058 16.9985 5.36194 17 4.79293V4.79158C17 3.92963 16.6576 3.10298 16.0481 2.49349C15.4386 1.884 14.612 1.54159 13.75 1.54159C13.6395 1.54159 13.5335 1.49769 13.4554 1.41955L13.1018 1.7731L13.4554 1.41955C13.3773 1.34141 13.3334 1.23542 13.3334 1.12492C13.3334 1.01441 13.3773 0.908432 13.4554 0.830291L13.1018 0.476737L13.4554 0.83029C13.5335 0.752151 13.6395 0.708252 13.75 0.708252L13.7502 0.708252C14.5373 0.708042 15.3077 0.935326 15.9686 1.36275C16.6296 1.79017 17.1529 2.39951 17.4756 3.11742C17.7983 3.83533 17.9067 4.63121 17.7876 5.40926C17.6685 6.18731 17.3271 6.91437 16.8045 7.50292L16.4116 7.94534L16.9134 8.25892C18.034 8.95927 18.9569 9.93453 19.5944 11.092C20.2319 12.2495 20.5629 13.5508 20.5559 14.8723V14.8749C20.5559 14.9854 20.512 15.0914 20.4338 15.1695C20.3557 15.2477 20.2497 15.2916 20.1392 15.2916C20.0287 15.2916 19.9227 15.2477 19.8446 15.1695C19.7668 15.0918 19.7229 14.9864 19.7225 14.8765ZM19.7225 14.8765C19.7225 14.8773 19.7225 14.8781 19.7225 14.8789L19.2225 14.8749M19.7225 14.8765C19.7225 14.876 19.7225 14.8754 19.7225 14.8749H19.2225M19.2225 14.8749C19.2225 15.118 19.3191 15.3512 19.491 15.5231C19.6629 15.695 19.8961 15.7916 20.1392 15.7916C20.3823 15.7916 20.6155 15.695 20.7874 15.5231C20.9593 15.3512 21.0559 15.118 21.0559 14.8749M19.2225 14.8749C19.2322 13.652 18.8922 12.4518 18.2426 11.4157C17.593 10.3796 16.6608 9.55066 15.5559 9.02658L21.0559 14.8749M21.0559 14.8749C21.0633 13.4682 20.711 12.083 20.0324 10.8508C19.435 9.76615 18.6021 8.83183 17.5976 8.11511C17.5826 8.13247 17.5675 8.14974 17.5522 8.16692L17.1784 7.83492L17.4433 7.41091C17.4593 7.42091 17.4753 7.43095 17.4912 7.44104C17.902 6.86123 18.1737 6.19182 18.2818 5.4849C18.4155 4.61157 18.2939 3.71824 17.9316 2.91242C17.5694 2.1066 16.982 1.42265 16.2401 0.942889C15.4982 0.463131 14.6335 0.208016 13.75 0.208252L21.0559 14.8749ZM14.7709 8.38332C14.843 8.52124 14.9492 8.63852 15.0792 8.72408L15.125 7.16575C14.9891 7.24415 14.8756 7.35611 14.7954 7.49093C14.7151 7.62575 14.6708 7.77891 14.6667 7.93575C14.6629 8.09137 14.6987 8.2454 14.7709 8.38332ZM6.44442 7.49386C6.97888 7.85098 7.60723 8.04158 8.25002 8.04158C9.11197 8.04158 9.93862 7.69918 10.5481 7.08968C11.1576 6.48019 11.5 5.65354 11.5 4.79158C11.5 4.1488 11.3094 3.52044 10.9523 2.98598C10.5952 2.45152 10.0876 2.03496 9.49374 1.78898C8.89988 1.54299 8.24642 1.47863 7.61598 1.60403C6.98554 1.72944 6.40644 2.03897 5.95192 2.49349C5.4974 2.94801 5.18787 3.5271 5.06247 4.15754C4.93707 4.78798 5.00143 5.44145 5.24741 6.03531C5.4934 6.62917 5.90996 7.13675 6.44442 7.49386Z" stroke="#424242"/>
</svg>
