<svg width="20" height="12" viewBox="0 0 20 12" fill="none" xmlns="http://www.w3.org/2000/svg">
<path d="M18.7358 1.55417C18.5965 1.47371 18.4384 1.43136 18.2775 1.43136C18.1166 1.43136 17.9585 1.47371 17.8191 1.55417L14.5833 3.14917C14.5572 2.43744 14.256 1.7636 13.7431 1.26949C13.2301 0.775371 12.5455 0.499522 11.8333 0.500001H3.58331C2.85397 0.500001 2.15449 0.789732 1.63877 1.30546C1.12304 1.82118 0.833313 2.52066 0.833313 3.25V8.75C0.833313 9.47935 1.12304 10.1788 1.63877 10.6945C2.15449 11.2103 2.85397 11.5 3.58331 11.5H11.8333C12.5455 11.5005 13.2301 11.2246 13.7431 10.7305C14.256 10.2364 14.5572 9.56256 14.5833 8.85083L17.8466 10.4825C17.9716 10.5466 18.1096 10.5811 18.25 10.5833C18.4216 10.5839 18.5899 10.5362 18.7358 10.4458C18.8679 10.3633 18.9768 10.2484 19.0522 10.1121C19.1276 9.97574 19.167 9.82245 19.1666 9.66667V2.33333C19.167 2.17755 19.1276 2.02426 19.0522 1.88793C18.9768 1.7516 18.8679 1.63673 18.7358 1.55417ZM12.75 8.75C12.75 8.99312 12.6534 9.22627 12.4815 9.39818C12.3096 9.57009 12.0764 9.66667 11.8333 9.66667H3.58331C3.3402 9.66667 3.10704 9.57009 2.93513 9.39818C2.76322 9.22627 2.66665 8.99312 2.66665 8.75V3.25C2.66665 3.00689 2.76322 2.77373 2.93513 2.60182C3.10704 2.42991 3.3402 2.33333 3.58331 2.33333H11.8333C12.0764 2.33333 12.3096 2.42991 12.4815 2.60182C12.6534 2.77373 12.75 3.00689 12.75 3.25V8.75ZM17.3333 8.18167L14.5833 6.80667V5.19333L17.3333 3.81833V8.18167Z" fill="#424242"/>
</svg>
