<svg width="20" height="20" viewBox="0 0 20 20" fill="none" xmlns="http://www.w3.org/2000/svg">
<path d="M8.16665 2.16659H7.66665V2.66659V7.12158V8.18911L8.48674 7.5057L8.81664 7.23077C8.81668 7.23075 8.81671 7.23072 8.81674 7.2307C8.89159 7.16838 8.98591 7.13426 9.08331 7.13426C9.18075 7.13426 9.27511 7.16841 9.34998 7.23077L9.67989 7.5057L10.5 8.18911V7.12158V2.66659V2.16659H9.99998H8.16665ZM6.83331 2.66659V2.16659H6.33331H3.58331C3.20759 2.16659 2.84725 2.31584 2.58158 2.58152L2.93513 2.93507L2.58158 2.58152C2.3159 2.84719 2.16665 3.20753 2.16665 3.58325V12.7499C2.16665 13.1256 2.3159 13.486 2.58158 13.7517C2.84725 14.0173 3.20759 14.1666 3.58331 14.1666H12.75C13.1257 14.1666 13.486 14.0173 13.7517 13.7517C14.0174 13.486 14.1666 13.1256 14.1666 12.7499V3.58325C14.1666 3.20753 14.0174 2.84719 13.7517 2.58152C13.486 2.31584 13.1257 2.16659 12.75 2.16659H11.8333H11.3333V2.66659L11.3333 9.08325L11.3333 9.08449C11.3335 9.16418 11.3108 9.24226 11.268 9.30947C11.226 9.37541 11.1663 9.42817 11.0957 9.46175C11.0386 9.48627 10.9771 9.49924 10.9149 9.49991C10.8162 9.49951 10.7208 9.46409 10.6458 9.39992L10.6458 9.3999L10.6417 9.39651L9.40424 8.36067L9.08331 8.09204L8.76238 8.36067L7.52488 9.39651L7.52486 9.39649L7.52081 9.39995C7.46028 9.45172 7.38618 9.48506 7.30728 9.49602C7.22839 9.50697 7.14801 9.49509 7.07566 9.46176C7.00332 9.42844 6.94204 9.37508 6.89909 9.308C6.85613 9.24092 6.83331 9.16294 6.83331 9.08329V9.08325V2.66659ZM17.9553 5.12196C18.0335 5.04382 18.1395 4.99992 18.25 4.99992C18.3605 4.99992 18.4665 5.04382 18.5446 5.12196C18.6227 5.2001 18.6666 5.30608 18.6666 5.41658V14.5833C18.6666 15.6662 18.2364 16.7048 17.4707 17.4706C16.7049 18.2364 15.6663 18.6666 14.5833 18.6666H5.41665C5.30614 18.6666 5.20016 18.6227 5.12202 18.5445C5.04388 18.4664 4.99998 18.3604 4.99998 18.2499C4.99998 18.1394 5.04388 18.0334 5.12202 17.9553C5.20016 17.8771 5.30614 17.8333 5.41665 17.8333H14.5833C15.4453 17.8333 16.2719 17.4908 16.8814 16.8813C17.4909 16.2719 17.8333 15.4452 17.8333 14.5833V5.41658C17.8333 5.30608 17.8772 5.2001 17.9553 5.12196ZM15 3.58325V12.7499C15 13.3467 14.7629 13.919 14.341 14.3409C13.919 14.7629 13.3467 14.9999 12.75 14.9999H3.58331C2.98658 14.9999 2.41428 14.7629 1.99232 14.3409C1.57037 13.919 1.33331 13.3467 1.33331 12.7499V3.58325C1.33331 2.98651 1.57037 2.41422 1.99232 1.99226C2.41428 1.5703 2.98658 1.33325 3.58331 1.33325H12.75C13.3467 1.33325 13.919 1.5703 14.341 1.99226C14.7629 2.41422 15 2.98651 15 3.58325Z" stroke="#424242"/>
</svg>
