<svg width="20" height="20" viewBox="0 0 20 20" fill="none" xmlns="http://www.w3.org/2000/svg">
<path d="M17.7667 7.95842L16.1917 7.43342L16.9334 5.95008C17.0085 5.79482 17.0337 5.62005 17.0053 5.44989C16.977 5.27973 16.8965 5.12257 16.775 5.00008L15 3.22508C14.8769 3.10182 14.7182 3.02026 14.5463 2.99186C14.3744 2.96345 14.1979 2.98965 14.0417 3.06675L12.5584 3.80842L12.0334 2.23342C11.9779 2.06924 11.8727 1.92644 11.7323 1.82487C11.5919 1.72331 11.4233 1.66804 11.25 1.66675H8.75002C8.57532 1.6663 8.40489 1.72077 8.26283 1.82245C8.12077 1.92414 8.01426 2.0679 7.95836 2.23342L7.43336 3.80842L5.95002 3.06675C5.79476 2.99157 5.61999 2.96642 5.44983 2.99478C5.27967 3.02314 5.12251 3.10361 5.00002 3.22508L3.22502 5.00008C3.10176 5.12322 3.0202 5.2819 2.99179 5.4538C2.96339 5.6257 2.98959 5.80218 3.06669 5.95842L3.80836 7.44175L2.23336 7.96675C2.06918 8.0222 1.92638 8.12744 1.82481 8.26784C1.72325 8.40824 1.66798 8.57681 1.66669 8.75008V11.2501C1.66624 11.4248 1.72071 11.5952 1.82239 11.7373C1.92408 11.8793 2.06784 11.9858 2.23336 12.0418L3.80836 12.5668L3.06669 14.0501C2.99151 14.2053 2.96636 14.3801 2.99472 14.5503C3.02308 14.7204 3.10355 14.8776 3.22502 15.0001L5.00002 16.7751C5.12316 16.8983 5.28184 16.9799 5.45374 17.0083C5.62564 17.0367 5.80212 17.0105 5.95836 16.9334L7.44169 16.1918L7.96669 17.7668C8.02259 17.9323 8.12911 18.076 8.27117 18.1777C8.41323 18.2794 8.58365 18.3339 8.75836 18.3334H11.2584C11.4331 18.3339 11.6035 18.2794 11.7455 18.1777C11.8876 18.076 11.9941 17.9323 12.05 17.7668L12.575 16.1918L14.0584 16.9334C14.2126 17.0067 14.3857 17.0308 14.5541 17.0025C14.7225 16.9742 14.8782 16.8948 15 16.7751L16.775 15.0001C16.8983 14.8769 16.9799 14.7183 17.0083 14.5464C17.0367 14.3745 17.0105 14.198 16.9334 14.0418L16.1917 12.5584L17.7667 12.0334C17.9309 11.978 18.0737 11.8727 18.1752 11.7323C18.2768 11.5919 18.3321 11.4234 18.3334 11.2501V8.75008C18.3338 8.57538 18.2793 8.40495 18.1777 8.26289C18.076 8.12083 17.9322 8.01432 17.7667 7.95842ZM16.6667 10.6501L15.6667 10.9834C15.4367 11.058 15.2258 11.1817 15.0484 11.346C14.871 11.5103 14.7315 11.7112 14.6396 11.9347C14.5476 12.1583 14.5054 12.3992 14.5158 12.6407C14.5263 12.8823 14.5891 13.1186 14.7 13.3334L15.175 14.2834L14.2584 15.2001L13.3334 14.7001C13.1197 14.5936 12.8856 14.5343 12.6469 14.5262C12.4083 14.518 12.1707 14.5613 11.9503 14.6529C11.7298 14.7446 11.5316 14.8825 11.3691 15.0574C11.2066 15.2324 11.0836 15.4402 11.0084 15.6668L10.675 16.6668H9.35002L9.01669 15.6668C8.9421 15.4368 8.81838 15.2258 8.65411 15.0485C8.48983 14.8711 8.28895 14.7316 8.06537 14.6396C7.8418 14.5477 7.6009 14.5054 7.35938 14.5159C7.11785 14.5263 6.88149 14.5892 6.66669 14.7001L5.71669 15.1751L4.80002 14.2584L5.30002 13.3334C5.41093 13.1186 5.47379 12.8823 5.48423 12.6407C5.49467 12.3992 5.45244 12.1583 5.36047 11.9347C5.26851 11.7112 5.129 11.5103 4.95164 11.346C4.77428 11.1817 4.56331 11.058 4.33336 10.9834L3.33336 10.6501V9.35008L4.33336 9.01675C4.56331 8.94216 4.77428 8.81844 4.95164 8.65417C5.129 8.48989 5.26851 8.28901 5.36047 8.06543C5.45244 7.84186 5.49467 7.60096 5.48423 7.35944C5.47379 7.11792 5.41093 6.88156 5.30002 6.66675L4.82502 5.74175L5.74169 4.82508L6.66669 5.30008C6.88149 5.411 7.11785 5.47385 7.35938 5.48429C7.6009 5.49473 7.8418 5.4525 8.06537 5.36053C8.28895 5.26857 8.48983 5.12907 8.65411 4.95171C8.81838 4.77434 8.9421 4.56337 9.01669 4.33342L9.35002 3.33342H10.65L10.9834 4.33342C11.0579 4.56337 11.1817 4.77434 11.3459 4.95171C11.5102 5.12907 11.7111 5.26857 11.9347 5.36053C12.1582 5.4525 12.3991 5.49473 12.6407 5.48429C12.8822 5.47385 13.1186 5.411 13.3334 5.30008L14.2834 4.82508L15.2 5.74175L14.7 6.66675C14.5936 6.88046 14.5342 7.11454 14.5261 7.35316C14.518 7.59178 14.5612 7.82936 14.6529 8.04982C14.7445 8.27028 14.8825 8.46847 15.0574 8.63098C15.2323 8.79349 15.4401 8.91653 15.6667 8.99175L16.6667 9.32508V10.6501ZM10 6.66675C9.34075 6.66675 8.69629 6.86225 8.14812 7.22852C7.59996 7.59479 7.17272 8.11539 6.92042 8.72447C6.66813 9.33356 6.60212 10.0038 6.73074 10.6504C6.85936 11.297 7.17683 11.8909 7.643 12.3571C8.10918 12.8233 8.70312 13.1408 9.34972 13.2694C9.99633 13.398 10.6665 13.332 11.2756 13.0797C11.8847 12.8274 12.4053 12.4001 12.7716 11.852C13.1379 11.3038 13.3334 10.6594 13.3334 10.0001C13.3334 9.11603 12.9822 8.26818 12.357 7.64306C11.7319 7.01794 10.8841 6.66675 10 6.66675ZM10 11.6668C9.67039 11.6668 9.34816 11.569 9.07407 11.3859C8.79999 11.2027 8.58637 10.9424 8.46022 10.6379C8.33408 10.3333 8.30107 9.99824 8.36538 9.67493C8.42969 9.35163 8.58842 9.05466 8.82151 8.82157C9.0546 8.58849 9.35157 8.42975 9.67487 8.36544C9.99817 8.30113 10.3333 8.33414 10.6378 8.46028C10.9424 8.58643 11.2027 8.80005 11.3858 9.07413C11.5689 9.34822 11.6667 9.67045 11.6667 10.0001C11.6667 10.4421 11.4911 10.866 11.1785 11.1786C10.866 11.4912 10.4421 11.6668 10 11.6668Z" fill="#424242"/>
</svg>
