<svg width="16" height="16" viewBox="0 0 16 16" fill="none" xmlns="http://www.w3.org/2000/svg">
<path d="M4 4.99345C4.17681 4.99345 4.34638 4.92321 4.47141 4.79819C4.59643 4.67316 4.66667 4.50359 4.66667 4.32678V3.93345L6.58667 5.85345C6.96167 6.22798 7.47 6.43836 8 6.43836C8.53 6.43836 9.03834 6.22798 9.41334 5.85345L12.4733 2.79345C12.5975 2.66854 12.6672 2.49957 12.6672 2.32345C12.6672 2.14733 12.5975 1.97836 12.4733 1.85345C12.4114 1.79096 12.3376 1.74137 12.2564 1.70752C12.1751 1.67368 12.088 1.65625 12 1.65625C11.912 1.65625 11.8249 1.67368 11.7436 1.70752C11.6624 1.74137 11.5886 1.79096 11.5267 1.85345L8.47334 4.90678C8.41136 4.96927 8.33763 5.01886 8.25639 5.05271C8.17515 5.08656 8.08801 5.10398 8 5.10398C7.912 5.10398 7.82486 5.08656 7.74362 5.05271C7.66238 5.01886 7.58865 4.96927 7.52667 4.90678L5.60667 2.99345H6C6.17681 2.99345 6.34638 2.92321 6.47141 2.79819C6.59643 2.67316 6.66667 2.50359 6.66667 2.32678C6.66667 2.14997 6.59643 1.9804 6.47141 1.85538C6.34638 1.73035 6.17681 1.66012 6 1.66012H4C3.86914 1.66022 3.74121 1.69884 3.63214 1.77115C3.52308 1.84347 3.43771 1.94628 3.38667 2.06678C3.35308 2.14944 3.335 2.23758 3.33334 2.32678V4.32678C3.33334 4.50359 3.40357 4.67316 3.5286 4.79819C3.65362 4.92321 3.82319 4.99345 4 4.99345ZM14.6267 9.90012C12.7283 8.43512 10.3979 7.6405 8 7.6405C5.60207 7.6405 3.27173 8.43512 1.37334 9.90012C1.1731 10.0616 1.00993 10.2642 0.894898 10.4942C0.779869 10.7243 0.715675 10.9764 0.70667 11.2334C0.689261 11.4873 0.72669 11.742 0.816415 11.9801C0.90614 12.2182 1.04606 12.4342 1.22667 12.6134L2.4 13.8134C2.69983 14.1132 3.09647 14.2965 3.51903 14.3307C3.94159 14.3649 4.36255 14.2477 4.70667 14.0001L5.02 13.7868C5.23336 13.6491 5.45613 13.5266 5.68667 13.4201C5.97006 13.295 6.19597 13.0678 6.31949 12.7837C6.44301 12.4996 6.45509 12.1794 6.35334 11.8868L6.29334 11.7268C7.43481 11.4336 8.63187 11.4336 9.77334 11.7268L9.71334 11.8868C9.61158 12.1794 9.62366 12.4996 9.74718 12.7837C9.8707 13.0678 10.0966 13.295 10.38 13.4201C10.6105 13.5266 10.8333 13.6491 11.0467 13.7868L11.36 14.0001C11.6576 14.2185 12.0175 14.3354 12.3867 14.3334C12.8662 14.334 13.3264 14.1447 13.6667 13.8068L14.8733 12.5934C15.0423 12.4098 15.1707 12.1925 15.2499 11.9559C15.3292 11.7192 15.3576 11.4685 15.3333 11.2201C15.3176 10.9622 15.2463 10.7107 15.1244 10.4828C15.0024 10.255 14.8326 10.0562 14.6267 9.90012ZM13.8667 11.6601L12.6667 12.8668C12.5937 12.9428 12.4966 12.991 12.392 13.0032C12.2874 13.0153 12.1818 12.9907 12.0933 12.9334C11.9667 12.8401 11.84 12.7534 11.7 12.6668C11.4652 12.5183 11.2227 12.3826 10.9733 12.2601L11.24 11.5334C11.3 11.3672 11.2916 11.184 11.2166 11.024C11.1416 10.864 11.0062 10.7403 10.84 10.6801C9.0099 10.0136 7.00344 10.0136 5.17334 10.6801C5.00718 10.7403 4.87171 10.864 4.79671 11.024C4.7217 11.184 4.71329 11.3672 4.77334 11.5334L5.04 12.2668C4.78728 12.3843 4.54233 12.5179 4.30667 12.6668L3.92 12.9334C3.83135 12.9971 3.72224 13.0254 3.61383 13.0131C3.50542 13.0008 3.40546 12.9487 3.33334 12.8668L2.13334 11.6601C2.0901 11.6176 2.05597 11.5667 2.03305 11.5105C2.01012 11.4543 1.99888 11.3941 2 11.3334C2.00554 11.265 2.02494 11.1983 2.05703 11.1376C2.08912 11.0769 2.13323 11.0233 2.18667 10.9801C3.85285 9.69675 5.89687 9.0008 8 9.0008C10.1031 9.0008 12.1472 9.69675 13.8133 10.9801C13.8668 11.0233 13.9109 11.0769 13.943 11.1376C13.9751 11.1983 13.9945 11.265 14 11.3334C14.0011 11.3941 13.9899 11.4543 13.967 11.5105C13.944 11.5667 13.9099 11.6176 13.8667 11.6601Z" fill="#DE3E44"/>
</svg>
