<svg width="18" height="17" viewBox="0 0 18 17" fill="none" xmlns="http://www.w3.org/2000/svg">
<path d="M17.0334 9.33333C16.9132 9.2339 16.7674 9.17025 16.6127 9.14962C16.458 9.12899 16.3006 9.15222 16.1584 9.21666C15.2773 9.6199 14.3192 9.82744 13.3501 9.825C11.5575 9.82283 9.83842 9.11203 8.56773 7.84758C7.29703 6.58313 6.57778 4.86758 6.56678 3.07499C6.57058 2.51319 6.64051 1.95378 6.77511 1.40833C6.80368 1.26294 6.79296 1.11257 6.74408 0.972706C6.69519 0.83284 6.60989 0.708537 6.49698 0.612603C6.38407 0.51667 6.24762 0.452575 6.10169 0.426923C5.95577 0.40127 5.80564 0.414987 5.66678 0.46666C4.36038 1.05408 3.22476 1.96396 2.36658 3.11081C1.5084 4.25767 0.955846 5.60385 0.76082 7.0229C0.565795 8.44195 0.734701 9.88729 1.25167 11.2231C1.76864 12.559 2.61671 13.7415 3.7162 14.6596C4.81569 15.5776 6.13051 16.2011 7.53715 16.4715C8.94379 16.7419 10.3961 16.6502 11.7576 16.2052C13.1191 15.7601 14.3451 14.9763 15.3204 13.9273C16.2958 12.8783 16.9885 11.5986 17.3334 10.2083C17.3755 10.0492 17.3694 9.88111 17.316 9.72538C17.2626 9.56966 17.1643 9.43324 17.0334 9.33333ZM9.11678 14.9083C7.71825 14.8985 6.35695 14.4566 5.21927 13.6431C4.0816 12.8297 3.22317 11.6844 2.76152 10.3643C2.29986 9.04409 2.25756 7.61348 2.6404 6.26833C3.02323 4.92318 3.81249 3.72924 4.90011 2.84999V3.07499C4.90232 5.3154 5.79329 7.46341 7.3775 9.04761C8.9617 10.6318 11.1097 11.5228 13.3501 11.525C13.9383 11.5272 14.5251 11.4657 15.1001 11.3417C14.525 12.4296 13.6638 13.3399 12.6094 13.9743C11.555 14.6087 10.3473 14.9432 9.11678 14.9417V14.9083Z" fill="#424242"/>
</svg>
