<svg width="16" height="16" viewBox="0 0 16 16" fill="none" xmlns="http://www.w3.org/2000/svg">
<path d="M8.28732 2.73333C8.17905 2.6865 8.0603 2.66922 7.94318 2.68328C7.82606 2.69733 7.71476 2.74221 7.62065 2.81333L4.43398 5.33333H2.00065C1.82384 5.33333 1.65427 5.40357 1.52925 5.5286C1.40422 5.65362 1.33398 5.82319 1.33398 6V10C1.33398 10.1768 1.40422 10.3464 1.52925 10.4714C1.65427 10.5964 1.82384 10.6667 2.00065 10.6667H4.43398L7.58732 13.1867C7.70461 13.2808 7.85028 13.3325 8.00065 13.3333C8.10023 13.335 8.19868 13.3121 8.28732 13.2667C8.40077 13.2126 8.49663 13.1276 8.56387 13.0215C8.6311 12.9153 8.66696 12.7923 8.66732 12.6667V3.33333C8.66696 3.20768 8.6311 3.08468 8.56387 2.97852C8.49663 2.87236 8.40077 2.78737 8.28732 2.73333ZM7.33398 11.28L5.08065 9.48C4.96336 9.38589 4.81769 9.33421 4.66732 9.33333H2.66732V6.66667H4.66732C4.81769 6.6658 4.96336 6.61411 5.08065 6.52L7.33398 4.72V11.28ZM13.274 8L14.474 6.80667C14.5361 6.74451 14.5855 6.67072 14.6191 6.5895C14.6527 6.50829 14.67 6.42124 14.67 6.33333C14.67 6.24543 14.6527 6.15838 14.6191 6.07717C14.5855 5.99595 14.5361 5.92216 14.474 5.86C14.4118 5.79784 14.338 5.74853 14.2568 5.71489C14.1756 5.68125 14.0886 5.66394 14.0007 5.66394C13.9127 5.66394 13.8257 5.68125 13.7445 5.71489C13.6633 5.74853 13.5895 5.79784 13.5273 5.86L12.334 7.06L11.1407 5.86C11.0151 5.73446 10.8449 5.66394 10.6673 5.66394C10.4898 5.66394 10.3195 5.73446 10.194 5.86C10.0684 5.98554 9.99792 6.1558 9.99792 6.33333C9.99792 6.51087 10.0684 6.68113 10.194 6.80667L11.394 8L10.194 9.19333C10.1315 9.25531 10.0819 9.32904 10.0481 9.41028C10.0142 9.49152 9.99679 9.57866 9.99679 9.66667C9.99679 9.75468 10.0142 9.84181 10.0481 9.92305C10.0819 10.0043 10.1315 10.078 10.194 10.14C10.256 10.2025 10.3297 10.2521 10.4109 10.2859C10.4922 10.3198 10.5793 10.3372 10.6673 10.3372C10.7553 10.3372 10.8425 10.3198 10.9237 10.2859C11.0049 10.2521 11.0787 10.2025 11.1407 10.14L12.334 8.94L13.5273 10.14C13.5893 10.2025 13.663 10.2521 13.7443 10.2859C13.8255 10.3198 13.9126 10.3372 14.0007 10.3372C14.0887 10.3372 14.1758 10.3198 14.257 10.2859C14.3383 10.2521 14.412 10.2025 14.474 10.14C14.5365 10.078 14.5861 10.0043 14.6199 9.92305C14.6538 9.84181 14.6712 9.75468 14.6712 9.66667C14.6712 9.57866 14.6538 9.49152 14.6199 9.41028C14.5861 9.32904 14.5365 9.25531 14.474 9.19333L13.274 8Z" fill="#0A0A0A"/>
</svg>
