<svg width="41" height="40" viewBox="0 0 41 40" fill="none" xmlns="http://www.w3.org/2000/svg">
<path d="M41 37.1784C40.984 37.194 40.9681 37.2083 40.9521 37.224C39.9261 38.1901 38.9679 39.0951 38.0071 40H37.9272C37.8354 39.8919 37.7516 39.7773 37.6504 39.6784C36.3902 38.444 35.1259 37.2148 33.8684 35.9779C33.7007 35.8125 33.5689 35.6133 33.4172 35.4271C30.8701 37.4323 28.1207 38.7852 25.0413 39.4753C25.016 39.4232 24.9947 39.3997 24.9947 39.3776C24.9907 37.9583 24.9827 36.5391 24.9987 35.1211C25 35.0182 25.1531 34.8711 25.2689 34.8216C26.0101 34.5026 26.7886 34.2565 27.5006 33.888C28.3935 33.4258 29.2359 32.8685 30.0637 32.375C26.8179 29.1979 23.6347 26.0833 20.4275 22.9466V37.6875C20.3942 37.7018 20.3609 37.7174 20.3277 37.7318C20.2358 37.6198 20.1533 37.4987 20.0495 37.3971C16.4857 33.9076 12.9192 30.4206 9.35938 26.9271C9.16641 26.7383 8.97611 26.6549 8.69931 26.6549C6.03775 26.6654 3.37752 26.6615 0.71596 26.6602C0.47775 26.6602 0.23821 26.6471 0 26.6406V13.3594C0.158363 13.3529 0.318056 13.3398 0.476419 13.3398C3.72219 13.3385 6.96663 13.3385 10.2124 13.3385H10.7075C10.5597 13.1823 10.4852 13.0938 10.4027 13.013C7.02652 9.70963 3.65033 6.40755 0.27281 3.10547C0.190302 3.02474 0.0918238 2.96224 0 2.89062V2.8125C0.958162 1.875 1.91632 0.9375 2.87448 0H2.95433C3.06479 0.126302 3.16726 0.260417 3.28703 0.377604C15.6992 12.5234 28.1114 24.6693 40.5262 36.8125C40.63 36.9141 40.7551 36.9935 40.9521 37.1419C40.9681 37.1536 40.984 37.1654 41 37.1784Z" fill="#680A83"/>
<path d="M40.9521 37.1418V37.2239C40.9681 37.2083 40.9841 37.1939 41.0001 37.1783C40.9841 37.1653 40.9681 37.1536 40.9521 37.1418Z" fill="white"/>
<path d="M38.5183 29.211C37.4244 28.1368 36.3305 27.073 35.2565 25.991C35.1753 25.9089 35.186 25.6772 35.2366 25.5457C35.7875 24.1407 36.1521 22.6941 36.2772 21.1954C36.4995 18.5613 36.055 16.0287 34.9331 13.6303C33.1592 9.84123 30.2714 7.16675 26.3403 5.56909C25.973 5.41935 25.5857 5.31649 25.2184 5.16805C25.1213 5.12899 24.9975 5.00269 24.9962 4.91414C24.9829 3.47144 24.9869 2.02743 24.9869 0.549561C38.2282 3.4493 44.721 18.0574 38.5183 29.211Z" fill="#680A83"/>
<path d="M30.5387 21.366C30.4363 21.2813 30.3458 21.2136 30.2673 21.1368C28.5838 19.491 26.8991 17.8464 25.2236 16.1941C25.1131 16.0847 24.9987 15.9181 24.996 15.7761C24.9801 14.2292 24.9867 12.6824 24.9867 11.0964C28.7608 12.8256 31.2254 17.1238 30.5387 21.366Z" fill="#680A83"/>
<path d="M20.4034 2.38159V11.3829C18.8637 9.87899 17.3173 8.36597 15.7949 6.87899C17.3187 5.39201 18.869 3.88029 20.4034 2.38159Z" fill="#680A83"/>
</svg>
