<svg width="18" height="18" viewBox="0 0 18 18" fill="none" xmlns="http://www.w3.org/2000/svg">
<path d="M8.99989 10.6667C8.83507 10.6667 8.67395 10.7156 8.53691 10.8071C8.39987 10.8987 8.29306 11.0288 8.22999 11.1811C8.16692 11.3334 8.15041 11.5009 8.18257 11.6626C8.21472 11.8242 8.29409 11.9727 8.41063 12.0893C8.52718 12.2058 8.67566 12.2852 8.83731 12.3173C8.99896 12.3495 9.16652 12.333 9.31879 12.2699C9.47106 12.2068 9.60121 12.1 9.69278 11.963C9.78435 11.826 9.83322 11.6648 9.83322 11.5C9.83322 11.279 9.74542 11.067 9.58914 10.9108C9.43286 10.7545 9.2209 10.6667 8.99989 10.6667ZM8.99989 0.666687C7.90554 0.666687 6.82191 0.882235 5.81086 1.30102C4.79981 1.71981 3.88115 2.33364 3.10733 3.10746C1.54453 4.67027 0.666555 6.78988 0.666555 9.00002C0.65927 10.9243 1.32555 12.7905 2.54989 14.275L0.883222 15.9417C0.76759 16.0589 0.68926 16.2077 0.658115 16.3693C0.62697 16.531 0.644405 16.6983 0.708222 16.85C0.777437 17 0.889642 17.126 1.03059 17.212C1.17155 17.2981 1.33489 17.3403 1.49989 17.3334H8.99989C11.21 17.3334 13.3296 16.4554 14.8924 14.8926C16.4552 13.3298 17.3332 11.2102 17.3332 9.00002C17.3332 6.78988 16.4552 4.67027 14.8924 3.10746C13.3296 1.54466 11.21 0.666687 8.99989 0.666687ZM8.99989 15.6667H3.50822L4.28322 14.8917C4.36196 14.8145 4.4246 14.7225 4.46752 14.6209C4.51043 14.5193 4.53276 14.4103 4.53322 14.3C4.53009 14.0802 4.44023 13.8705 4.28322 13.7167C3.19204 12.6267 2.51253 11.1921 2.36046 9.65735C2.20839 8.12256 2.59317 6.58253 3.44924 5.29962C4.30531 4.01672 5.57971 3.07032 7.05532 2.62166C8.53092 2.17301 10.1164 2.24986 11.5417 2.83911C12.967 3.42837 14.1439 4.49358 14.8719 5.85326C15.5999 7.21294 15.8339 8.78297 15.5342 10.2959C15.2344 11.8087 14.4193 13.1709 13.2278 14.1502C12.0364 15.1295 10.5422 15.6655 8.99989 15.6667ZM8.99989 5.66669C8.77887 5.66669 8.56691 5.75448 8.41063 5.91076C8.25435 6.06705 8.16656 6.27901 8.16656 6.50002V9.00002C8.16656 9.22103 8.25435 9.43299 8.41063 9.58928C8.56691 9.74556 8.77887 9.83335 8.99989 9.83335C9.2209 9.83335 9.43286 9.74556 9.58914 9.58928C9.74542 9.43299 9.83322 9.22103 9.83322 9.00002V6.50002C9.83322 6.27901 9.74542 6.06705 9.58914 5.91076C9.43286 5.75448 9.2209 5.66669 8.99989 5.66669Z" fill="#424242"/>
</svg>
