<svg width="16" height="16" viewBox="0 0 16 16" fill="none" xmlns="http://www.w3.org/2000/svg">
<path d="M14.0002 6.99998H13.3335V6.33331C13.3335 6.1565 13.2633 5.98693 13.1382 5.86191C13.0132 5.73688 12.8436 5.66665 12.6668 5.66665C12.49 5.66665 12.3204 5.73688 12.1954 5.86191C12.0704 5.98693 12.0002 6.1565 12.0002 6.33331V6.99998H11.3335C11.1567 6.99998 10.9871 7.07022 10.8621 7.19524C10.7371 7.32027 10.6668 7.48984 10.6668 7.66665C10.6668 7.84346 10.7371 8.01303 10.8621 8.13805C10.9871 8.26308 11.1567 8.33331 11.3335 8.33331H12.0002V8.99998C12.0002 9.17679 12.0704 9.34636 12.1954 9.47138C12.3204 9.59641 12.49 9.66665 12.6668 9.66665C12.8436 9.66665 13.0132 9.59641 13.1382 9.47138C13.2633 9.34636 13.3335 9.17679 13.3335 8.99998V8.33331H14.0002C14.177 8.33331 14.3465 8.26308 14.4716 8.13805C14.5966 8.01303 14.6668 7.84346 14.6668 7.66665C14.6668 7.48984 14.5966 7.32027 14.4716 7.19524C14.3465 7.07022 14.177 6.99998 14.0002 6.99998ZM8.86683 8.14665C9.22255 7.83874 9.50786 7.4579 9.70341 7.02999C9.89896 6.60209 10.0002 6.13712 10.0002 5.66665C10.0002 4.78259 9.64897 3.93475 9.02385 3.30962C8.39873 2.6845 7.55088 2.33331 6.66683 2.33331C5.78277 2.33331 4.93493 2.6845 4.30981 3.30962C3.68469 3.93475 3.3335 4.78259 3.3335 5.66665C3.33349 6.13712 3.4347 6.60209 3.63025 7.02999C3.8258 7.4579 4.11111 7.83874 4.46683 8.14665C3.53359 8.56924 2.74181 9.25167 2.18615 10.1123C1.63049 10.973 1.33448 11.9755 1.3335 13C1.3335 13.1768 1.40373 13.3464 1.52876 13.4714C1.65378 13.5964 1.82335 13.6666 2.00016 13.6666C2.17697 13.6666 2.34654 13.5964 2.47157 13.4714C2.59659 13.3464 2.66683 13.1768 2.66683 13C2.66683 11.9391 3.08826 10.9217 3.8384 10.1716C4.58855 9.42141 5.60596 8.99998 6.66683 8.99998C7.7277 8.99998 8.74511 9.42141 9.49526 10.1716C10.2454 10.9217 10.6668 11.9391 10.6668 13C10.6668 13.1768 10.7371 13.3464 10.8621 13.4714C10.9871 13.5964 11.1567 13.6666 11.3335 13.6666C11.5103 13.6666 11.6799 13.5964 11.8049 13.4714C11.9299 13.3464 12.0002 13.1768 12.0002 13C11.9992 11.9755 11.7032 10.973 11.1475 10.1123C10.5919 9.25167 9.80007 8.56924 8.86683 8.14665ZM6.66683 7.66665C6.27127 7.66665 5.88459 7.54935 5.55569 7.32959C5.22679 7.10982 4.97045 6.79747 4.81907 6.43201C4.6677 6.06656 4.62809 5.66443 4.70526 5.27647C4.78243 4.8885 4.97291 4.53214 5.25262 4.25243C5.53232 3.97273 5.88869 3.78225 6.27665 3.70508C6.66461 3.62791 7.06674 3.66751 7.4322 3.81889C7.79765 3.97026 8.11001 4.22661 8.32977 4.55551C8.54953 4.8844 8.66683 5.27108 8.66683 5.66665C8.66683 6.19708 8.45612 6.70579 8.08104 7.08086C7.70597 7.45593 7.19726 7.66665 6.66683 7.66665Z" fill="#0A0A0A"/>
</svg>
