<svg width="24" height="25" viewBox="0 0 24 25" fill="none" xmlns="http://www.w3.org/2000/svg">
<path d="M20 2.74854H8C6.9 2.74854 6 3.64854 6 4.74854V16.7485C6 17.8485 6.9 18.7485 8 18.7485H20C21.1 18.7485 22 17.8485 22 16.7485V4.74854C22 3.64854 21.1 2.74854 20 2.74854ZM20 16.7485H8V4.74854H20V16.7485ZM4 6.74854H2V20.7485C2 21.8485 2.9 22.7485 4 22.7485H18V20.7485H4V6.74854ZM16 12.7485V9.74854C16 9.19853 15.55 8.74854 15 8.74854H13V13.7485H15C15.55 13.7485 16 13.2985 16 12.7485ZM14 9.74854H15V12.7485H14V9.74854ZM18 11.7485H19V10.7485H18V9.74854H19V8.74854H17V13.7485H18V11.7485ZM10 11.7485H11C11.55 11.7485 12 11.2985 12 10.7485V9.74854C12 9.19853 11.55 8.74854 11 8.74854H9V13.7485H10V11.7485ZM10 9.74854H11V10.7485H10V9.74854Z" fill="#9E9E9E"/>
</svg>
