<svg width="20" height="21" viewBox="0 0 20 21" fill="none" xmlns="http://www.w3.org/2000/svg">
<path d="M18.3333 6.53367C18.3339 6.424 18.3129 6.31528 18.2715 6.21375C18.23 6.11222 18.1689 6.01987 18.0916 5.94201L14.5583 2.40867C14.4804 2.33144 14.3881 2.27033 14.2866 2.22886C14.185 2.18739 14.0763 2.16637 13.9666 2.16701C13.857 2.16637 13.7482 2.18739 13.6467 2.22886C13.5452 2.27033 13.4528 2.33144 13.375 2.40867L11.0166 4.76701L1.90831 13.8753C1.83107 13.9532 1.76997 14.0456 1.7285 14.1471C1.68703 14.2486 1.66601 14.3573 1.66664 14.467V18.0003C1.66664 18.2214 1.75444 18.4333 1.91072 18.5896C2.067 18.7459 2.27896 18.8337 2.49997 18.8337H6.03331C6.14991 18.84 6.26655 18.8218 6.37566 18.7801C6.48476 18.7385 6.5839 18.6744 6.66664 18.592L15.725 9.48367L18.0916 7.16701C18.1677 7.08624 18.2297 6.99328 18.275 6.89201C18.283 6.82558 18.283 6.75843 18.275 6.69201C18.2789 6.65321 18.2789 6.61413 18.275 6.57534L18.3333 6.53367ZM5.69164 17.167H3.33331V14.8087L11.6083 6.53367L13.9666 8.89201L5.69164 17.167ZM15.1416 7.71701L12.7833 5.35867L13.9666 4.18367L16.3166 6.53367L15.1416 7.71701Z" fill="#424242"/>
</svg>
