<svg width="16" height="16" viewBox="0 0 16 16" fill="none" xmlns="http://www.w3.org/2000/svg">
<path d="M12.6663 1.33334H3.33301C2.80257 1.33334 2.29387 1.54405 1.91879 1.91912C1.54372 2.2942 1.33301 2.8029 1.33301 3.33334V12.6667C1.33301 13.1971 1.54372 13.7058 1.91879 14.0809C2.29387 14.456 2.80257 14.6667 3.33301 14.6667H12.6663C12.776 14.6651 12.8853 14.654 12.993 14.6333L13.193 14.5867H13.2397H13.273L13.5197 14.4933L13.6063 14.4467C13.673 14.4067 13.7463 14.3733 13.813 14.3267C13.902 14.2612 13.9867 14.1899 14.0663 14.1133L14.113 14.0533C14.1785 13.987 14.2386 13.9157 14.293 13.84L14.353 13.7533C14.3996 13.6791 14.4397 13.6011 14.473 13.52C14.4913 13.488 14.5069 13.4546 14.5197 13.42C14.553 13.34 14.573 13.2533 14.5997 13.1667V13.0667C14.6375 12.9364 14.6598 12.8022 14.6663 12.6667V3.33334C14.6663 2.8029 14.4556 2.2942 14.0806 1.91912C13.7055 1.54405 13.1968 1.33334 12.6663 1.33334ZM3.33301 13.3333C3.1562 13.3333 2.98663 13.2631 2.8616 13.1381C2.73658 13.0131 2.66634 12.8435 2.66634 12.6667V9.79334L4.85967 7.59334C4.92165 7.53085 4.99538 7.48125 5.07662 7.44741C5.15786 7.41356 5.245 7.39614 5.33301 7.39614C5.42102 7.39614 5.50815 7.41356 5.58939 7.44741C5.67063 7.48125 5.74437 7.53085 5.80634 7.59334L11.5397 13.3333H3.33301ZM13.333 12.6667C13.3324 12.7489 13.3166 12.8302 13.2863 12.9067C13.2711 12.9392 13.2533 12.9704 13.233 13C13.2152 13.0282 13.1951 13.055 13.173 13.08L9.60634 9.51334L10.193 8.92667C10.255 8.86418 10.3287 8.81459 10.41 8.78074C10.4912 8.7469 10.5783 8.72947 10.6663 8.72947C10.7543 8.72947 10.8415 8.7469 10.9227 8.78074C11.004 8.81459 11.0777 8.86418 11.1397 8.92667L13.333 11.1267V12.6667ZM13.333 9.24L12.0797 8C11.6982 7.638 11.1923 7.43619 10.6663 7.43619C10.1404 7.43619 9.63453 7.638 9.25301 8L8.66634 8.58667L6.74634 6.66667C6.36482 6.30466 5.85894 6.10286 5.33301 6.10286C4.80708 6.10286 4.30119 6.30466 3.91967 6.66667L2.66634 7.90667V3.33334C2.66634 3.15652 2.73658 2.98696 2.8616 2.86193C2.98663 2.73691 3.1562 2.66667 3.33301 2.66667H12.6663C12.8432 2.66667 13.0127 2.73691 13.1377 2.86193C13.2628 2.98696 13.333 3.15652 13.333 3.33334V9.24ZM8.99967 4C8.80189 4 8.60855 4.05865 8.4441 4.16853C8.27966 4.27841 8.15148 4.43459 8.0758 4.61732C8.00011 4.80005 7.9803 5.00111 8.01889 5.19509C8.05747 5.38907 8.15272 5.56726 8.29257 5.70711C8.43242 5.84696 8.6106 5.9422 8.80458 5.98079C8.99857 6.01937 9.19963 5.99957 9.38236 5.92388C9.56508 5.84819 9.72126 5.72002 9.83114 5.55557C9.94103 5.39112 9.99967 5.19778 9.99967 5C9.99967 4.73479 9.89432 4.48043 9.70678 4.2929C9.51925 4.10536 9.26489 4 8.99967 4Z" fill="#424242"/>
</svg>
