<svg width="12" height="18" viewBox="0 0 12 18" fill="none" xmlns="http://www.w3.org/2000/svg">
<path d="M7.6665 2.33335V6.50002C7.6665 7.43335 7.97484 8.30002 8.49984 9.00002H3.49984C4.0415 8.28335 4.33317 7.41669 4.33317 6.50002V2.33335H7.6665ZM10.1665 0.666687H1.83317C1.37484 0.666687 0.999837 1.04169 0.999837 1.50002C0.999837 1.95835 1.37484 2.33335 1.83317 2.33335H2.6665V6.50002C2.6665 7.88335 1.54984 9.00002 0.166504 9.00002V10.6667H5.1415V16.5L5.97484 17.3334L6.80817 16.5V10.6667H11.8332V9.00002C10.4498 9.00002 9.33317 7.88335 9.33317 6.50002V2.33335H10.1665C10.6248 2.33335 10.9998 1.95835 10.9998 1.50002C10.9998 1.04169 10.6248 0.666687 10.1665 0.666687Z" fill="#424242"/>
</svg>
