<svg width="16" height="16" viewBox="0 0 16 16" fill="none" xmlns="http://www.w3.org/2000/svg">
<path d="M6.59791 5.01296C6.62 5.00324 6.64418 4.99922 6.66823 5.00128C6.69228 5.00334 6.71542 5.01142 6.73553 5.02476C6.75564 5.0381 6.77208 5.05628 6.78333 5.07764C6.79458 5.09899 6.80028 5.12283 6.79991 5.14696V6.29996C6.79991 6.43257 6.85259 6.55974 6.94636 6.65351C7.04013 6.74728 7.1673 6.79996 7.29991 6.79996C7.96691 6.79996 9.31291 6.80496 10.5999 7.62196C11.5839 8.24596 12.5899 9.38196 13.1949 11.498C12.1749 10.515 11.0099 9.98196 9.98991 9.69896C9.36296 9.5258 8.71864 9.42316 8.06891 9.39296C7.80296 9.38128 7.53658 9.38395 7.27091 9.40096H7.25791L7.25291 9.40196H7.25191L7.29991 9.89996L7.24991 9.40196C7.1265 9.41436 7.01209 9.4722 6.92893 9.56423C6.84577 9.65626 6.79979 9.77592 6.79991 9.89996V11.053C6.79991 11.161 6.68991 11.229 6.59791 11.187L2.61391 8.25396C2.60039 8.24393 2.58637 8.23458 2.57191 8.22596C2.55017 8.21289 2.53218 8.19442 2.51969 8.17234C2.50719 8.15026 2.50063 8.12533 2.50063 8.09996C2.50063 8.07459 2.50719 8.04965 2.51969 8.02758C2.53218 8.0055 2.55017 7.98703 2.57191 7.97396C2.58638 7.96534 2.60039 7.956 2.61391 7.94596L6.59791 5.01296ZM7.79991 10.386C7.86791 10.386 7.94291 10.389 8.02291 10.392C8.45691 10.412 9.05691 10.478 9.72291 10.663C11.0489 11.031 12.6189 11.865 13.6629 13.743C13.7194 13.8443 13.8093 13.9229 13.9174 13.9652C14.0254 14.0076 14.1448 14.011 14.2551 13.9749C14.3654 13.9389 14.4597 13.8656 14.5219 13.7676C14.5841 13.6697 14.6102 13.5531 14.5959 13.438C14.1319 9.72796 12.7099 7.77596 11.1359 6.77796C9.89091 5.98796 8.60891 5.83596 7.79991 5.80696V5.14696C7.80001 4.94103 7.74451 4.73889 7.63928 4.56187C7.53405 4.38486 7.383 4.23953 7.20204 4.14122C7.02109 4.04291 6.81696 3.99527 6.61119 4.00332C6.40542 4.01137 6.20563 4.07481 6.03291 4.18696L2.03891 7.12696C1.87379 7.23003 1.73762 7.37342 1.64321 7.54364C1.5488 7.71386 1.49927 7.90531 1.49927 8.09996C1.49927 8.29461 1.5488 8.48605 1.64321 8.65627C1.73762 8.82649 1.87379 8.96989 2.03891 9.07296L6.03291 12.013C6.20563 12.1251 6.40542 12.1886 6.61119 12.1966C6.81696 12.2047 7.02109 12.157 7.20204 12.0587C7.383 11.9604 7.53405 11.8151 7.63928 11.638C7.74451 11.461 7.80001 11.2589 7.79991 11.053V10.386Z" fill="#0A0A0A"/>
</svg>
