<svg width="41" height="37" viewBox="0 0 41 37" fill="none" xmlns="http://www.w3.org/2000/svg">
<g clip-path="url(#clip0_57_20364)">
<path d="M40.5004 14.4784V15.5453C40.2387 16.1313 40.0223 16.7424 39.6996 17.2956C39.4676 17.6942 39.0941 18.015 38.784 18.3708C38.7387 18.4044 38.8004 18.5141 38.859 18.6254C39.391 19.6396 39.4684 20.6866 39.0645 21.7558C38.4707 23.3278 37.0207 24.2605 35.166 24.2643C32.1457 24.2689 29.1262 24.2659 26.1059 24.2659H25.6254C25.6723 24.4076 25.691 24.4792 25.7191 24.5486C26.1551 25.6337 26.5902 26.7203 27.0301 27.8047C27.6238 29.2716 27.941 30.7895 27.9379 32.3707C27.934 34.5318 26.452 36.4224 24.2848 36.8575C23.4441 37.0259 22.5496 37.0153 21.6848 36.9756C20.5762 36.9253 19.7793 36.1686 19.5746 35.1071C19.3848 34.1226 19.2191 33.1335 19.0137 32.152C18.9621 31.9059 18.8457 31.6422 18.6793 31.4533C16.391 28.8517 14.091 26.2593 11.7832 23.6753C11.6738 23.5526 11.4629 23.4619 11.2949 23.4551C10.6754 23.4292 10.0543 23.4452 9.42852 23.4452C9.41836 23.3324 9.40743 23.2707 9.40743 23.2082C9.40665 16.3515 9.40821 9.49557 9.4004 2.63889C9.39961 2.39504 9.50196 2.31732 9.70977 2.24188C11.3652 1.6414 13.016 1.02645 14.6723 0.424454C14.8496 0.360444 15.0504 0.329201 15.2402 0.328439C16.4512 0.320057 17.6613 0.323867 18.8723 0.323867C23.4543 0.323867 28.0363 0.318533 32.6184 0.326153C35.2949 0.330725 37.1606 2.46744 36.6637 4.95315C36.5926 5.30597 36.4465 5.64507 36.3309 6.00398C37.4293 6.45967 38.2106 7.22093 38.6098 8.32282C39.0129 9.43385 38.8676 10.5121 38.3035 11.5469C39.152 11.995 39.7809 12.6046 40.1504 13.4383C40.298 13.772 40.3856 14.131 40.5004 14.4784Z" fill="#DE3E44"/>
<path d="M7.03828 0H0.5V25.604H7.03828V0Z" fill="#DE3E44"/>
</g>
<defs>
<clipPath id="clip0_57_20364">
<rect width="40" height="37" fill="white" transform="translate(0.5)"/>
</clipPath>
</defs>
</svg>
