<svg width="16" height="16" viewBox="0 0 16 16" fill="none" xmlns="http://www.w3.org/2000/svg">
<g clip-path="url(#clip0_290_51501)">
<path d="M6.956 14.534C7.021 15.47 7.908 16.193 8.864 15.954L9.125 15.889C9.36444 15.8331 9.58455 15.7141 9.7625 15.5444C9.94045 15.3747 10.0698 15.1605 10.137 14.924C10.357 14.108 10.67 12.412 10.199 10.414C10.335 10.434 10.484 10.451 10.642 10.465C11.355 10.53 12.311 10.536 13.158 10.254C13.676 10.081 14.152 9.574 14.358 8.982C14.4611 8.69543 14.4937 8.38822 14.453 8.08639C14.4123 7.78456 14.2994 7.49698 14.124 7.248C14.182 7.13 14.227 7.006 14.262 6.886C14.339 6.616 14.375 6.318 14.375 6.03C14.375 5.74 14.339 5.444 14.262 5.173C14.2228 5.03349 14.1691 4.89843 14.102 4.77C14.271 4.383 14.209 3.95 14.099 3.621C13.9863 3.29648 13.8215 2.9925 13.611 2.721C13.665 2.568 13.687 2.408 13.687 2.256C13.6827 1.93527 13.5956 1.6211 13.434 1.344C13.1 0.756999 12.437 0.279999 11.5 0.279999H8C7.395 0.279999 6.93 0.359999 6.534 0.496999C6.19346 0.621684 5.86807 0.784379 5.564 0.981999L5.516 1.011C5.012 1.319 4.517 1.621 3.448 1.734C2.682 1.815 2 2.434 2 3.279V7.279C2 8.13 2.685 8.712 3.357 8.895C4.206 9.127 4.931 9.682 5.489 10.305C6.049 10.931 6.403 11.585 6.528 11.943C6.727 12.518 6.884 13.483 6.956 14.534Z" fill="#5A078B"/>
</g>
<defs>
<clipPath id="clip0_290_51501">
<rect width="16" height="16" fill="white"/>
</clipPath>
</defs>
</svg>
