<svg width="20" height="20" viewBox="0 0 20 20" fill="none" xmlns="http://www.w3.org/2000/svg">
<path d="M18.314 14.4275L16.4165 12.4842C16.0083 12.0962 15.4935 11.8391 14.9381 11.746C14.3827 11.6529 13.8122 11.728 13.2998 11.9617L12.4748 11.1367C13.447 9.83768 13.891 8.21863 13.7174 6.60544C13.5438 4.99225 12.7656 3.50471 11.5393 2.44227C10.313 1.37983 8.72982 0.821385 7.10835 0.879343C5.48689 0.937302 3.94758 1.60737 2.8003 2.75465C1.65302 3.90193 0.982956 5.44124 0.924997 7.0627C0.867039 8.68416 1.42549 10.2674 2.48793 11.4937C3.55037 12.7199 5.03791 13.4982 6.65109 13.6718C8.26428 13.8453 9.88334 13.4013 11.1823 12.4292L11.9982 13.245C11.737 13.758 11.6434 14.34 11.7306 14.909C11.8177 15.4781 12.0812 16.0054 12.484 16.4167L14.4273 18.36C14.943 18.875 15.6419 19.1643 16.3707 19.1643C17.0994 19.1643 17.7984 18.875 18.314 18.36C18.5759 18.1039 18.784 17.798 18.9261 17.4604C19.0682 17.1227 19.1414 16.7601 19.1414 16.3938C19.1414 16.0274 19.0682 15.6648 18.9261 15.3271C18.784 14.9895 18.5759 14.6836 18.314 14.4275ZM10.5407 10.5408C9.89921 11.1807 9.08252 11.616 8.19376 11.792C7.30499 11.9679 6.38403 11.8764 5.54721 11.5292C4.71039 11.1819 3.99526 10.5945 3.49215 9.841C2.98904 9.08753 2.72052 8.20184 2.72052 7.29584C2.72052 6.38984 2.98904 5.50416 3.49215 4.75068C3.99526 3.99721 4.71039 3.40974 5.54721 3.0625C6.38403 2.71526 7.30499 2.62382 8.19376 2.79973C9.08252 2.97564 9.89921 3.41101 10.5407 4.05084C10.9675 4.47659 11.3061 4.98237 11.5372 5.5392C11.7683 6.09603 11.8872 6.69297 11.8872 7.29584C11.8872 7.89871 11.7683 8.49565 11.5372 9.05248C11.3061 9.60931 10.9675 10.1151 10.5407 10.5408ZM17.0215 17.0217C16.9363 17.1076 16.8349 17.1758 16.7232 17.2223C16.6115 17.2689 16.4917 17.2928 16.3707 17.2928C16.2497 17.2928 16.1298 17.2689 16.0181 17.2223C15.9064 17.1758 15.805 17.1076 15.7198 17.0217L13.7765 15.0783C13.6906 14.9931 13.6224 14.8917 13.5758 14.78C13.5293 14.6683 13.5053 14.5485 13.5053 14.4275C13.5053 14.3065 13.5293 14.1867 13.5758 14.075C13.6224 13.9633 13.6906 13.8619 13.7765 13.7767C13.8617 13.6908 13.9631 13.6226 14.0748 13.576C14.1865 13.5295 14.3063 13.5055 14.4273 13.5055C14.5483 13.5055 14.6682 13.5295 14.7799 13.576C14.8916 13.6226 14.9929 13.6908 15.0782 13.7767L17.0215 15.72C17.1074 15.8052 17.1756 15.9066 17.2221 16.0183C17.2687 16.13 17.2926 16.2498 17.2926 16.3708C17.2926 16.4919 17.2687 16.6117 17.2221 16.7234C17.1756 16.8351 17.1074 16.9365 17.0215 17.0217Z" fill="#424242"/>
</svg>
