<svg width="18" height="18" viewBox="0 0 18 18" fill="none" xmlns="http://www.w3.org/2000/svg">
<path d="M15.2549 6.9901L4.75494 1.7401C4.34056 1.53385 3.87265 1.46043 3.41502 1.52983C2.95738 1.59924 2.53229 1.8081 2.19769 2.12793C1.86309 2.44777 1.63528 2.86301 1.54531 3.31705C1.45534 3.7711 1.50759 4.24184 1.69494 4.6651L3.49494 8.6926C3.53578 8.78997 3.55682 8.8945 3.55682 9.0001C3.55682 9.10569 3.53578 9.21022 3.49494 9.3076L1.69494 13.3351C1.54247 13.6776 1.47801 14.0528 1.50742 14.4266C1.53684 14.8004 1.6592 15.1609 1.86338 15.4754C2.06756 15.7898 2.34709 16.0483 2.67656 16.2273C3.00603 16.4062 3.375 16.5 3.74994 16.5001C4.10111 16.4966 4.44706 16.4146 4.76244 16.2601L15.2624 11.0101C15.6349 10.8227 15.948 10.5356 16.1667 10.1807C16.3855 9.82574 16.5013 9.41702 16.5013 9.0001C16.5013 8.58318 16.3855 8.17446 16.1667 7.81954C15.948 7.46462 15.6349 7.17746 15.2624 6.9901H15.2549ZM14.5874 9.6676L4.08744 14.9176C3.94956 14.9838 3.79474 15.0063 3.64373 14.982C3.49272 14.9577 3.35275 14.8878 3.24258 14.7817C3.1324 14.6756 3.0573 14.5384 3.02734 14.3884C2.99738 14.2384 3.01399 14.0829 3.07494 13.9426L4.86744 9.9151C4.89065 9.86132 4.91068 9.80622 4.92744 9.7501H10.0949C10.2939 9.7501 10.4846 9.67108 10.6253 9.53043C10.7659 9.38977 10.8449 9.19901 10.8449 9.0001C10.8449 8.80118 10.7659 8.61042 10.6253 8.46977C10.4846 8.32911 10.2939 8.2501 10.0949 8.2501H4.92744C4.91068 8.19397 4.89065 8.13888 4.86744 8.0851L3.07494 4.0576C3.01399 3.91732 2.99738 3.76176 3.02734 3.61177C3.0573 3.46179 3.1324 3.32455 3.24258 3.21846C3.35275 3.11237 3.49272 3.04249 3.64373 3.01821C3.79474 2.99393 3.94956 3.01639 4.08744 3.0826L14.5874 8.3326C14.7103 8.39553 14.8134 8.49116 14.8854 8.60893C14.9574 8.7267 14.9955 8.86206 14.9955 9.0001C14.9955 9.13813 14.9574 9.27349 14.8854 9.39126C14.8134 9.50904 14.7103 9.60466 14.5874 9.6676Z" fill="white"/>
</svg>
