<svg width="18" height="19" viewBox="0 0 18 19" fill="none" xmlns="http://www.w3.org/2000/svg">
<path d="M16.0575 6.97961C16.0575 6.97961 16.0575 6.97961 16.0575 6.94211C15.5291 5.49927 14.5702 4.25357 13.3106 3.3735C12.0511 2.49344 10.5516 2.02148 9.01503 2.02148C7.47846 2.02148 5.97898 2.49344 4.71941 3.3735C3.45984 4.25357 2.50097 5.49927 1.97252 6.94211C1.97252 6.94211 1.97252 6.94211 1.97252 6.97961C1.38237 8.60778 1.38237 10.3914 1.97252 12.0196C1.97252 12.0196 1.97252 12.0196 1.97252 12.0571C2.50097 13.4999 3.45984 14.7456 4.71941 15.6257C5.97898 16.5058 7.47846 16.9777 9.01503 16.9777C10.5516 16.9777 12.0511 16.5058 13.3106 15.6257C14.5702 14.7456 15.5291 13.4999 16.0575 12.0571C16.0575 12.0571 16.0575 12.0571 16.0575 12.0196C16.6477 10.3914 16.6477 8.60778 16.0575 6.97961ZM3.19502 10.9996C2.93495 10.0165 2.93495 8.9827 3.19502 7.99961H4.59002C4.47005 8.99601 4.47005 10.0032 4.59002 10.9996H3.19502ZM3.81002 12.4996H4.86002C5.03606 13.1685 5.28768 13.8152 5.61002 14.4271C4.8745 13.9261 4.25965 13.2677 3.81002 12.4996ZM4.86002 6.49961H3.81002C4.25318 5.73392 4.86017 5.07571 5.58752 4.57211C5.27294 5.18504 5.02888 5.83167 4.86002 6.49961ZM8.25002 15.2746C7.32885 14.5986 6.68189 13.6135 6.42752 12.4996H8.25002V15.2746ZM8.25002 10.9996H6.10502C5.96507 10.0045 5.96507 8.99471 6.10502 7.99961H8.25002V10.9996ZM8.25002 6.49961H6.42752C6.68189 5.38568 7.32885 4.40059 8.25002 3.72461V6.49961ZM14.19 6.49961H13.14C12.964 5.83072 12.7124 5.18406 12.39 4.57211C13.1256 5.07316 13.7404 5.73156 14.19 6.49961ZM9.75002 3.72461C10.6712 4.40059 11.3182 5.38568 11.5725 6.49961H9.75002V3.72461ZM9.75002 15.2746V12.4996H11.5725C11.3182 13.6135 10.6712 14.5986 9.75002 15.2746ZM11.895 10.9996H9.75002V7.99961H11.895C12.035 8.99471 12.035 10.0045 11.895 10.9996ZM12.4125 14.4271C12.7349 13.8152 12.9865 13.1685 13.1625 12.4996H14.2125C13.7629 13.2677 13.1481 13.9261 12.4125 14.4271ZM14.805 10.9996H13.41C13.471 10.5019 13.5011 10.001 13.5 9.49961C13.5008 8.99823 13.4708 8.49728 13.41 7.99961H14.805C15.0651 8.9827 15.0651 10.0165 14.805 10.9996Z" fill="#424242"/>
</svg>
