<svg width="18" height="19" viewBox="0 0 18 19" fill="none" xmlns="http://www.w3.org/2000/svg">
<path d="M7.5 14C7.69891 14 7.88968 13.921 8.03033 13.7803C8.17098 13.6397 8.25 13.4489 8.25 13.25V8.75C8.25 8.55109 8.17098 8.36032 8.03033 8.21967C7.88968 8.07902 7.69891 8 7.5 8C7.30109 8 7.11032 8.07902 6.96967 8.21967C6.82902 8.36032 6.75 8.55109 6.75 8.75V13.25C6.75 13.4489 6.82902 13.6397 6.96967 13.7803C7.11032 13.921 7.30109 14 7.5 14ZM15 5H12V4.25C12 3.65326 11.7629 3.08097 11.341 2.65901C10.919 2.23705 10.3467 2 9.75 2H8.25C7.65326 2 7.08097 2.23705 6.65901 2.65901C6.23705 3.08097 6 3.65326 6 4.25V5H3C2.80109 5 2.61032 5.07902 2.46967 5.21967C2.32902 5.36032 2.25 5.55109 2.25 5.75C2.25 5.94891 2.32902 6.13968 2.46967 6.28033C2.61032 6.42098 2.80109 6.5 3 6.5H3.75V14.75C3.75 15.3467 3.98705 15.919 4.40901 16.341C4.83097 16.7629 5.40326 17 6 17H12C12.5967 17 13.169 16.7629 13.591 16.341C14.0129 15.919 14.25 15.3467 14.25 14.75V6.5H15C15.1989 6.5 15.3897 6.42098 15.5303 6.28033C15.671 6.13968 15.75 5.94891 15.75 5.75C15.75 5.55109 15.671 5.36032 15.5303 5.21967C15.3897 5.07902 15.1989 5 15 5ZM7.5 4.25C7.5 4.05109 7.57902 3.86032 7.71967 3.71967C7.86032 3.57902 8.05109 3.5 8.25 3.5H9.75C9.94891 3.5 10.1397 3.57902 10.2803 3.71967C10.421 3.86032 10.5 4.05109 10.5 4.25V5H7.5V4.25ZM12.75 14.75C12.75 14.9489 12.671 15.1397 12.5303 15.2803C12.3897 15.421 12.1989 15.5 12 15.5H6C5.80109 15.5 5.61032 15.421 5.46967 15.2803C5.32902 15.1397 5.25 14.9489 5.25 14.75V6.5H12.75V14.75ZM10.5 14C10.6989 14 10.8897 13.921 11.0303 13.7803C11.171 13.6397 11.25 13.4489 11.25 13.25V8.75C11.25 8.55109 11.171 8.36032 11.0303 8.21967C10.8897 8.07902 10.6989 8 10.5 8C10.3011 8 10.1103 8.07902 9.96967 8.21967C9.82902 8.36032 9.75 8.55109 9.75 8.75V13.25C9.75 13.4489 9.82902 13.6397 9.96967 13.7803C10.1103 13.921 10.3011 14 10.5 14Z" fill="#424242"/>
</svg>
