<svg width="18" height="19" viewBox="0 0 18 19" fill="none" xmlns="http://www.w3.org/2000/svg">
<path d="M15.75 11H15V5.75C15 5.15326 14.7629 4.58097 14.341 4.15901C13.919 3.73705 13.3467 3.5 12.75 3.5H5.25C4.65326 3.5 4.08097 3.73705 3.65901 4.15901C3.23705 4.58097 3 5.15326 3 5.75V11H2.25C2.05109 11 1.86032 11.079 1.71967 11.2197C1.57902 11.3603 1.5 11.5511 1.5 11.75V13.25C1.5 13.8467 1.73705 14.419 2.15901 14.841C2.58097 15.2629 3.15326 15.5 3.75 15.5H14.25C14.8467 15.5 15.419 15.2629 15.841 14.841C16.2629 14.419 16.5 13.8467 16.5 13.25V11.75C16.5 11.5511 16.421 11.3603 16.2803 11.2197C16.1397 11.079 15.9489 11 15.75 11ZM4.5 5.75C4.5 5.55109 4.57902 5.36032 4.71967 5.21967C4.86032 5.07902 5.05109 5 5.25 5H12.75C12.9489 5 13.1397 5.07902 13.2803 5.21967C13.421 5.36032 13.5 5.55109 13.5 5.75V11H4.5V5.75ZM15 13.25C15 13.4489 14.921 13.6397 14.7803 13.7803C14.6397 13.921 14.4489 14 14.25 14H3.75C3.55109 14 3.36032 13.921 3.21967 13.7803C3.07902 13.6397 3 13.4489 3 13.25V12.5H15V13.25Z" fill="#424242"/>
</svg>
