<svg width="18" height="19" viewBox="0 0 18 19" fill="none" xmlns="http://www.w3.org/2000/svg">
<path d="M14.7225 3.23724C14.6354 3.16676 14.5336 3.1167 14.4245 3.09074C14.3155 3.06478 14.2021 3.06359 14.0925 3.08724C13.2911 3.2552 12.4638 3.25734 11.6615 3.09353C10.8592 2.92972 10.0989 2.60343 9.4275 2.13474C9.30196 2.04765 9.1528 2.00098 9 2.00098C8.8472 2.00098 8.69805 2.04765 8.5725 2.13474C7.90107 2.60343 7.14081 2.92972 6.33853 3.09353C5.53625 3.25734 4.70893 3.2552 3.9075 3.08724C3.79796 3.06359 3.6845 3.06478 3.57548 3.09074C3.46646 3.1167 3.36464 3.16676 3.2775 3.23724C3.19049 3.30783 3.1204 3.39702 3.07237 3.49825C3.02435 3.59949 2.99962 3.7102 3 3.82224V9.40974C2.99934 10.4851 3.25558 11.545 3.74741 12.5012C4.23923 13.4575 4.95239 14.2824 5.8275 14.9072L8.565 16.8572C8.69203 16.9477 8.84408 16.9963 9 16.9963C9.15593 16.9963 9.30798 16.9477 9.435 16.8572L12.1725 14.9072C13.0476 14.2824 13.7608 13.4575 14.2526 12.5012C14.7444 11.545 15.0007 10.4851 15 9.40974V3.82224C15.0004 3.7102 14.9757 3.59949 14.9276 3.49825C14.8796 3.39702 14.8095 3.30783 14.7225 3.23724ZM13.5 9.40974C13.5006 10.2458 13.3015 11.0699 12.9192 11.8135C12.537 12.5571 11.9827 13.1986 11.3025 13.6847L9 15.3272L6.6975 13.6847C6.01728 13.1986 5.46299 12.5571 5.08077 11.8135C4.69854 11.0699 4.49943 10.2458 4.5 9.40974V4.68474C6.07233 4.81932 7.64703 4.45451 9 3.64224C10.353 4.45451 11.9277 4.81932 13.5 4.68474V9.40974ZM10.155 7.69224L8.1375 9.71724L7.47 9.04224C7.32878 8.90102 7.13723 8.82167 6.9375 8.82167C6.73778 8.82167 6.54623 8.90102 6.405 9.04224C6.26378 9.18347 6.18444 9.37502 6.18444 9.57474C6.18444 9.77447 6.26378 9.96602 6.405 10.1072L7.605 11.3072C7.67473 11.3775 7.75768 11.4333 7.84907 11.4714C7.94047 11.5095 8.0385 11.5291 8.1375 11.5291C8.23651 11.5291 8.33454 11.5095 8.42594 11.4714C8.51733 11.4333 8.60028 11.3775 8.67 11.3072L11.25 8.74974C11.3912 8.60852 11.4706 8.41697 11.4706 8.21724C11.4706 8.01752 11.3912 7.82597 11.25 7.68474C11.1088 7.54352 10.9172 7.46417 10.7175 7.46417C10.5178 7.46417 10.3262 7.54352 10.185 7.68474L10.155 7.69224Z" fill="#424242"/>
</svg>
