<svg width="18" height="19" viewBox="0 0 18 19" fill="none" xmlns="http://www.w3.org/2000/svg">
<path d="M12.75 7.25H5.25002C5.05111 7.25 4.86034 7.32902 4.71969 7.46967C4.57904 7.61032 4.50002 7.80109 4.50002 8C4.50002 8.19891 4.57904 8.38968 4.71969 8.53033C4.86034 8.67098 5.05111 8.75 5.25002 8.75H12.75C12.9489 8.75 13.1397 8.67098 13.2804 8.53033C13.421 8.38968 13.5 8.19891 13.5 8C13.5 7.80109 13.421 7.61032 13.2804 7.46967C13.1397 7.32902 12.9489 7.25 12.75 7.25ZM9.75002 10.25H5.25002C5.05111 10.25 4.86034 10.329 4.71969 10.4697C4.57904 10.6103 4.50002 10.8011 4.50002 11C4.50002 11.1989 4.57904 11.3897 4.71969 11.5303C4.86034 11.671 5.05111 11.75 5.25002 11.75H9.75002C9.94893 11.75 10.1397 11.671 10.2804 11.5303C10.421 11.3897 10.5 11.1989 10.5 11C10.5 10.8011 10.421 10.6103 10.2804 10.4697C10.1397 10.329 9.94893 10.25 9.75002 10.25ZM9.00002 2C8.01511 2 7.03984 2.19399 6.1299 2.5709C5.21995 2.94781 4.39316 3.50026 3.69672 4.1967C2.2902 5.60322 1.50002 7.51088 1.50002 9.5C1.49346 11.2319 2.09312 12.9114 3.19502 14.2475L1.69502 15.7475C1.59095 15.853 1.52046 15.9869 1.49243 16.1324C1.4644 16.2779 1.48009 16.4284 1.53752 16.565C1.59981 16.6999 1.7008 16.8133 1.82766 16.8908C1.95451 16.9682 2.10152 17.0063 2.25002 17H9.00002C10.9891 17 12.8968 16.2098 14.3033 14.8033C15.7098 13.3968 16.5 11.4891 16.5 9.5C16.5 7.51088 15.7098 5.60322 14.3033 4.1967C12.8968 2.79018 10.9891 2 9.00002 2ZM9.00002 15.5H4.05752L4.75502 14.8025C4.89471 14.662 4.97312 14.4719 4.97312 14.2738C4.97312 14.0756 4.89471 13.8855 4.75502 13.745C3.77296 12.764 3.1614 11.4729 3.02454 10.0916C2.88768 8.71029 3.23398 7.32425 4.00444 6.16964C4.77491 5.01503 5.92186 4.16327 7.24991 3.75948C8.57795 3.35569 10.0049 3.42485 11.2877 3.95519C12.5705 4.48552 13.6297 5.44421 14.2849 6.66792C14.94 7.89163 15.1507 9.30466 14.8809 10.6663C14.6111 12.0279 13.8775 13.2538 12.8052 14.1352C11.7328 15.0166 10.3881 15.4989 9.00002 15.5Z" fill="#424242"/>
</svg>
