<svg width="18" height="19" viewBox="0 0 18 19" fill="none" xmlns="http://www.w3.org/2000/svg">
<path d="M6.75 8H7.5C7.69891 8 7.88968 7.92098 8.03033 7.78033C8.17098 7.63968 8.25 7.44891 8.25 7.25C8.25 7.05109 8.17098 6.86032 8.03033 6.71967C7.88968 6.57902 7.69891 6.5 7.5 6.5H6.75C6.55109 6.5 6.36032 6.57902 6.21967 6.71967C6.07902 6.86032 6 7.05109 6 7.25C6 7.44891 6.07902 7.63968 6.21967 7.78033C6.36032 7.92098 6.55109 8 6.75 8ZM6.75 9.5C6.55109 9.5 6.36032 9.57902 6.21967 9.71967C6.07902 9.86032 6 10.0511 6 10.25C6 10.4489 6.07902 10.6397 6.21967 10.7803C6.36032 10.921 6.55109 11 6.75 11H11.25C11.4489 11 11.6397 10.921 11.7803 10.7803C11.921 10.6397 12 10.4489 12 10.25C12 10.0511 11.921 9.86032 11.7803 9.71967C11.6397 9.57902 11.4489 9.5 11.25 9.5H6.75ZM15 7.205C14.9922 7.1361 14.9771 7.06822 14.955 7.0025V6.935C14.9189 6.85788 14.8708 6.787 14.8125 6.725L10.3125 2.225C10.2505 2.16666 10.1796 2.11856 10.1025 2.0825C10.0801 2.07932 10.0574 2.07932 10.035 2.0825C9.95881 2.03881 9.87467 2.01076 9.7875 2H5.25C4.65326 2 4.08097 2.23705 3.65901 2.65901C3.23705 3.08097 3 3.65326 3 4.25V14.75C3 15.3467 3.23705 15.919 3.65901 16.341C4.08097 16.7629 4.65326 17 5.25 17H12.75C13.3467 17 13.919 16.7629 14.341 16.341C14.7629 15.919 15 15.3467 15 14.75V7.25C15 7.25 15 7.25 15 7.205ZM10.5 4.5575L12.4425 6.5H11.25C11.0511 6.5 10.8603 6.42098 10.7197 6.28033C10.579 6.13968 10.5 5.94891 10.5 5.75V4.5575ZM13.5 14.75C13.5 14.9489 13.421 15.1397 13.2803 15.2803C13.1397 15.421 12.9489 15.5 12.75 15.5H5.25C5.05109 15.5 4.86032 15.421 4.71967 15.2803C4.57902 15.1397 4.5 14.9489 4.5 14.75V4.25C4.5 4.05109 4.57902 3.86032 4.71967 3.71967C4.86032 3.57902 5.05109 3.5 5.25 3.5H9V5.75C9 6.34674 9.23705 6.91903 9.65901 7.34099C10.081 7.76295 10.6533 8 11.25 8H13.5V14.75ZM11.25 12.5H6.75C6.55109 12.5 6.36032 12.579 6.21967 12.7197C6.07902 12.8603 6 13.0511 6 13.25C6 13.4489 6.07902 13.6397 6.21967 13.7803C6.36032 13.921 6.55109 14 6.75 14H11.25C11.4489 14 11.6397 13.921 11.7803 13.7803C11.921 13.6397 12 13.4489 12 13.25C12 13.0511 11.921 12.8603 11.7803 12.7197C11.6397 12.579 11.4489 12.5 11.25 12.5Z" fill="#424242"/>
</svg>
