<svg width="16" height="16" viewBox="0 0 16 16" fill="none" xmlns="http://www.w3.org/2000/svg">
<path d="M7.33324 7.33325H11.3332C11.5101 7.33325 11.6796 7.26301 11.8046 7.13799C11.9297 7.01297 11.9999 6.8434 11.9999 6.66659C11.9999 6.48977 11.9297 6.32021 11.8046 6.19518C11.6796 6.07016 11.5101 5.99992 11.3332 5.99992H7.33324C7.15643 5.99992 6.98686 6.07016 6.86184 6.19518C6.73682 6.32021 6.66658 6.48977 6.66658 6.66659C6.66658 6.8434 6.73682 7.01297 6.86184 7.13799C6.98686 7.26301 7.15643 7.33325 7.33324 7.33325ZM4.66658 5.99992C4.53472 5.99992 4.40583 6.03902 4.2962 6.11227C4.18656 6.18553 4.10112 6.28965 4.05066 6.41146C4.0002 6.53328 3.987 6.66733 4.01272 6.79665C4.03844 6.92597 4.10194 7.04475 4.19517 7.13799C4.28841 7.23123 4.4072 7.29472 4.53652 7.32044C4.66584 7.34617 4.79988 7.33296 4.9217 7.28251C5.04352 7.23205 5.14764 7.1466 5.22089 7.03697C5.29414 6.92733 5.33324 6.79844 5.33324 6.66659C5.33324 6.48977 5.26301 6.32021 5.13798 6.19518C5.01296 6.07016 4.84339 5.99992 4.66658 5.99992ZM4.66658 8.66659C4.53472 8.66659 4.40583 8.70568 4.2962 8.77894C4.18656 8.85219 4.10112 8.95631 4.05066 9.07813C4.0002 9.19995 3.987 9.33399 4.01272 9.46331C4.03844 9.59263 4.10194 9.71142 4.19517 9.80466C4.28841 9.89789 4.4072 9.96139 4.53652 9.98711C4.66584 10.0128 4.79988 9.99963 4.9217 9.94917C5.04352 9.89871 5.14764 9.81327 5.22089 9.70363C5.29414 9.594 5.33324 9.46511 5.33324 9.33325C5.33324 9.15644 5.26301 8.98687 5.13798 8.86185C5.01296 8.73682 4.84339 8.66659 4.66658 8.66659ZM7.99991 1.33325C7.12443 1.33325 6.25752 1.50569 5.44869 1.84072C4.63985 2.17575 3.90492 2.66682 3.28587 3.28587C2.03562 4.53612 1.33324 6.23181 1.33324 7.99992C1.32742 9.53934 1.86044 11.0323 2.83991 12.2199L1.50658 13.5533C1.41407 13.647 1.35141 13.766 1.32649 13.8954C1.30158 14.0247 1.31552 14.1585 1.36658 14.2799C1.42195 14.3999 1.51171 14.5007 1.62448 14.5695C1.73724 14.6384 1.86791 14.6721 1.99991 14.6666H7.99991C9.76802 14.6666 11.4637 13.9642 12.714 12.714C13.9642 11.4637 14.6666 9.76803 14.6666 7.99992C14.6666 6.23181 13.9642 4.53612 12.714 3.28587C11.4637 2.03563 9.76802 1.33325 7.99991 1.33325ZM7.99991 13.3333H3.60658L4.22658 12.7133C4.28957 12.6515 4.33968 12.5779 4.37401 12.4966C4.40834 12.4154 4.42621 12.3281 4.42658 12.2399C4.42407 12.0641 4.35219 11.8963 4.22658 11.7733C3.35363 10.9013 2.81003 9.75361 2.68837 8.52578C2.56672 7.29795 2.87454 6.06592 3.5594 5.0396C4.24425 4.01328 5.26377 3.25616 6.44425 2.89723C7.62474 2.53831 8.89315 2.59979 10.0334 3.07119C11.1736 3.5426 12.1151 4.39477 12.6975 5.48251C13.2799 6.57026 13.4672 7.82628 13.2273 9.03659C12.9875 10.2469 12.3354 11.3366 11.3823 12.1201C10.4291 12.9035 9.23375 13.3323 7.99991 13.3333ZM11.3332 8.66659H7.33324C7.15643 8.66659 6.98686 8.73682 6.86184 8.86185C6.73682 8.98687 6.66658 9.15644 6.66658 9.33325C6.66658 9.51006 6.73682 9.67963 6.86184 9.80466C6.98686 9.92968 7.15643 9.99992 7.33324 9.99992H11.3332C11.5101 9.99992 11.6796 9.92968 11.8046 9.80466C11.9297 9.67963 11.9999 9.51006 11.9999 9.33325C11.9999 9.15644 11.9297 8.98687 11.8046 8.86185C11.6796 8.73682 11.5101 8.66659 11.3332 8.66659Z" fill="#0A0A0A"/>
</svg>
