<svg width="20" height="20" viewBox="0 0 20 20" fill="none" xmlns="http://www.w3.org/2000/svg">
<path d="M5.83332 5.83317C5.66851 5.83317 5.50739 5.88204 5.37035 5.97361C5.23331 6.06518 5.1265 6.19533 5.06342 6.3476C5.00035 6.49987 4.98385 6.66743 5.016 6.82908C5.04816 6.99073 5.12752 7.13922 5.24407 7.25576C5.36061 7.3723 5.5091 7.45167 5.67075 7.48382C5.8324 7.51598 5.99995 7.49948 6.15223 7.4364C6.3045 7.37333 6.43465 7.26652 6.52621 7.12948C6.61778 6.99244 6.66666 6.83132 6.66666 6.6665C6.66666 6.44549 6.57886 6.23353 6.42258 6.07725C6.2663 5.92097 6.05434 5.83317 5.83332 5.83317ZM5.83332 9.1665C5.66851 9.1665 5.50739 9.21538 5.37035 9.30695C5.23331 9.39851 5.1265 9.52866 5.06342 9.68093C5.00035 9.83321 4.98385 10.0008 5.016 10.1624C5.04816 10.3241 5.12752 10.4725 5.24407 10.5891C5.36061 10.7056 5.5091 10.785 5.67075 10.8172C5.8324 10.8493 5.99995 10.8328 6.15223 10.7697C6.3045 10.7067 6.43465 10.5999 6.52621 10.4628C6.61778 10.3258 6.66666 10.1647 6.66666 9.99984C6.66666 9.77882 6.57886 9.56686 6.42258 9.41058C6.2663 9.2543 6.05434 9.1665 5.83332 9.1665ZM14.1667 9.1665H9.16666C8.94564 9.1665 8.73368 9.2543 8.5774 9.41058C8.42112 9.56686 8.33332 9.77882 8.33332 9.99984C8.33332 10.2209 8.42112 10.4328 8.5774 10.5891C8.73368 10.7454 8.94564 10.8332 9.16666 10.8332H14.1667C14.3877 10.8332 14.5996 10.7454 14.7559 10.5891C14.9122 10.4328 15 10.2209 15 9.99984C15 9.77882 14.9122 9.56686 14.7559 9.41058C14.5996 9.2543 14.3877 9.1665 14.1667 9.1665ZM14.1667 5.83317H9.16666C8.94564 5.83317 8.73368 5.92097 8.5774 6.07725C8.42112 6.23353 8.33332 6.44549 8.33332 6.6665C8.33332 6.88752 8.42112 7.09948 8.5774 7.25576C8.73368 7.41204 8.94564 7.49984 9.16666 7.49984H14.1667C14.3877 7.49984 14.5996 7.41204 14.7559 7.25576C14.9122 7.09948 15 6.88752 15 6.6665C15 6.44549 14.9122 6.23353 14.7559 6.07725C14.5996 5.92097 14.3877 5.83317 14.1667 5.83317ZM15.8333 1.6665H4.16666C3.50362 1.6665 2.86773 1.9299 2.39889 2.39874C1.93005 2.86758 1.66666 3.50346 1.66666 4.1665V12.4998C1.66666 13.1629 1.93005 13.7988 2.39889 14.2676C2.86773 14.7364 3.50362 14.9998 4.16666 14.9998H13.825L16.9083 18.0915C16.9862 18.1687 17.0785 18.2298 17.1801 18.2713C17.2816 18.3128 17.3903 18.3338 17.5 18.3332C17.6093 18.336 17.7178 18.3132 17.8167 18.2665C17.9688 18.204 18.0991 18.0978 18.1911 17.9614C18.283 17.825 18.3325 17.6644 18.3333 17.4998V4.1665C18.3333 3.50346 18.0699 2.86758 17.6011 2.39874C17.1322 1.9299 16.4964 1.6665 15.8333 1.6665ZM16.6667 15.4915L14.7583 13.5748C14.6805 13.4976 14.5881 13.4365 14.4866 13.395C14.385 13.3536 14.2763 13.3325 14.1667 13.3332H4.16666C3.94564 13.3332 3.73368 13.2454 3.5774 13.0891C3.42112 12.9328 3.33332 12.7209 3.33332 12.4998V4.1665C3.33332 3.94549 3.42112 3.73353 3.5774 3.57725C3.73368 3.42097 3.94564 3.33317 4.16666 3.33317H15.8333C16.0543 3.33317 16.2663 3.42097 16.4226 3.57725C16.5789 3.73353 16.6667 3.94549 16.6667 4.1665V15.4915Z" fill="#424242"/>
</svg>
