<svg width="14" height="14" viewBox="0 0 14 14" fill="none" xmlns="http://www.w3.org/2000/svg">
<path d="M8.87301 7.18659C9.29499 6.73341 9.53272 6.1391 9.53967 5.51992C9.53967 4.85157 9.27418 4.2106 8.80158 3.73801C8.32899 3.26542 7.68802 2.99992 7.01967 2.99992C6.35133 2.99992 5.71036 3.26542 5.23777 3.73801C4.76517 4.2106 4.49967 4.85157 4.49967 5.51992C4.50663 6.1391 4.74436 6.73341 5.16634 7.18659C4.57878 7.47917 4.07315 7.91321 3.69495 8.44968C3.31675 8.98614 3.07783 9.60821 2.99967 10.2599C2.98023 10.4367 3.03181 10.614 3.14308 10.7528C3.25435 10.8916 3.4162 10.9805 3.59301 10.9999C3.76982 11.0194 3.94711 10.9678 4.08589 10.8565C4.22467 10.7452 4.31356 10.5834 4.33301 10.4066C4.41256 9.76068 4.72557 9.16616 5.21307 8.73502C5.70056 8.30389 6.32889 8.0659 6.97967 8.0659C7.63046 8.0659 8.25879 8.30389 8.74628 8.73502C9.23378 9.16616 9.54679 9.76068 9.62634 10.4066C9.64488 10.5775 9.72875 10.7347 9.86044 10.8453C9.99212 10.9558 10.1614 11.0112 10.333 10.9999H10.4063C10.5811 10.9798 10.7408 10.8914 10.8507 10.7541C10.9606 10.6167 11.0118 10.4415 10.993 10.2666C10.9206 9.61831 10.6893 8.99794 10.3194 8.46062C9.94957 7.92329 9.45272 7.48565 8.87301 7.18659ZM6.99967 6.70659C6.76497 6.70659 6.53554 6.63699 6.3404 6.5066C6.14525 6.3762 5.99315 6.19087 5.90334 5.97404C5.81352 5.7572 5.79002 5.5186 5.83581 5.28841C5.8816 5.05822 5.99462 4.84678 6.16057 4.68082C6.32653 4.51486 6.53798 4.40184 6.76817 4.35605C6.99836 4.31027 7.23696 4.33377 7.45379 4.42358C7.67063 4.5134 7.85596 4.6655 7.98635 4.86064C8.11674 5.05579 8.18634 5.28522 8.18634 5.51992C8.18634 5.83464 8.06132 6.13648 7.83877 6.35902C7.61623 6.58156 7.3144 6.70659 6.99967 6.70659ZM11.6663 0.333252H2.33301C1.80257 0.333252 1.29387 0.543966 0.918794 0.919038C0.543722 1.29411 0.333008 1.80282 0.333008 2.33325V11.6666C0.333008 12.197 0.543722 12.7057 0.918794 13.0808C1.29387 13.4559 1.80257 13.6666 2.33301 13.6666H11.6663C12.1968 13.6666 12.7055 13.4559 13.0806 13.0808C13.4556 12.7057 13.6663 12.197 13.6663 11.6666V2.33325C13.6663 1.80282 13.4556 1.29411 13.0806 0.919038C12.7055 0.543966 12.1968 0.333252 11.6663 0.333252ZM12.333 11.6666C12.333 11.8434 12.2628 12.013 12.1377 12.138C12.0127 12.263 11.8432 12.3333 11.6663 12.3333H2.33301C2.1562 12.3333 1.98663 12.263 1.8616 12.138C1.73658 12.013 1.66634 11.8434 1.66634 11.6666V2.33325C1.66634 2.15644 1.73658 1.98687 1.8616 1.86185C1.98663 1.73682 2.1562 1.66659 2.33301 1.66659H11.6663C11.8432 1.66659 12.0127 1.73682 12.1377 1.86185C12.2628 1.98687 12.333 2.15644 12.333 2.33325V11.6666Z" fill="#0A0A0A"/>
</svg>
