<svg width="18" height="19" viewBox="0 0 18 19" fill="none" xmlns="http://www.w3.org/2000/svg">
<path d="M13.0937 9.96903C13.1003 9.39499 13.2525 8.83203 13.536 8.33286C13.8195 7.83368 14.2251 7.41462 14.7147 7.11492C14.4035 6.67178 13.9938 6.30681 13.5178 6.04866C13.0418 5.7905 12.5124 5.64619 11.9712 5.62704C10.803 5.50862 9.6917 6.31474 9.09977 6.31474C8.50746 6.31474 7.59302 5.64444 6.62413 5.66293C5.98826 5.68061 5.36789 5.86318 4.8238 6.19274C4.27972 6.5223 3.83058 6.98756 3.52039 7.54292C2.1986 9.83805 3.183 13.2382 4.47112 15.1005C5.10146 16.0109 5.85283 17.0363 6.83945 16.999C7.79022 16.9616 8.14907 16.3849 9.297 16.3849C10.4453 16.3849 10.7682 16.999 11.7726 16.9805C12.7948 16.9616 13.4436 16.0512 14.0688 15.1374C14.5163 14.4803 14.866 13.7617 15.1069 13.004C14.5117 12.7499 14.004 12.327 13.6462 11.7877C13.2885 11.2484 13.0964 10.6162 13.0937 9.96903ZM11.2061 4.39497C11.7722 3.73099 12.0527 2.87003 11.9863 2C11.1316 2.08291 10.341 2.48966 9.77664 3.13686C9.49505 3.45039 9.27948 3.8174 9.14276 4.21603C9.00605 4.61465 8.951 5.03672 8.98089 5.45708C9.40847 5.46298 9.83166 5.37023 10.2176 5.18603C10.6035 5.00182 10.9417 4.73113 11.2061 4.39497Z" fill="#5A078B"/>
</svg>
