<svg width="19" height="19" viewBox="0 0 19 19" fill="none" xmlns="http://www.w3.org/2000/svg">
<g clip-path="url(#clip0_982_13866)">
<path d="M9.5 18.501C14.4706 18.501 18.5 14.4715 18.5 9.50098C18.5 4.53041 14.4706 0.500977 9.5 0.500977C4.52944 0.500977 0.5 4.53041 0.5 9.50098C0.5 14.4715 4.52944 18.501 9.5 18.501Z" fill="#1977F3"/>
<path d="M13.0033 12.1031L13.402 9.50093H10.9061V7.81256C10.9061 7.10127 11.2542 6.40643 12.373 6.40643H13.5083V4.19155C13.5083 4.19155 12.4781 4.01562 11.4934 4.01562C9.43799 4.01562 8.09388 5.26102 8.09388 7.51766V9.50093H5.80812V12.1031H8.09388V18.3921C8.55204 18.4642 9.02159 18.5009 9.50001 18.5009C9.97842 18.5009 10.448 18.463 10.9061 18.3921V12.1031H13.0033Z" fill="white"/>
</g>
<defs>
<clipPath id="clip0_982_13866">
<rect x="0.5" y="0.5" width="18" height="18" rx="9" fill="white"/>
</clipPath>
</defs>
</svg>
