<svg width="18" height="19" viewBox="0 0 18 19" fill="none" xmlns="http://www.w3.org/2000/svg">
<g clip-path="url(#clip0_982_29460)">
<path d="M17.617 9.70242C17.617 8.95992 17.5609 8.41992 17.426 7.85742H8.98828V11.1987H13.9431C13.842 12.0312 13.3027 13.2799 12.1005 14.1237L12.0892 14.2362L14.752 16.3062L14.9318 16.3287C16.6396 14.7537 17.617 12.4362 17.617 9.70242Z" fill="#4285F4"/>
<path d="M8.98829 18.4998C11.4151 18.4998 13.4487 17.7011 14.943 16.3173L12.1117 14.1123C11.3477 14.6411 10.3365 15.0123 8.99952 15.0123C6.61763 15.0123 4.6065 13.4373 3.88744 11.2773L3.78632 11.2886L0.999954 13.4373L0.966248 13.5386C2.43808 16.4748 5.47162 18.4998 8.98829 18.4998Z" fill="#34A853"/>
<path d="M3.87619 11.2773C3.68519 10.7148 3.57284 10.1185 3.57284 9.49976C3.57284 8.88101 3.68519 8.28476 3.86496 7.72226V7.59851L1.05612 5.41602L0.96624 5.46102C0.348296 6.67601 0 8.04851 0 9.49976C0 10.951 0.348296 12.3235 0.955004 13.5385L3.87619 11.2773Z" fill="#FBBC05"/>
<path d="M8.98829 3.97625C10.6736 3.97625 11.8196 4.7075 12.46 5.315L14.9992 2.84C13.4375 1.38875 11.4151 0.5 8.98829 0.5C5.47163 0.5 2.43808 2.525 0.955017 5.46125L3.86497 7.7225C4.59527 5.55125 6.6064 3.97625 8.98829 3.97625Z" fill="#EB4335"/>
</g>
<defs>
<clipPath id="clip0_982_29460">
<rect y="0.5" width="18" height="18" rx="9" fill="white"/>
</clipPath>
</defs>
</svg>
