<svg width="40" height="40" viewBox="0 0 40 40" fill="none" xmlns="http://www.w3.org/2000/svg">
<g clip-path="url(#clip0_237_186725)">
<path d="M5.85436 0.0078125C13.3933 0.0078125 20.9332 0.0078125 28.4722 0.0078125C28.3865 0.297793 28.1194 0.22734 27.9267 0.257972C26.8785 0.422363 25.8712 0.716428 24.9321 1.20654C22.0038 2.73404 20.1023 5.09677 19.4507 8.34272C18.7431 11.8695 19.6608 14.9827 22.1486 17.6109C23.4333 18.9679 24.9882 19.8633 26.7725 20.379C26.8724 20.4076 26.9723 20.4361 27.0539 20.5066C27.1365 20.7629 26.9 20.8068 26.7715 20.8936C25.6142 21.6706 24.4386 22.4201 23.2763 23.1899C22.3546 23.7903 21.4176 24.3682 20.5193 25.0044C20.1369 25.276 19.8107 25.2811 19.4253 25.0064C18.5606 24.3907 17.6562 23.8342 16.7651 23.2563C13.0436 20.8303 9.32712 18.4002 5.60354 15.9782C5.23954 15.7413 5.11107 15.4769 5.11413 15.0541C5.12942 12.5842 5.12126 10.1143 5.12228 7.64329C5.12228 7.40947 5.11719 7.17565 5.08252 6.94387C5.11515 5.13455 5.08762 3.32523 5.09679 1.51592C5.09781 1.33417 5.09374 1.1514 5.09985 0.96965C5.12025 0.372331 5.29052 0.155866 5.85436 0.0078125Z" fill="#F8ECFF"/>
<path d="M39.9 12.0716C39.897 12.0921 39.8939 12.1135 39.8909 12.1339C39.8786 12.2217 39.8654 12.3085 39.8501 12.3953C39.6686 13.4592 39.3178 14.466 38.7989 15.4176C37.7028 17.4301 36.1346 18.9525 34.0679 19.942C32.1439 20.8629 30.122 21.1887 28.0084 20.8578C27.6872 20.8078 27.3253 20.863 27.0694 20.5791L27.0663 20.576C24.2135 19.8307 22.006 18.2102 20.5174 15.6576C19.2898 13.5511 18.8646 11.2762 19.2409 8.85938C19.6895 5.97488 21.121 3.68567 23.46 1.96723C24.8905 0.915534 26.5086 0.311067 28.2684 0.0874551C28.3428 0.0782656 28.4275 0.0946025 28.4723 0.0078125H28.5498C28.7323 0.0711182 28.9138 0.0711182 29.0963 0.0078125H30.5778C31.4822 0.0905183 32.3713 0.232446 33.2237 0.568374C33.7274 0.768502 34.2219 0.981903 34.6868 1.25963C34.699 1.26474 34.7113 1.27188 34.7225 1.28005C34.7378 1.28822 34.7521 1.29741 34.7674 1.3066C38.7204 3.67546 40.4496 7.57182 39.9 12.0716Z" fill="#420566"/>
<path d="M16.8508 23.2015C16.8365 23.2291 16.8202 23.2566 16.8039 23.2832C16.6775 23.4905 16.5031 23.6579 16.3318 23.8295C11.3878 28.7816 6.44269 33.7337 1.4966 38.6848C1.38241 38.7992 1.28453 38.937 1.12547 38.9973C1.11629 39.0004 1.1061 39.0034 1.0959 39.0065C1.08774 39.0095 1.07959 39.0116 1.07041 39.0136C0.484139 38.7032 0.262885 38.1427 0.0895528 37.5556C0.0538667 37.4351 0.0742588 37.2993 0.00390625 37.1839V12.1914C0.167043 12.1414 0.271042 12.2578 0.391355 12.3272C1.85448 13.1737 3.22993 14.1559 4.65023 15.0677C4.74709 15.13 4.846 15.2607 4.95305 15.2148C5.09478 15.1545 5.02748 14.985 5.02748 14.8635C5.03156 12.3252 5.02952 9.7858 5.02952 7.24745V7.14024C5.03768 7.09123 5.05603 7.05039 5.09274 7.02996C5.10905 7.02077 5.12944 7.01567 5.15391 7.01465C5.27423 7.14943 5.22019 7.3128 5.22019 7.46289C5.22427 10.0492 5.22631 12.6346 5.21815 15.2209C5.21713 15.4813 5.28748 15.6375 5.51689 15.7866C9.21703 18.1891 12.91 20.6029 16.604 23.0157C16.6897 23.0718 16.7682 23.1392 16.8508 23.2015Z" fill="#5A078B"/>
<path d="M5.15511 7.01471C5.13064 7.04841 5.10617 7.0821 5.0817 7.11682C5.05009 7.28325 4.91754 7.37719 4.80946 7.48542C3.35653 8.9435 1.90258 10.4005 0.444546 11.8525C0.324233 11.973 0.228391 12.1588 0.00407841 12.1139C0.00509801 8.1777 0.00713721 4.24254 0 0.306355C0 0.0796799 0.0295684 -0.00200487 0.289567 3.72455e-05C2.14422 0.0143321 3.99888 0.00820572 5.85353 0.00820572C5.39879 0.223649 5.21118 0.560599 5.21934 1.08542C5.24585 2.8978 5.23056 4.71223 5.22852 6.52461C5.22954 6.69104 5.26013 6.8636 5.15511 7.01471Z" fill="white"/>
<path d="M39.9366 12.479C39.9366 20.4576 39.9407 28.4351 39.9325 36.4137C39.9325 37.4123 39.6256 38.3057 38.8569 38.9949C38.1788 39.7107 37.3162 39.9762 36.3639 39.9915C35.3637 40.0078 34.3624 39.9956 33.3622 39.9956H3.73463C2.73236 39.9956 1.81778 39.7546 1.0959 39.0062C1.08774 39.0092 1.07959 39.0113 1.07041 39.0133C0.484139 38.7029 0.262885 38.1423 0.0895528 37.5552C0.0538667 37.4347 0.0742588 37.2989 0.00390625 37.1836C0.241473 37.5052 0.251669 37.9259 0.48108 38.2577C0.664608 38.5212 0.830803 38.7928 1.0857 38.9959C1.09896 38.9949 1.11221 38.9949 1.12547 38.997C1.26209 39.0031 1.36813 39.0858 1.47009 39.1634C2.16444 39.6954 2.96483 39.8587 3.81722 39.8587C6.54567 39.8557 9.27413 39.8577 12.0026 39.8577C20.033 39.8577 28.0633 39.8557 36.0937 39.8598C37.1072 39.8608 38.0218 39.6219 38.7732 38.904C38.7743 38.903 38.7743 38.903 38.7753 38.902C38.7987 38.8795 38.8212 38.8561 38.8426 38.8326C39.5604 38.0821 39.803 37.1601 39.802 36.1329C39.7959 28.5189 39.801 20.9048 39.7939 13.2908C39.7939 12.9916 39.852 12.6935 39.8499 12.3953C39.8489 12.2799 39.8398 12.1656 39.8132 12.0502C40.2853 8.31209 39.1617 5.15497 36.3833 2.6013C35.8745 2.13366 35.2964 1.75893 34.7142 1.39033C34.705 1.34642 34.6959 1.30252 34.6867 1.25963C34.5878 0.79607 34.4583 0.347825 34.0872 0.0078125C34.6724 0.262056 34.7591 0.742975 34.7224 1.28005C34.7377 1.28822 34.7519 1.29741 34.7672 1.3066C38.7202 3.67546 40.4495 7.57182 39.8999 12.0716C39.8968 12.0921 39.8938 12.1135 39.8907 12.1339C39.9519 12.235 39.9366 12.3596 39.9366 12.479Z" fill="white"/>
<path d="M0.00488281 12.1143C0.153745 12.0734 0.231234 11.9448 0.330136 11.8457C1.8106 10.3662 3.288 8.88464 4.76642 7.40513C4.86634 7.30506 4.97646 7.21317 5.08148 7.11719C5.16917 7.19887 5.15183 7.3071 5.15183 7.40921C5.15183 10.0486 5.15183 12.6891 5.15183 15.3285C5.15183 15.3776 5.14062 15.4255 5.1345 15.4817C4.9836 15.4654 4.89081 15.3714 4.7858 15.303C3.48376 14.4545 2.18377 13.603 0.878682 12.7596C0.587075 12.5717 0.270999 12.4216 0.00590241 12.1919C0.00488281 12.1663 0.00488281 12.1398 0.00488281 12.1143Z" fill="#420566"/>
<path d="M34.7223 1.28005C34.7203 1.31579 34.7172 1.35357 34.7142 1.39033V1.39135C33.4855 0.706217 32.1754 0.265119 30.7795 0.0884762C30.7061 0.0792866 30.6205 0.0946025 30.5776 0.0078125H34.0871C34.6724 0.262056 34.759 0.742975 34.7223 1.28005Z" fill="#F8ECFF"/>
<path d="M29.0963 0.0078125C28.9148 0.12115 28.7323 0.139529 28.5508 0.0078125C28.7323 0.0078125 28.9148 0.0078125 29.0963 0.0078125Z" fill="#DBB0F5"/>
<path d="M38.8571 38.9948C38.1791 39.7106 37.3165 39.976 36.3642 39.9913C35.3639 40.0077 34.3627 39.9954 33.3625 39.9954H3.73486C2.73259 39.9954 1.81801 39.7545 1.09613 39.006C1.09307 39.003 1.089 38.9989 1.08594 38.9958C1.19707 38.8692 1.30209 38.7365 1.42037 38.618C6.37869 33.6506 11.337 28.6831 16.3045 23.7238C16.4564 23.5727 16.5411 23.344 16.7409 23.2419C16.7746 23.2245 16.8102 23.2102 16.851 23.201C17.6881 23.7412 18.5476 24.2497 19.3531 24.8337C19.8007 25.1594 20.1178 25.1686 20.5736 24.845C21.4372 24.2303 22.3202 23.6401 23.2419 23.1143C23.2613 23.1337 23.2806 23.1541 23.3 23.1735C28.3185 28.3247 33.4542 33.3585 38.5145 38.4689C38.6267 38.5823 38.7898 38.6721 38.8428 38.8324C38.8591 38.8794 38.8652 38.9325 38.8571 38.9948Z" fill="#420566"/>
<path d="M39.9367 12.4796C39.9367 20.4582 39.9407 28.4357 39.9326 36.4143C39.9326 37.4129 39.6257 38.3063 38.8569 38.9955C38.8294 38.9649 38.8029 38.9343 38.7753 38.9026C38.6927 38.8056 38.6112 38.7086 38.5215 38.6187C33.5529 33.6421 28.5834 28.6655 23.6149 23.6898C23.4691 23.5438 23.311 23.407 23.258 23.2018C23.2499 23.1742 23.2448 23.1456 23.2417 23.115C24.039 22.581 24.8343 22.0459 25.6327 21.515C26.1078 21.1985 26.588 20.8891 27.0662 20.5766C27.0672 20.5766 27.0672 20.5766 27.0683 20.5766C33.1451 21.9101 38.7376 18.169 39.8133 12.0508C39.8469 12.0763 39.8724 12.1039 39.8908 12.1345C39.952 12.2356 39.9367 12.3602 39.9367 12.4796Z" fill="#5A078B"/>
<path d="M28.6415 8.59652C28.202 8.88854 27.8391 9.13666 27.47 9.37355C27.1386 9.58491 26.7858 9.63596 26.4432 9.41132C25.9436 9.08356 25.9039 8.37699 26.4055 8.0186C27.2722 7.39882 28.1592 6.80558 29.0636 6.244C29.6427 5.88459 30.2514 6.20928 30.3677 6.88625C30.3921 7.02613 30.4013 7.1701 30.4013 7.31305C30.4034 9.69518 30.4044 12.0763 30.4003 14.4584C30.4003 14.6391 30.382 14.8229 30.3412 14.9986C30.2514 15.3906 29.9221 15.6377 29.5204 15.6377C29.1075 15.6367 28.8046 15.3988 28.6996 14.9975C28.6497 14.8066 28.6405 14.6136 28.6405 14.4176C28.6425 12.6471 28.6415 10.8776 28.6415 9.10705C28.6415 8.96512 28.6415 8.82319 28.6415 8.59652Z" fill="#F8ECFF"/>
</g>
<defs>
<clipPath id="clip0_237_186725">
<rect width="40" height="40" fill="white"/>
</clipPath>
</defs>
</svg>
