<svg width="28" height="43" viewBox="0 0 28 43" fill="none" xmlns="http://www.w3.org/2000/svg">
<path d="M0.0110476 36.8218C0.0073652 36.607 0.00122771 36.3934 0.00122771 36.1786C2.62239e-07 25.0542 0 13.9298 0 2.80545C0 1.34356 1.32688 0.000726514 2.77772 0.00195397C4.80056 0.00440887 6.8234 0.00931869 8.84502 0.013001C8.96899 0.149248 8.96654 0.321092 8.97022 0.488025C8.97636 0.717559 8.97145 0.945865 8.97267 1.1754C8.98127 2.31202 9.46243 2.803 10.588 2.80791C11.8412 2.81405 13.0932 2.80668 14.3465 2.80914C15.418 2.8165 16.4908 2.82141 17.5624 2.803C18.4695 2.78827 18.9604 2.2666 19.0071 1.36197C19.0304 0.911496 18.8905 0.442609 19.1298 0.0117736C20.0271 0.0117736 20.9244 0.013001 21.8216 0.013001C23.4247 0.231487 24.3932 1.32637 24.4386 2.97361C24.4422 3.11109 24.441 3.24979 24.441 3.38727C24.441 14.2244 24.4422 25.0616 24.4373 35.8988C24.4373 36.213 24.511 36.5469 24.295 36.8329C24.0949 36.9814 23.8592 36.9605 23.6309 36.9605C15.9753 36.963 8.3209 36.963 0.665279 36.9605C0.441882 36.9605 0.203757 36.9912 0.0110476 36.8218Z" fill="#DBB0F5"/>
<path d="M24.2948 36.7973C24.2948 25.5293 24.2961 14.2613 24.2961 2.9921C24.2961 1.65418 23.3963 0.311346 21.8927 0.0695384C21.8669 0.0658561 21.8461 0.0327148 21.8228 0.014303C23.0036 0.0106207 24.1844 -0.0127008 25.364 0.00939333C26.6859 0.0339424 27.9723 1.39028 27.9735 2.73925C27.9784 6.02022 27.976 9.3012 27.976 12.5822C27.976 20.4624 27.976 28.3427 27.976 36.2229C27.976 36.4217 27.9686 36.6206 27.9637 36.8207C27.8581 36.925 27.7219 36.9483 27.5844 36.9496C26.6098 36.9618 25.634 36.9667 24.6594 36.9471C24.5514 36.9446 24.4483 36.9213 24.3538 36.8636C24.3341 36.8415 24.3145 36.8194 24.2948 36.7973Z" fill="#DBB0F5"/>
<path d="M0.010498 36.8214C2.63233 36.8177 5.25294 36.8128 7.87478 36.8128C13.1491 36.8116 18.4223 36.8128 23.6966 36.8116C23.8955 36.8116 24.0943 36.8018 24.2932 36.7969L24.2956 36.8276C24.5288 37.1786 24.4454 37.5702 24.4036 37.9396C24.2392 39.3929 22.9467 40.5909 21.486 40.6216C19.9738 40.6535 18.4616 40.6314 16.9493 40.6278C16.7971 40.6278 16.6425 40.6241 16.5062 40.5394C16.3749 40.354 16.5651 40.2706 16.6363 40.1564C16.9334 39.674 16.7296 39.1904 16.1638 39.172C14.7141 39.1254 13.2633 39.1278 11.8149 39.1708C11.249 39.188 11.0404 39.6703 11.335 40.1515C11.4062 40.2681 11.5927 40.3503 11.4712 40.5381C11.2896 40.6511 11.087 40.6327 10.8894 40.6327C8.25161 40.6351 5.61381 40.6462 2.97479 40.6278C1.8394 40.6192 0.944589 40.1257 0.321043 39.156C0.112376 38.832 0.0780077 38.4699 0.0141803 38.109C0.0141803 37.6794 0.0117255 37.2498 0.010498 36.8214Z" fill="#DBB0F5"/>
<path d="M16.4525 40.4771C18.1795 40.4821 19.9078 40.5213 21.6336 40.4808C23.001 40.4489 24.2763 39.0668 24.2947 37.6982C24.2984 37.4073 24.2959 37.1176 24.2971 36.8267C25.5197 36.8242 26.7422 36.8218 27.9648 36.8193C27.9685 37.8774 27.9955 38.9355 27.9697 39.9935C27.9353 41.4247 26.6207 42.6902 25.1686 42.6976C22.8991 42.7099 20.6295 42.7013 18.36 42.7013C13.2525 42.7013 8.14634 42.7025 3.03891 42.7013C1.25297 42.7013 0.00342472 41.453 0.00219727 39.6719C0.00219727 39.1503 0.0107895 38.6298 0.0156993 38.1082C0.370433 39.3307 1.12286 40.1494 2.39082 40.4428C2.49392 40.4661 2.60071 40.4906 2.70505 40.4906C5.64479 40.4882 8.58454 40.4821 11.5255 40.4771C11.69 40.3323 11.895 40.3483 12.0914 40.347C13.3569 40.3421 14.6224 40.3421 15.8879 40.347C16.083 40.3483 16.288 40.3335 16.4525 40.4771Z" fill="#5A078B"/>
<path d="M14.3669 2.93649C13.0069 2.94017 11.6469 2.95367 10.2868 2.94385C9.46076 2.93771 8.85317 2.31171 8.83844 1.4795C8.82985 0.990975 8.84212 0.501221 8.84581 0.0126953C11.0528 0.0139228 13.2585 0.0163778 15.4655 0.0176052C15.6803 0.770033 15.7011 1.52492 15.3783 2.24789C15.1942 2.66276 14.8309 2.89107 14.3669 2.93649Z" fill="#5A078B"/>
<path d="M14.3657 2.93674C15.1648 2.61023 15.5306 2.02597 15.4655 1.15693C15.4373 0.778876 15.4631 0.397139 15.4643 0.0178561C16.6868 0.0154012 17.9094 0.0141737 19.1307 0.0117188C19.1344 0.514974 19.1491 1.01823 19.1381 1.52148C19.1209 2.31933 18.5059 2.93674 17.7044 2.9441C16.5923 2.95269 15.479 2.93919 14.3657 2.93674Z" fill="#5A078B"/>
<path d="M11.5798 23.0288C9.37656 21.6013 7.70354 19.754 6.96339 17.1739C6.74736 16.4202 6.62952 15.6494 6.62829 14.8638C6.62584 13.4682 6.63198 12.0726 6.62093 10.677C6.61847 10.4143 6.67126 10.3112 6.9683 10.2928C9.52631 10.1345 11.7995 9.24947 13.7451 7.56664C13.9034 7.43039 14.0077 7.3592 14.2004 7.53472C15.2438 8.48477 16.4651 9.14146 17.7686 9.65576C17.8398 10.801 17.8312 11.9474 17.7723 13.0926C17.5968 13.4596 17.1807 13.5443 16.9156 13.823C15.9643 14.8196 14.975 15.7807 14.0004 16.7553C13.2504 17.5053 13.2504 17.5053 12.5115 16.7676C12.1972 16.4534 11.8928 16.1293 11.5651 15.8298C11.246 15.5377 10.8716 15.523 10.62 15.7709C10.3671 16.0201 10.3708 16.408 10.6666 16.7148C11.3368 17.4096 12.018 18.092 12.7128 18.761C13.108 19.1415 13.4308 19.1182 13.8653 18.6886C14.9443 17.6231 16.0085 16.543 17.0874 15.4788C17.2261 15.3425 17.3329 15.102 17.6066 15.1977C17.7122 15.8618 17.4691 16.4681 17.2531 17.0622C16.4074 19.3907 14.7933 21.0895 12.7484 22.4127C12.3826 22.6508 12.0328 22.9417 11.5798 23.0288Z" fill="#5A078B"/>
<path d="M11.5818 23.0291C12.3502 22.4841 13.1885 22.0459 13.9176 21.4383C15.8423 19.8316 17.1765 17.8762 17.5742 15.3551C17.584 15.2961 17.5718 15.2335 17.5693 15.1722C17.5497 15.1317 17.5484 15.0899 17.5644 15.047C17.6454 14.8972 17.7767 14.7917 17.8921 14.6726C18.4825 14.0638 18.4383 13.7225 17.7092 13.2966C17.6982 13.2782 17.6871 13.2598 17.6761 13.2414C17.6749 12.1735 17.6712 11.1056 17.6724 10.0365C17.6724 9.90394 17.638 9.75665 17.7718 9.65723C18.852 10.0046 19.9542 10.2415 21.0909 10.2992C21.2431 10.3065 21.3597 10.3225 21.3523 10.5214C21.2762 12.5847 21.5806 14.6677 21.1436 16.7089C20.6011 19.2461 19.0729 21.1364 17.0157 22.6363C16.1847 23.2427 15.2936 23.7447 14.3558 24.1694C14.0956 24.2872 13.8783 24.2872 13.6206 24.1632C12.9173 23.8257 12.209 23.5017 11.5818 23.0291Z" fill="#5A078B"/>
<path d="M5.89279 31.4736C5.55524 31.6602 5.30852 31.8124 5.0483 31.9364C4.67638 32.1131 4.28974 31.9928 4.09089 31.6602C3.88468 31.3165 3.96323 30.9458 4.30815 30.6917C4.44317 30.5923 4.5966 30.5174 4.74021 30.4315C5.1465 30.1897 5.1465 30.1799 4.72303 29.9307C4.59169 29.8534 4.45176 29.7859 4.32779 29.6963C3.97305 29.441 3.88345 29.0825 4.07616 28.7352C4.27501 28.3755 4.67025 28.2516 5.06426 28.443C5.32202 28.5682 5.56751 28.7204 5.89279 28.9009C5.89279 28.5535 5.88174 28.27 5.89524 27.9889C5.91734 27.5458 6.20579 27.2536 6.61207 27.2463C7.03432 27.2377 7.33995 27.5396 7.36082 28.0048C7.3731 28.2773 7.36327 28.5511 7.36327 28.8579C7.67382 28.7867 7.88126 28.594 8.12184 28.4737C8.54654 28.2601 8.94914 28.3498 9.16517 28.7094C9.38734 29.0789 9.28546 29.4594 8.87672 29.7331C8.66192 29.8779 8.43361 30.0031 8.1869 30.1504C8.34646 30.3947 8.60791 30.461 8.81658 30.5972C9.26214 30.8881 9.39348 31.2551 9.17868 31.6406C8.95896 32.037 8.5404 32.1193 8.06538 31.8701C7.8518 31.7584 7.66768 31.5865 7.36327 31.5227C7.36327 31.7928 7.36819 32.0444 7.36205 32.296C7.34977 32.8079 7.07482 33.1221 6.64031 33.1294C6.18615 33.138 5.90261 32.8164 5.89279 32.2764C5.88911 32.0333 5.89279 31.7903 5.89279 31.4736Z" fill="#424242"/>
<path d="M13.2528 31.479C12.9496 31.6472 12.7041 31.7945 12.4488 31.9209C12.0548 32.1161 11.6559 32.0068 11.4497 31.6582C11.2373 31.301 11.3368 30.934 11.705 30.6603C11.9333 30.4909 12.3592 30.4369 12.3641 30.173C12.369 29.9557 11.9443 29.8809 11.7234 29.7225C11.3429 29.4513 11.2361 29.0941 11.4386 28.732C11.6461 28.3588 12.0499 28.2484 12.4697 28.4619C12.7115 28.5847 12.9447 28.7258 13.2528 28.8989C13.2528 28.597 13.2504 28.3601 13.2528 28.1232C13.2602 27.572 13.5241 27.2529 13.9758 27.2443C14.4459 27.2357 14.7184 27.561 14.7245 28.1428C14.727 28.3699 14.7245 28.597 14.7245 28.8584C15.0351 28.7835 15.2425 28.5933 15.4831 28.4718C15.9066 28.2594 16.3104 28.3502 16.5264 28.7099C16.7474 29.0793 16.6443 29.4599 16.2355 29.7336C16.0207 29.8772 15.7924 30.0036 15.5481 30.1497C15.7065 30.3976 15.9716 30.4602 16.1791 30.5977C16.6222 30.8886 16.7535 31.2581 16.5387 31.641C16.3178 32.0351 15.8967 32.121 15.4266 31.8657C15.2143 31.7503 15.0056 31.63 14.7245 31.4717C14.7245 31.7613 14.7257 31.9835 14.7245 32.2057C14.7196 32.7948 14.4618 33.1226 13.9991 33.1287C13.5327 33.1361 13.2589 32.8059 13.2528 32.2265C13.2516 32.0007 13.2528 31.7736 13.2528 31.479Z" fill="#424242"/>
<path d="M20.6155 28.9049C20.6155 28.549 20.6057 28.274 20.618 28.0003C20.6388 27.5363 20.9457 27.2344 21.3692 27.2454C21.7742 27.2552 22.0615 27.5486 22.0823 27.9929C22.0958 28.2679 22.0848 28.5428 22.0848 28.8472C22.3941 28.8018 22.5942 28.5981 22.8323 28.479C23.2656 28.2617 23.6559 28.3415 23.8805 28.6987C24.1174 29.078 24.0033 29.4646 23.5724 29.7543C23.3613 29.8967 23.1072 29.9765 22.8937 30.2158C23.1048 30.341 23.2975 30.4527 23.4878 30.5681C23.9886 30.8725 24.1297 31.2678 23.8842 31.6691C23.6498 32.0509 23.241 32.1184 22.7599 31.8508C22.561 31.7403 22.3646 31.6262 22.0848 31.4666C22.0848 31.814 22.0958 32.0951 22.0823 32.3737C22.0615 32.8365 21.7497 33.1396 21.3287 33.1274C20.9248 33.1163 20.6376 32.8217 20.6167 32.3774C20.6045 32.1024 20.6143 31.8275 20.6143 31.5145C20.2976 31.593 20.0779 31.7931 19.8226 31.9159C19.3991 32.1184 19.0014 32.0079 18.7952 31.6299C18.5964 31.2653 18.7056 30.9155 19.091 30.643C19.312 30.4871 19.7232 30.4245 19.7256 30.1876C19.7268 29.9483 19.3144 29.8869 19.0947 29.731C18.6946 29.4487 18.5878 29.0743 18.8136 28.7036C19.0333 28.344 19.4323 28.2531 19.8569 28.4753C20.0877 28.5968 20.3087 28.7306 20.6155 28.9049Z" fill="#424242"/>
<path d="M16.4539 40.4771C14.8116 40.4771 13.1693 40.4771 11.5257 40.4771C11.1661 40.2574 10.9414 39.9653 11.0863 39.5258C11.2238 39.1097 11.5601 39.014 11.9651 39.0177C13.3141 39.0275 14.6643 39.0275 16.0133 39.0177C16.4183 39.0152 16.7547 39.1097 16.8921 39.5258C17.0382 39.9653 16.8124 40.2574 16.4539 40.4771Z" fill="#F2DDFF"/>
<path d="M17.5825 15.1008C17.5788 15.1241 17.5739 15.1487 17.5702 15.172C16.3956 16.3368 15.2184 17.4992 14.045 18.6653C13.3908 19.3146 13.1207 19.3196 12.4812 18.6813C11.8638 18.0639 11.2427 17.4489 10.629 16.8278C10.2485 16.4424 10.2129 16.0103 10.521 15.69C10.8303 15.3696 11.2746 15.3942 11.6588 15.7673C12.0872 16.1834 12.5266 16.5934 12.9219 17.0402C13.1882 17.3409 13.3441 17.2906 13.6019 17.0254C14.714 15.8839 15.8506 14.7669 16.9749 13.6365C17.1738 13.4364 17.3775 13.2584 17.6758 13.2412L17.666 13.2658C17.9127 13.8893 17.9041 14.5018 17.5825 15.1008Z" fill="#F2DDFF"/>
<path d="M17.5813 15.1013C17.7163 14.495 17.6635 13.8788 17.6648 13.2663C18.0048 13.2307 18.2257 13.405 18.3497 13.6947C18.4822 14.0028 18.4221 14.2974 18.1815 14.5379C17.9876 14.7319 17.7814 14.9135 17.5813 15.1013Z" fill="#F8ECFF"/>
</svg>
